<ttFont>
<head>
    <!-- Most of this table will be recalculated by the compiler -->
    <tableVersion value="1.0"/>
    <fontRevision value="1.003"/>
    <checkSumAdjustment value="0xbb16932c"/>
    <magicNumber value="0x5f0f3cf5"/>
    <flags value="00000000 00000111"/>
    <unitsPerEm value="2048"/>
    <created value="Fri Apr 24 16:16:54 2020"/>
    <modified value="Fri Apr 24 22:00:24 2020"/>
    <xMin value="-1351"/>
    <yMin value="-840"/>
    <xMax value="3342"/>
    <yMax value="2126"/>
    <macStyle value="00000000 00000001"/>
    <lowestRecPPEM value="7"/>
    <fontDirectionHint value="2"/>
    <indexToLocFormat value="1"/>
    <glyphDataFormat value="0"/>
  </head>
    <TTGlyph name=".notdef" xMin="68" yMin="-131" xMax="932" yMax="1507">
      <contour>
        <pt x="354" y="1194" on="1"/>
        <pt x="286" y="1194" on="0"/>
        <pt x="287" y="1280" on="1"/>
        <pt x="287" y="1362" on="0"/>
        <pt x="371" y="1362" on="1"/>
        <pt x="499" y="1362" on="0"/>
        <pt x="614" y="1231" on="1"/>
        <pt x="729" y="1090" on="0"/>
        <pt x="731" y="930" on="1"/>
        <pt x="731" y="784" on="0"/>
        <pt x="649" y="741" on="1"/>
        <pt x="483" y="653" on="1"/>
        <pt x="410" y="612" on="0"/>
        <pt x="410" y="563" on="1"/>
        <pt x="410" y="508" on="0"/>
        <pt x="430" y="438" on="1"/>
        <pt x="431" y="424" on="0"/>
        <pt x="408" y="420" on="1"/>
        <pt x="393" y="418" on="0"/>
        <pt x="385" y="426" on="1"/>
        <pt x="309" y="561" on="0"/>
        <pt x="309" y="637" on="1"/>
        <pt x="309" y="727" on="0"/>
        <pt x="424" y="788" on="1"/>
        <pt x="530" y="844" on="1"/>
        <pt x="645" y="907" on="0"/>
        <pt x="645" y="995" on="1"/>
        <pt x="647" y="1194" on="0"/>
        <pt x="354" y="1194" on="1"/>
      </contour>
      <contour>
        <pt x="535" y="86" on="1"/>
        <pt x="535" y="18" on="0"/>
        <pt x="479" y="-14" on="1"/>
        <pt x="451" y="-31" on="0"/>
        <pt x="414" y="-31" on="1"/>
        <pt x="354" y="-31" on="0"/>
        <pt x="317" y="18" on="1"/>
        <pt x="297" y="49" on="0"/>
        <pt x="297" y="86" on="1"/>
        <pt x="297" y="156" on="0"/>
        <pt x="346" y="193" on="1"/>
        <pt x="375" y="213" on="0"/>
        <pt x="414" y="213" on="1"/>
        <pt x="477" y="213" on="0"/>
        <pt x="514" y="158" on="1"/>
        <pt x="535" y="125" on="0"/>
        <pt x="535" y="86" on="1"/>
      </contour>
      <contour>
        <pt x="932" y="-131" on="1"/>
        <pt x="932" y="1507" on="1"/>
        <pt x="68" y="1507" on="1"/>
        <pt x="68" y="-131" on="1"/>
      </contour>
    </TTGlyph>
    <TTGlyph name="A" xMin="-41" yMin="-6" xMax="1413" yMax="1389">
      <contour>
        <pt x="852" y="1178" on="1"/>
        <pt x="811" y="1294" on="0"/>
        <pt x="789" y="1389" on="0"/>
        <pt x="756" y="1389" on="1"/>
        <pt x="735" y="1389" on="0"/>
        <pt x="596" y="1305" on="0"/>
        <pt x="528" y="1282" on="0"/>
        <pt x="528" y="1268" on="1"/>
        <pt x="528" y="1260" on="0"/>
        <pt x="557" y="1231" on="0"/>
        <pt x="557" y="1217" on="0"/>
        <pt x="545" y="1186" on="1"/>
        <pt x="174" y="217" on="1"/>
        <pt x="125" y="86" on="0"/>
        <pt x="-27" y="86" on="1"/>
        <pt x="-41" y="86" on="0"/>
        <pt x="-41" y="-6" on="0"/>
        <pt x="-27" y="-6" on="1"/>
        <pt x="51" y="0" on="0"/>
        <pt x="350" y="0" on="0"/>
        <pt x="434" y="-6" on="1"/>
        <pt x="446" y="-6" on="0"/>
        <pt x="446" y="86" on="0"/>
        <pt x="434" y="86" on="1"/>
        <pt x="287" y="86" on="0"/>
        <pt x="287" y="160" on="1"/>
        <pt x="289" y="176" on="0"/>
        <pt x="297" y="201" on="1"/>
        <pt x="406" y="494" on="1"/>
        <pt x="416" y="522" on="0"/>
        <pt x="436" y="522" on="1"/>
        <pt x="811" y="522" on="1"/>
        <pt x="838" y="523" on="0"/>
        <pt x="844" y="500" on="1"/>
        <pt x="944" y="203" on="1"/>
        <pt x="954" y="172" on="0"/>
        <pt x="954" y="152" on="1"/>
        <pt x="954" y="86" on="0"/>
        <pt x="858" y="86" on="1"/>
        <pt x="844" y="86" on="0"/>
        <pt x="844" y="-6" on="0"/>
        <pt x="858" y="-6" on="1"/>
        <pt x="983" y="0" on="0"/>
        <pt x="1284" y="0" on="0"/>
        <pt x="1399" y="-6" on="1"/>
        <pt x="1413" y="-6" on="0"/>
        <pt x="1413" y="86" on="0"/>
        <pt x="1399" y="86" on="1"/>
        <pt x="1237" y="86" on="0"/>
        <pt x="1196" y="203" on="1"/>
      </contour>
      <contour>
        <pt x="793" y="643" on="1"/>
        <pt x="797" y="635" on="0"/>
        <pt x="797" y="629" on="1"/>
        <pt x="797" y="606" on="0"/>
        <pt x="768" y="606" on="1"/>
        <pt x="475" y="606" on="1"/>
        <pt x="455" y="608" on="0"/>
        <pt x="455" y="618" on="1"/>
        <pt x="459" y="635" on="1"/>
        <pt x="616" y="1067" on="1"/>
        <pt x="623" y="1083" on="0"/>
        <pt x="633" y="1083" on="1"/>
        <pt x="645" y="1083" on="0"/>
        <pt x="649" y="1067" on="1"/>
      </contour>
    </TTGlyph>
    <TTGlyph name="AE" xMin="-127" yMin="-6" xMax="1769" yMax="1358">
      <contour>
        <pt x="1769" y="336" on="1"/>
        <pt x="1769" y="352" on="0"/>
        <pt x="1667" y="352" on="0"/>
        <pt x="1667" y="336" on="1"/>
        <pt x="1667" y="92" on="0"/>
        <pt x="1450" y="86" on="1"/>
        <pt x="1206" y="78" on="1"/>
        <pt x="1077" y="77" on="0"/>
        <pt x="1077" y="272" on="1"/>
        <pt x="1077" y="567" on="1"/>
        <pt x="1077" y="600" on="0"/>
        <pt x="1106" y="600" on="1"/>
        <pt x="1286" y="600" on="1"/>
        <pt x="1364" y="596" on="0"/>
        <pt x="1364" y="438" on="1"/>
        <pt x="1364" y="426" on="0"/>
        <pt x="1460" y="426" on="0"/>
        <pt x="1460" y="438" on="1"/>
        <pt x="1452" y="510" on="0"/>
        <pt x="1452" y="645" on="1"/>
        <pt x="1454" y="770" on="0"/>
        <pt x="1460" y="860" on="1"/>
        <pt x="1460" y="874" on="0"/>
        <pt x="1364" y="874" on="0"/>
        <pt x="1364" y="860" on="1"/>
        <pt x="1364" y="684" on="0"/>
        <pt x="1286" y="684" on="1"/>
        <pt x="1106" y="684" on="1"/>
        <pt x="1077" y="684" on="0"/>
        <pt x="1077" y="713" on="1"/>
        <pt x="1077" y="1229" on="1"/>
        <pt x="1077" y="1272" on="0"/>
        <pt x="1108" y="1272" on="1"/>
        <pt x="1358" y="1268" on="1"/>
        <pt x="1587" y="1262" on="0"/>
        <pt x="1587" y="1010" on="1"/>
        <pt x="1587" y="993" on="0"/>
        <pt x="1688" y="993" on="0"/>
        <pt x="1688" y="1010" on="1"/>
        <pt x="1688" y="1313" on="1"/>
        <pt x="1687" y="1348" on="0"/>
        <pt x="1671" y="1354" on="1"/>
        <pt x="1657" y="1358" on="0"/>
        <pt x="1585" y="1358" on="1"/>
        <pt x="1401" y="1358" on="0"/>
        <pt x="1094" y="1352" on="0"/>
        <pt x="973" y="1352" on="1"/>
        <pt x="735" y="1352" on="0"/>
        <pt x="594" y="1358" on="1"/>
        <pt x="580" y="1358" on="0"/>
        <pt x="580" y="1266" on="0"/>
        <pt x="594" y="1266" on="1"/>
        <pt x="678" y="1266" on="0"/>
        <pt x="678" y="1227" on="1"/>
        <pt x="677" y="1209" on="0"/>
        <pt x="659" y="1180" on="1"/>
        <pt x="88" y="213" on="1"/>
        <pt x="56" y="158" on="0"/>
        <pt x="27" y="131" on="1"/>
        <pt x="-23" y="86" on="0"/>
        <pt x="-113" y="86" on="1"/>
        <pt x="-127" y="86" on="0"/>
        <pt x="-127" y="-6" on="0"/>
        <pt x="-113" y="-6" on="1"/>
        <pt x="-13" y="0" on="0"/>
        <pt x="137" y="0" on="1"/>
        <pt x="235" y="0" on="0"/>
        <pt x="352" y="-6" on="1"/>
        <pt x="367" y="-6" on="0"/>
        <pt x="367" y="86" on="0"/>
        <pt x="352" y="86" on="1"/>
        <pt x="213" y="86" on="0"/>
        <pt x="213" y="141" on="1"/>
        <pt x="213" y="159" on="0"/>
        <pt x="225" y="186" on="1"/>
        <pt x="432" y="582" on="1"/>
        <pt x="442" y="600" on="0"/>
        <pt x="469" y="600" on="1"/>
        <pt x="803" y="600" on="1"/>
        <pt x="831" y="600" on="0"/>
        <pt x="831" y="569" on="1"/>
        <pt x="831" y="195" on="1"/>
        <pt x="831" y="86" on="0"/>
        <pt x="678" y="86" on="1"/>
        <pt x="664" y="86" on="0"/>
        <pt x="664" y="-6" on="0"/>
        <pt x="678" y="-6" on="1"/>
        <pt x="784" y="0" on="0"/>
        <pt x="940" y="0" on="1"/>
        <pt x="1069" y="0" on="0"/>
        <pt x="1483" y="-6" on="0"/>
        <pt x="1669" y="-6" on="1"/>
        <pt x="1745" y="-6" on="0"/>
        <pt x="1763" y="14" on="1"/>
        <pt x="1769" y="22" on="0"/>
        <pt x="1769" y="49" on="1"/>
      </contour>
      <contour>
        <pt x="831" y="713" on="1"/>
        <pt x="831" y="684" on="0"/>
        <pt x="801" y="684" on="1"/>
        <pt x="526" y="684" on="1"/>
        <pt x="510" y="684" on="0"/>
        <pt x="510" y="700" on="1"/>
        <pt x="510" y="707" on="0"/>
        <pt x="514" y="713" on="1"/>
        <pt x="801" y="1210" on="1"/>
        <pt x="811" y="1229" on="0"/>
        <pt x="821" y="1229" on="1"/>
        <pt x="831" y="1226" on="0"/>
        <pt x="831" y="1210" on="1"/>
        <pt x="831" y="713" on="1"/>
      </contour>
    </TTGlyph>
    <TTGlyph name="AEacute" xMin="-127" yMin="-6" xMax="1769" yMax="1784">
      <component glyphName="AE" x="0" y="0" flags="0x0"/>
      <component glyphName="acutecomb.case" x="1748" y="0" flags="0x0"/>
    </TTGlyph>
    <TTGlyph name="Aacute" xMin="-41" yMin="-6" xMax="1413" yMax="1784">
      <component glyphName="A" x="0" y="0" flags="0x0"/>
      <component glyphName="acutecomb.case" x="1294" y="0" flags="0x0"/>
    </TTGlyph>
    <TTGlyph name="Abreve" xMin="-41" yMin="-6" xMax="1413" yMax="1842">
      <component glyphName="A" x="0" y="0" flags="0x0"/>
      <component glyphName="uni0306" x="1151" y="507" flags="0x4"/>
    </TTGlyph>
    <TTGlyph name="Acircumflex" xMin="-41" yMin="-6" xMax="1413" yMax="1799">
      <component glyphName="A" x="0" y="0" flags="0x0"/>
      <component glyphName="uni0302.case" x="1343" y="0" flags="0x0"/>
    </TTGlyph>
    <TTGlyph name="Adieresis" xMin="-41" yMin="-6" xMax="1413" yMax="1753">
      <component glyphName="A" x="0" y="0" flags="0x0"/>
      <component glyphName="uni0308.case" x="1311" y="0" flags="0x0"/>
    </TTGlyph>
    <TTGlyph name="Agrave" xMin="-41" yMin="-6" xMax="1413" yMax="1774">
      <component glyphName="A" x="0" y="0" flags="0x0"/>
      <component glyphName="gravecomb.case" x="1154" y="0" flags="0x0"/>
    </TTGlyph>
    <TTGlyph name="Amacron" xMin="-41" yMin="-6" xMax="1413" yMax="1661">
      <component glyphName="A" x="0" y="0" flags="0x0"/>
      <component glyphName="uni0304.case" x="1332" y="0" flags="0x0"/>
    </TTGlyph>
    <TTGlyph name="Aogonek" xMin="-41" yMin="-488" xMax="1413" yMax="1389">
      <contour>
        <pt x="793" y="643" on="1"/>
        <pt x="797" y="635" on="0"/>
        <pt x="797" y="629" on="1"/>
        <pt x="797" y="606" on="0"/>
        <pt x="768" y="606" on="1"/>
        <pt x="475" y="606" on="1"/>
        <pt x="455" y="608" on="0"/>
        <pt x="455" y="618" on="1"/>
        <pt x="459" y="635" on="1"/>
        <pt x="616" y="1067" on="1"/>
        <pt x="623" y="1083" on="0"/>
        <pt x="645" y="1083" on="0"/>
        <pt x="649" y="1067" on="1"/>
      </contour>
      <contour>
        <pt x="852" y="1178" on="1"/>
        <pt x="811" y="1294" on="0"/>
        <pt x="789" y="1389" on="0"/>
        <pt x="756" y="1389" on="1"/>
        <pt x="735" y="1389" on="0"/>
        <pt x="596" y="1305" on="0"/>
        <pt x="528" y="1282" on="0"/>
        <pt x="528" y="1268" on="1"/>
        <pt x="528" y="1260" on="0"/>
        <pt x="557" y="1231" on="0"/>
        <pt x="557" y="1217" on="0"/>
        <pt x="545" y="1186" on="1"/>
        <pt x="174" y="217" on="1"/>
        <pt x="125" y="86" on="0"/>
        <pt x="-27" y="86" on="1"/>
        <pt x="-41" y="86" on="0"/>
        <pt x="-41" y="-6" on="0"/>
        <pt x="-27" y="-6" on="1"/>
        <pt x="51" y="0" on="0"/>
        <pt x="201" y="0" on="1"/>
        <pt x="350" y="0" on="0"/>
        <pt x="434" y="-6" on="1"/>
        <pt x="446" y="-6" on="0"/>
        <pt x="446" y="86" on="0"/>
        <pt x="434" y="86" on="1"/>
        <pt x="287" y="86" on="0"/>
        <pt x="287" y="160" on="1"/>
        <pt x="289" y="176" on="0"/>
        <pt x="297" y="201" on="1"/>
        <pt x="406" y="494" on="1"/>
        <pt x="416" y="522" on="0"/>
        <pt x="436" y="522" on="1"/>
        <pt x="811" y="522" on="1"/>
        <pt x="838" y="523" on="0"/>
        <pt x="844" y="500" on="1"/>
        <pt x="944" y="203" on="1"/>
        <pt x="954" y="172" on="0"/>
        <pt x="954" y="152" on="1"/>
        <pt x="954" y="86" on="0"/>
        <pt x="858" y="86" on="1"/>
        <pt x="844" y="86" on="0"/>
        <pt x="844" y="-6" on="0"/>
        <pt x="858" y="-6" on="1"/>
        <pt x="951" y="0" on="0"/>
        <pt x="1057" y="0" on="1"/>
        <pt x="877" y="-162" on="0"/>
        <pt x="877" y="-303" on="1"/>
        <pt x="876" y="-487" on="0"/>
        <pt x="1081" y="-487" on="1"/>
        <pt x="1222" y="-488" on="0"/>
        <pt x="1298" y="-375" on="1"/>
        <pt x="1298" y="-342" on="0"/>
        <pt x="1278" y="-336" on="1"/>
        <pt x="1237" y="-367" on="0"/>
        <pt x="1176" y="-367" on="1"/>
        <pt x="1053" y="-367" on="0"/>
        <pt x="1053" y="-246" on="1"/>
        <pt x="1053" y="-141" on="0"/>
        <pt x="1176" y="0" on="1"/>
        <pt x="1301" y="0" on="0"/>
        <pt x="1399" y="-6" on="1"/>
        <pt x="1413" y="-6" on="0"/>
        <pt x="1413" y="86" on="0"/>
        <pt x="1399" y="86" on="1"/>
        <pt x="1237" y="86" on="0"/>
        <pt x="1196" y="203" on="1"/>
      </contour>
    </TTGlyph>
    <TTGlyph name="Aring" xMin="-41" yMin="-6" xMax="1413" yMax="1739">
      <contour>
        <pt x="1399" y="-6" on="1"/>
        <pt x="1405" y="-6" on="0"/>
        <pt x="1409" y="4" on="1"/>
        <pt x="1413" y="21" on="0"/>
        <pt x="1413" y="41" on="1"/>
        <pt x="1413" y="86" on="0"/>
        <pt x="1399" y="86" on="1"/>
        <pt x="1350" y="86" on="0"/>
        <pt x="1303" y="106" on="1"/>
        <pt x="1219" y="140" on="0"/>
        <pt x="1196" y="203" on="1"/>
        <pt x="852" y="1178" on="1"/>
        <pt x="811" y="1294" on="0"/>
        <pt x="803" y="1329" on="1"/>
        <pt x="799" y="1343" on="1"/>
        <pt x="849" y="1364" on="0"/>
        <pt x="918" y="1467" on="0"/>
        <pt x="918" y="1530" on="1"/>
        <pt x="912" y="1613" on="0"/>
        <pt x="796" y="1739" on="0"/>
        <pt x="686" y="1739" on="1"/>
        <pt x="592" y="1739" on="0"/>
        <pt x="459" y="1622" on="0"/>
        <pt x="459" y="1530" on="1"/>
        <pt x="459" y="1469" on="0"/>
        <pt x="531" y="1357" on="0"/>
        <pt x="600" y="1333" on="1"/>
        <pt x="174" y="217" on="1"/>
        <pt x="125" y="86" on="0"/>
        <pt x="-27" y="86" on="1"/>
        <pt x="-41" y="86" on="0"/>
        <pt x="-41" y="-6" on="0"/>
        <pt x="-27" y="-6" on="1"/>
        <pt x="113" y="0" on="0"/>
        <pt x="295" y="0" on="0"/>
        <pt x="434" y="-6" on="1"/>
        <pt x="446" y="-6" on="0"/>
        <pt x="446" y="86" on="0"/>
        <pt x="434" y="86" on="1"/>
        <pt x="318" y="86" on="0"/>
        <pt x="291" y="133" on="1"/>
        <pt x="287" y="146" on="0"/>
        <pt x="287" y="160" on="1"/>
        <pt x="289" y="176" on="0"/>
        <pt x="297" y="201" on="1"/>
        <pt x="406" y="494" on="1"/>
        <pt x="416" y="522" on="0"/>
        <pt x="436" y="522" on="1"/>
        <pt x="811" y="522" on="1"/>
        <pt x="836" y="523" on="0"/>
        <pt x="844" y="500" on="1"/>
        <pt x="944" y="203" on="1"/>
        <pt x="954" y="175" on="0"/>
        <pt x="954" y="152" on="1"/>
        <pt x="952" y="86" on="0"/>
        <pt x="858" y="86" on="1"/>
        <pt x="852" y="86" on="0"/>
        <pt x="848" y="74" on="1"/>
        <pt x="844" y="59" on="0"/>
        <pt x="844" y="39" on="1"/>
        <pt x="844" y="-6" on="0"/>
        <pt x="858" y="-6" on="1"/>
        <pt x="991" y="0" on="0"/>
        <pt x="1266" y="0" on="0"/>
        <pt x="1399" y="-6" on="1"/>
      </contour>
      <contour>
        <pt x="788" y="1530" on="1"/>
        <pt x="788" y="1495" on="0"/>
        <pt x="776" y="1466" on="1"/>
        <pt x="749" y="1401" on="0"/>
        <pt x="686" y="1401" on="1"/>
        <pt x="634" y="1401" on="0"/>
        <pt x="588" y="1479" on="0"/>
        <pt x="588" y="1530" on="1"/>
        <pt x="588" y="1588" on="0"/>
        <pt x="640" y="1660" on="0"/>
        <pt x="686" y="1663" on="1"/>
        <pt x="734" y="1663" on="0"/>
        <pt x="788" y="1588" on="0"/>
        <pt x="788" y="1530" on="1"/>
      </contour>
      <contour>
        <pt x="793" y="643" on="1"/>
        <pt x="797" y="633" on="0"/>
        <pt x="797" y="623" on="1"/>
        <pt x="797" y="606" on="0"/>
        <pt x="768" y="606" on="1"/>
        <pt x="481" y="606" on="1"/>
        <pt x="455" y="609" on="0"/>
        <pt x="455" y="625" on="1"/>
        <pt x="455" y="631" on="0"/>
        <pt x="459" y="641" on="1"/>
        <pt x="616" y="1067" on="1"/>
        <pt x="625" y="1083" on="0"/>
        <pt x="645" y="1083" on="0"/>
        <pt x="649" y="1067" on="1"/>
        <pt x="793" y="643" on="1"/>
      </contour>
    </TTGlyph>
    <TTGlyph name="Aringacute" xMin="-41" yMin="-6" xMax="1413" yMax="2070">
      <contour>
        <pt x="942" y="1935" on="1"/>
        <pt x="942" y="1951" on="0"/>
        <pt x="916" y="2008" on="0"/>
        <pt x="887" y="2055" on="0"/>
        <pt x="862" y="2070" on="0"/>
        <pt x="854" y="2070" on="1"/>
        <pt x="846" y="2070" on="0"/>
        <pt x="840" y="2064" on="1"/>
        <pt x="580" y="1865" on="1"/>
        <pt x="563" y="1853" on="0"/>
        <pt x="541" y="1816" on="0"/>
        <pt x="541" y="1802" on="1"/>
        <pt x="541" y="1783" on="0"/>
        <pt x="574" y="1761" on="0"/>
        <pt x="592" y="1761" on="1"/>
        <pt x="612" y="1761" on="0"/>
        <pt x="643" y="1775" on="1"/>
        <pt x="932" y="1910" on="1"/>
        <pt x="936" y="1912" on="0"/>
        <pt x="942" y="1925" on="0"/>
        <pt x="942" y="1935" on="1"/>
      </contour>
      <contour>
        <pt x="1399" y="-6" on="1"/>
        <pt x="1413" y="-6" on="0"/>
        <pt x="1413" y="86" on="0"/>
        <pt x="1399" y="86" on="1"/>
        <pt x="1350" y="86" on="0"/>
        <pt x="1303" y="106" on="1"/>
        <pt x="1217" y="143" on="0"/>
        <pt x="1196" y="203" on="1"/>
        <pt x="852" y="1178" on="1"/>
        <pt x="823" y="1260" on="0"/>
        <pt x="803" y="1329" on="1"/>
        <pt x="799" y="1343" on="1"/>
        <pt x="849" y="1363" on="0"/>
        <pt x="918" y="1461" on="0"/>
        <pt x="918" y="1520" on="1"/>
        <pt x="912" y="1599" on="0"/>
        <pt x="796" y="1719" on="0"/>
        <pt x="686" y="1719" on="1"/>
        <pt x="592" y="1719" on="0"/>
        <pt x="459" y="1608" on="0"/>
        <pt x="459" y="1520" on="1"/>
        <pt x="459" y="1462" on="0"/>
        <pt x="531" y="1356" on="0"/>
        <pt x="600" y="1333" on="1"/>
        <pt x="174" y="217" on="1"/>
        <pt x="124" y="86" on="0"/>
        <pt x="-27" y="86" on="1"/>
        <pt x="-41" y="86" on="0"/>
        <pt x="-41" y="-6" on="0"/>
        <pt x="-27" y="-6" on="1"/>
        <pt x="113" y="0" on="0"/>
        <pt x="295" y="0" on="0"/>
        <pt x="434" y="-6" on="1"/>
        <pt x="446" y="-6" on="0"/>
        <pt x="446" y="86" on="0"/>
        <pt x="434" y="86" on="1"/>
        <pt x="287" y="86" on="0"/>
        <pt x="287" y="160" on="1"/>
        <pt x="287" y="176" on="0"/>
        <pt x="297" y="201" on="1"/>
        <pt x="406" y="494" on="1"/>
        <pt x="416" y="522" on="0"/>
        <pt x="436" y="522" on="1"/>
        <pt x="811" y="522" on="1"/>
        <pt x="837" y="522" on="0"/>
        <pt x="844" y="500" on="1"/>
        <pt x="944" y="203" on="1"/>
        <pt x="954" y="173" on="0"/>
        <pt x="954" y="152" on="1"/>
        <pt x="954" y="86" on="0"/>
        <pt x="858" y="86" on="1"/>
        <pt x="844" y="86" on="0"/>
        <pt x="844" y="39" on="1"/>
        <pt x="844" y="-6" on="0"/>
        <pt x="858" y="-6" on="1"/>
        <pt x="991" y="0" on="0"/>
        <pt x="1266" y="0" on="0"/>
        <pt x="1399" y="-6" on="1"/>
      </contour>
      <contour>
        <pt x="788" y="1520" on="1"/>
        <pt x="788" y="1478" on="0"/>
        <pt x="740" y="1398" on="0"/>
        <pt x="686" y="1398" on="1"/>
        <pt x="634" y="1398" on="0"/>
        <pt x="588" y="1472" on="0"/>
        <pt x="588" y="1520" on="1"/>
        <pt x="588" y="1576" on="0"/>
        <pt x="640" y="1644" on="0"/>
        <pt x="686" y="1647" on="1"/>
        <pt x="734" y="1647" on="0"/>
        <pt x="788" y="1576" on="0"/>
        <pt x="788" y="1520" on="1"/>
      </contour>
      <contour>
        <pt x="793" y="643" on="1"/>
        <pt x="797" y="633" on="0"/>
        <pt x="797" y="623" on="1"/>
        <pt x="797" y="606" on="0"/>
        <pt x="768" y="606" on="1"/>
        <pt x="481" y="606" on="1"/>
        <pt x="455" y="609" on="0"/>
        <pt x="455" y="625" on="1"/>
        <pt x="455" y="631" on="0"/>
        <pt x="459" y="641" on="1"/>
        <pt x="616" y="1067" on="1"/>
        <pt x="625" y="1083" on="0"/>
        <pt x="645" y="1083" on="0"/>
        <pt x="649" y="1067" on="1"/>
        <pt x="793" y="643" on="1"/>
      </contour>
    </TTGlyph>
    <TTGlyph name="Atilde" xMin="-41" yMin="-6" xMax="1413" yMax="1764">
      <component glyphName="A" x="0" y="0" flags="0x0"/>
      <component glyphName="tildecomb" x="1184" y="507" flags="0x4"/>
    </TTGlyph>
    <TTGlyph name="B" xMin="52" yMin="-6" xMax="1180" yMax="1358">
      <contour>
        <pt x="76" y="-6" on="1"/>
        <pt x="291" y="0" on="0"/>
        <pt x="430" y="0" on="0"/>
        <pt x="598" y="-6" on="0"/>
        <pt x="643" y="-6" on="1"/>
        <pt x="952" y="-6" on="0"/>
        <pt x="1180" y="219" on="0"/>
        <pt x="1180" y="371" on="1"/>
        <pt x="1180" y="487" on="0"/>
        <pt x="1022" y="680" on="0"/>
        <pt x="905" y="719" on="1"/>
        <pt x="885" y="727" on="0"/>
        <pt x="885" y="742" on="0"/>
        <pt x="903" y="752" on="1"/>
        <pt x="981" y="788" on="0"/>
        <pt x="1083" y="932" on="0"/>
        <pt x="1083" y="1018" on="1"/>
        <pt x="1083" y="1174" on="0"/>
        <pt x="856" y="1358" on="0"/>
        <pt x="639" y="1358" on="1"/>
        <pt x="578" y="1358" on="0"/>
        <pt x="399" y="1352" on="0"/>
        <pt x="209" y="1352" on="0"/>
        <pt x="66" y="1358" on="1"/>
        <pt x="52" y="1358" on="0"/>
        <pt x="52" y="1266" on="0"/>
        <pt x="66" y="1266" on="1"/>
        <pt x="238" y="1264" on="0"/>
        <pt x="238" y="1155" on="1"/>
        <pt x="238" y="203" on="1"/>
        <pt x="238" y="160" on="0"/>
        <pt x="160" y="86" on="0"/>
        <pt x="76" y="86" on="1"/>
        <pt x="62" y="86" on="0"/>
        <pt x="62" y="-6" on="0"/>
        <pt x="76" y="-6" on="1"/>
      </contour>
      <contour>
        <pt x="481" y="1262" on="1"/>
        <pt x="482" y="1280" on="0"/>
        <pt x="500" y="1280" on="1"/>
        <pt x="668" y="1280" on="0"/>
        <pt x="840" y="1143" on="0"/>
        <pt x="840" y="1014" on="1"/>
        <pt x="840" y="903" on="0"/>
        <pt x="698" y="768" on="0"/>
        <pt x="553" y="768" on="1"/>
        <pt x="516" y="768" on="0"/>
        <pt x="498" y="772" on="1"/>
        <pt x="481" y="777" on="0"/>
        <pt x="481" y="797" on="1"/>
      </contour>
      <contour>
        <pt x="481" y="639" on="1"/>
        <pt x="481" y="672" on="0"/>
        <pt x="506" y="674" on="1"/>
        <pt x="723" y="672" on="0"/>
        <pt x="909" y="510" on="0"/>
        <pt x="909" y="371" on="1"/>
        <pt x="909" y="86" on="0"/>
        <pt x="631" y="76" on="1"/>
        <pt x="481" y="76" on="0"/>
        <pt x="481" y="250" on="1"/>
      </contour>
    </TTGlyph>
    <TTGlyph name="C" xMin="55" yMin="-27" xMax="1321" yMax="1384">
      <contour>
        <pt x="55" y="647" on="1"/>
        <pt x="55" y="352" on="0"/>
        <pt x="477" y="-27" on="0"/>
        <pt x="770" y="-27" on="1"/>
        <pt x="974" y="-27" on="0"/>
        <pt x="1128" y="16" on="1"/>
        <pt x="1170" y="31" on="0"/>
        <pt x="1217" y="37" on="1"/>
        <pt x="1241" y="72" on="0"/>
        <pt x="1317" y="265" on="0"/>
        <pt x="1321" y="322" on="1"/>
        <pt x="1321" y="342" on="0"/>
        <pt x="1231" y="362" on="0"/>
        <pt x="1225" y="344" on="1"/>
        <pt x="1126" y="68" on="0"/>
        <pt x="784" y="68" on="1"/>
        <pt x="608" y="68" on="0"/>
        <pt x="328" y="408" on="0"/>
        <pt x="328" y="705" on="1"/>
        <pt x="328" y="961" on="0"/>
        <pt x="581" y="1296" on="0"/>
        <pt x="788" y="1296" on="1"/>
        <pt x="897" y="1296" on="0"/>
        <pt x="1065" y="1239" on="0"/>
        <pt x="1176" y="1106" on="0"/>
        <pt x="1186" y="995" on="1"/>
        <pt x="1188" y="979" on="0"/>
        <pt x="1280" y="986" on="0"/>
        <pt x="1280" y="1004" on="1"/>
        <pt x="1272" y="1239" on="0"/>
        <pt x="1239" y="1329" on="1"/>
        <pt x="1188" y="1331" on="0"/>
        <pt x="1133" y="1341" on="1"/>
        <pt x="924" y="1384" on="0"/>
        <pt x="795" y="1384" on="1"/>
        <pt x="465" y="1384" on="0"/>
        <pt x="55" y="960" on="0"/>
        <pt x="55" y="647" on="1"/>
      </contour>
    </TTGlyph>
    <TTGlyph name="Cacute" xMin="55" yMin="-27" xMax="1321" yMax="1784">
      <component glyphName="C" x="0" y="0" flags="0x0"/>
      <component glyphName="acutecomb.case" x="1378" y="0" flags="0x0"/>
    </TTGlyph>
    <TTGlyph name="Ccaron" xMin="55" yMin="-27" xMax="1321" yMax="1798">
      <component glyphName="C" x="0" y="0" flags="0x0"/>
      <component glyphName="uni030C.case" x="1427" y="0" flags="0x0"/>
    </TTGlyph>
    <TTGlyph name="Ccedilla" xMin="55" yMin="-526" xMax="1321" yMax="1384">
      <contour>
        <pt x="946" y="-336" on="1"/>
        <pt x="946" y="-227" on="0"/>
        <pt x="823" y="-162" on="1"/>
        <pt x="795" y="-145" on="0"/>
        <pt x="795" y="-137" on="1"/>
        <pt x="795" y="-133" on="0"/>
        <pt x="805" y="-119" on="1"/>
        <pt x="872" y="-25" on="1"/>
        <pt x="1013" y="-17" on="0"/>
        <pt x="1128" y="16" on="1"/>
        <pt x="1170" y="31" on="0"/>
        <pt x="1217" y="37" on="1"/>
        <pt x="1241" y="72" on="0"/>
        <pt x="1317" y="265" on="0"/>
        <pt x="1321" y="322" on="1"/>
        <pt x="1321" y="342" on="0"/>
        <pt x="1231" y="362" on="0"/>
        <pt x="1225" y="344" on="1"/>
        <pt x="1126" y="68" on="0"/>
        <pt x="784" y="68" on="1"/>
        <pt x="608" y="68" on="0"/>
        <pt x="328" y="408" on="0"/>
        <pt x="328" y="705" on="1"/>
        <pt x="328" y="961" on="0"/>
        <pt x="581" y="1296" on="0"/>
        <pt x="788" y="1296" on="1"/>
        <pt x="897" y="1296" on="0"/>
        <pt x="1065" y="1239" on="0"/>
        <pt x="1176" y="1106" on="0"/>
        <pt x="1186" y="995" on="1"/>
        <pt x="1188" y="979" on="0"/>
        <pt x="1280" y="986" on="0"/>
        <pt x="1280" y="1004" on="1"/>
        <pt x="1272" y="1239" on="0"/>
        <pt x="1239" y="1329" on="1"/>
        <pt x="1188" y="1331" on="0"/>
        <pt x="1133" y="1341" on="1"/>
        <pt x="924" y="1384" on="0"/>
        <pt x="795" y="1384" on="1"/>
        <pt x="465" y="1384" on="0"/>
        <pt x="55" y="960" on="0"/>
        <pt x="55" y="647" on="1"/>
        <pt x="55" y="354" on="0"/>
        <pt x="475" y="-25" on="0"/>
        <pt x="764" y="-27" on="1"/>
        <pt x="633" y="-221" on="1"/>
        <pt x="627" y="-229" on="0"/>
        <pt x="627" y="-233" on="1"/>
        <pt x="627" y="-244" on="0"/>
        <pt x="645" y="-252" on="1"/>
        <pt x="788" y="-315" on="0"/>
        <pt x="788" y="-393" on="1"/>
        <pt x="788" y="-444" on="0"/>
        <pt x="735" y="-444" on="1"/>
        <pt x="713" y="-444" on="0"/>
        <pt x="627" y="-369" on="0"/>
        <pt x="596" y="-369" on="1"/>
        <pt x="577" y="-369" on="0"/>
        <pt x="565" y="-375" on="1"/>
        <pt x="530" y="-393" on="0"/>
        <pt x="530" y="-436" on="1"/>
        <pt x="531" y="-453" on="0"/>
        <pt x="537" y="-465" on="1"/>
        <pt x="561" y="-526" on="0"/>
        <pt x="686" y="-526" on="1"/>
        <pt x="784" y="-524" on="0"/>
        <pt x="946" y="-422" on="0"/>
        <pt x="946" y="-336" on="1"/>
      </contour>
    </TTGlyph>
    <TTGlyph name="Ccircumflex" xMin="55" yMin="-27" xMax="1321" yMax="1799">
      <component glyphName="C" x="0" y="0" flags="0x0"/>
      <component glyphName="uni0302.case" x="1427" y="0" flags="0x0"/>
    </TTGlyph>
    <TTGlyph name="Cdotaccent" xMin="55" yMin="-27" xMax="1321" yMax="1834">
      <component glyphName="C" x="0" y="0" flags="0x0"/>
      <component glyphName="uni0307" x="1252" y="507" flags="0x4"/>
    </TTGlyph>
    <TTGlyph name="D" xMin="52" yMin="-6" xMax="1487" yMax="1358">
      <contour>
        <pt x="238" y="203" on="1"/>
        <pt x="238" y="86" on="0"/>
        <pt x="76" y="86" on="1"/>
        <pt x="61" y="86" on="0"/>
        <pt x="61" y="-6" on="0"/>
        <pt x="76" y="-6" on="1"/>
        <pt x="207" y="0" on="0"/>
        <pt x="414" y="0" on="0"/>
        <pt x="703" y="-6" on="0"/>
        <pt x="766" y="-6" on="1"/>
        <pt x="1090" y="-6" on="0"/>
        <pt x="1487" y="387" on="0"/>
        <pt x="1487" y="725" on="1"/>
        <pt x="1487" y="1020" on="0"/>
        <pt x="1049" y="1358" on="0"/>
        <pt x="719" y="1358" on="1"/>
        <pt x="645" y="1358" on="0"/>
        <pt x="399" y="1352" on="0"/>
        <pt x="209" y="1352" on="0"/>
        <pt x="66" y="1358" on="1"/>
        <pt x="52" y="1358" on="0"/>
        <pt x="52" y="1266" on="0"/>
        <pt x="66" y="1266" on="1"/>
        <pt x="238" y="1264" on="0"/>
        <pt x="238" y="1155" on="1"/>
        <pt x="238" y="203" on="1"/>
      </contour>
      <contour>
        <pt x="481" y="1200" on="1"/>
        <pt x="481" y="1280" on="0"/>
        <pt x="557" y="1280" on="1"/>
        <pt x="637" y="1280" on="1"/>
        <pt x="909" y="1280" on="0"/>
        <pt x="1214" y="930" on="0"/>
        <pt x="1214" y="717" on="1"/>
        <pt x="1214" y="412" on="0"/>
        <pt x="915" y="72" on="0"/>
        <pt x="698" y="72" on="1"/>
        <pt x="606" y="72" on="0"/>
        <pt x="567" y="86" on="1"/>
        <pt x="481" y="122" on="0"/>
        <pt x="481" y="272" on="1"/>
      </contour>
    </TTGlyph>
    <TTGlyph name="Dcaron" xMin="52" yMin="-6" xMax="1487" yMax="1798">
      <component glyphName="D" x="0" y="0" flags="0x0"/>
      <component glyphName="uni030C.case" x="1386" y="0" flags="0x0"/>
    </TTGlyph>
    <TTGlyph name="Dcroat" xMin="14" yMin="-9" xMax="1487" yMax="1358">
      <component glyphName="Eth" x="0" y="0" flags="0x0"/>
    </TTGlyph>
    <TTGlyph name="E" xMin="52" yMin="-6" xMax="1186" yMax="1358">
      <contour>
        <pt x="238" y="203" on="1"/>
        <pt x="238" y="86" on="0"/>
        <pt x="76" y="86" on="1"/>
        <pt x="61" y="86" on="0"/>
        <pt x="61" y="-6" on="0"/>
        <pt x="76" y="-6" on="1"/>
        <pt x="211" y="0" on="0"/>
        <pt x="535" y="0" on="0"/>
        <pt x="881" y="-6" on="0"/>
        <pt x="1067" y="-6" on="1"/>
        <pt x="1186" y="-6" on="0"/>
        <pt x="1186" y="57" on="1"/>
        <pt x="1186" y="344" on="1"/>
        <pt x="1186" y="360" on="0"/>
        <pt x="1083" y="360" on="0"/>
        <pt x="1083" y="344" on="1"/>
        <pt x="1083" y="276" on="0"/>
        <pt x="1065" y="227" on="1"/>
        <pt x="1018" y="92" on="0"/>
        <pt x="860" y="90" on="1"/>
        <pt x="637" y="86" on="1"/>
        <pt x="594" y="86" on="0"/>
        <pt x="555" y="106" on="1"/>
        <pt x="481" y="143" on="0"/>
        <pt x="481" y="221" on="1"/>
        <pt x="481" y="563" on="1"/>
        <pt x="481" y="594" on="0"/>
        <pt x="510" y="594" on="1"/>
        <pt x="645" y="594" on="1"/>
        <pt x="768" y="594" on="0"/>
        <pt x="768" y="506" on="1"/>
        <pt x="768" y="420" on="1"/>
        <pt x="768" y="403" on="0"/>
        <pt x="872" y="406" on="0"/>
        <pt x="872" y="420" on="1"/>
        <pt x="866" y="481" on="0"/>
        <pt x="866" y="809" on="0"/>
        <pt x="872" y="877" on="1"/>
        <pt x="872" y="891" on="0"/>
        <pt x="768" y="891" on="0"/>
        <pt x="768" y="877" on="1"/>
        <pt x="768" y="778" on="1"/>
        <pt x="768" y="686" on="0"/>
        <pt x="645" y="686" on="1"/>
        <pt x="510" y="686" on="1"/>
        <pt x="481" y="688" on="0"/>
        <pt x="481" y="717" on="1"/>
        <pt x="481" y="1225" on="1"/>
        <pt x="481" y="1266" on="0"/>
        <pt x="508" y="1266" on="1"/>
        <pt x="805" y="1255" on="1"/>
        <pt x="869" y="1253" on="0"/>
        <pt x="930" y="1206" on="1"/>
        <pt x="1028" y="1130" on="0"/>
        <pt x="1028" y="1001" on="1"/>
        <pt x="1028" y="984" on="0"/>
        <pt x="1128" y="984" on="0"/>
        <pt x="1128" y="1001" on="1"/>
        <pt x="1128" y="1307" on="1"/>
        <pt x="1128" y="1358" on="0"/>
        <pt x="1071" y="1358" on="1"/>
        <pt x="950" y="1358" on="0"/>
        <pt x="521" y="1352" on="0"/>
        <pt x="209" y="1352" on="0"/>
        <pt x="66" y="1358" on="1"/>
        <pt x="52" y="1358" on="0"/>
        <pt x="52" y="1266" on="0"/>
        <pt x="66" y="1266" on="1"/>
        <pt x="238" y="1264" on="0"/>
        <pt x="238" y="1155" on="1"/>
        <pt x="238" y="203" on="1"/>
      </contour>
    </TTGlyph>
    <TTGlyph name="Eacute" xMin="52" yMin="-6" xMax="1186" yMax="1784">
      <component glyphName="E" x="0" y="0" flags="0x0"/>
      <component glyphName="acutecomb.case" x="1229" y="0" flags="0x0"/>
    </TTGlyph>
    <TTGlyph name="Ebreve" xMin="52" yMin="-6" xMax="1186" yMax="1842">
      <component glyphName="E" x="0" y="0" flags="0x0"/>
      <component glyphName="uni0306" x="1086" y="507" flags="0x4"/>
    </TTGlyph>
    <TTGlyph name="Ecaron" xMin="52" yMin="-6" xMax="1186" yMax="1798">
      <component glyphName="E" x="0" y="0" flags="0x0"/>
      <component glyphName="uni030C.case" x="1278" y="0" flags="0x0"/>
    </TTGlyph>
    <TTGlyph name="Ecircumflex" xMin="52" yMin="-6" xMax="1186" yMax="1799">
      <component glyphName="E" x="0" y="0" flags="0x0"/>
      <component glyphName="uni0302.case" x="1278" y="0" flags="0x0"/>
    </TTGlyph>
    <TTGlyph name="Edieresis" xMin="52" yMin="-6" xMax="1186" yMax="1753">
      <component glyphName="E" x="0" y="0" flags="0x0"/>
      <component glyphName="uni0308.case" x="1246" y="0" flags="0x0"/>
    </TTGlyph>
    <TTGlyph name="Edotaccent" xMin="52" yMin="-6" xMax="1186" yMax="1834">
      <component glyphName="E" x="0" y="0" flags="0x0"/>
      <component glyphName="uni0307" x="1103" y="507" flags="0x4"/>
    </TTGlyph>
    <TTGlyph name="Egrave" xMin="52" yMin="-6" xMax="1186" yMax="1774">
      <component glyphName="E" x="0" y="0" flags="0x0"/>
      <component glyphName="gravecomb.case" x="1089" y="0" flags="0x0"/>
    </TTGlyph>
    <TTGlyph name="Emacron" xMin="52" yMin="-6" xMax="1186" yMax="1661">
      <component glyphName="E" x="0" y="0" flags="0x0"/>
      <component glyphName="uni0304.case" x="1267" y="0" flags="0x0"/>
    </TTGlyph>
    <TTGlyph name="Eng" xMin="39" yMin="-518" xMax="1438" yMax="1364">
      <contour>
        <pt x="1288" y="1151" on="1"/>
        <pt x="1288" y="1270" on="0"/>
        <pt x="1423" y="1270" on="1"/>
        <pt x="1438" y="1270" on="0"/>
        <pt x="1437" y="1364" on="0"/>
        <pt x="1423" y="1364" on="1"/>
        <pt x="1331" y="1358" on="0"/>
        <pt x="1231" y="1358" on="1"/>
        <pt x="1134" y="1360" on="0"/>
        <pt x="1032" y="1364" on="1"/>
        <pt x="1018" y="1364" on="0"/>
        <pt x="1018" y="1270" on="0"/>
        <pt x="1032" y="1270" on="1"/>
        <pt x="1186" y="1270" on="0"/>
        <pt x="1186" y="1151" on="1"/>
        <pt x="1186" y="449" on="1"/>
        <pt x="1186" y="418" on="0"/>
        <pt x="1161" y="418" on="1"/>
        <pt x="1147" y="418" on="0"/>
        <pt x="1137" y="432" on="1"/>
        <pt x="426" y="1298" on="1"/>
        <pt x="385" y="1348" on="0"/>
        <pt x="326" y="1356" on="1"/>
        <pt x="311" y="1358" on="0"/>
        <pt x="227" y="1358" on="1"/>
        <pt x="100" y="1360" on="0"/>
        <pt x="51" y="1364" on="1"/>
        <pt x="39" y="1364" on="0"/>
        <pt x="39" y="1270" on="0"/>
        <pt x="51" y="1270" on="1"/>
        <pt x="223" y="1270" on="0"/>
        <pt x="223" y="1155" on="1"/>
        <pt x="223" y="203" on="1"/>
        <pt x="226" y="86" on="0"/>
        <pt x="66" y="86" on="1"/>
        <pt x="51" y="86" on="0"/>
        <pt x="52" y="-8" on="0"/>
        <pt x="66" y="-6" on="1"/>
        <pt x="177" y="0" on="0"/>
        <pt x="279" y="0" on="1"/>
        <pt x="375" y="0" on="0"/>
        <pt x="479" y="-6" on="1"/>
        <pt x="494" y="-8" on="0"/>
        <pt x="493" y="86" on="0"/>
        <pt x="479" y="86" on="1"/>
        <pt x="328" y="86" on="0"/>
        <pt x="328" y="203" on="1"/>
        <pt x="328" y="1008" on="1"/>
        <pt x="330" y="1030" on="0"/>
        <pt x="342" y="1030" on="1"/>
        <pt x="348" y="1030" on="0"/>
        <pt x="360" y="1014" on="1"/>
        <pt x="1178" y="43" on="1"/>
        <pt x="1178" y="-135" on="1"/>
        <pt x="1178" y="-229" on="0"/>
        <pt x="1073" y="-385" on="0"/>
        <pt x="1034" y="-385" on="1"/>
        <pt x="1020" y="-385" on="0"/>
        <pt x="946" y="-313" on="0"/>
        <pt x="893" y="-313" on="1"/>
        <pt x="854" y="-313" on="0"/>
        <pt x="813" y="-342" on="0"/>
        <pt x="795" y="-376" on="0"/>
        <pt x="795" y="-403" on="1"/>
        <pt x="795" y="-451" on="0"/>
        <pt x="867" y="-518" on="0"/>
        <pt x="926" y="-518" on="1"/>
        <pt x="1038" y="-518" on="0"/>
        <pt x="1169" y="-420" on="0"/>
        <pt x="1286" y="-228" on="0"/>
        <pt x="1286" y="-111" on="1"/>
        <pt x="1288" y="63" on="1"/>
        <pt x="1288" y="76" on="1"/>
      </contour>
    </TTGlyph>
    <TTGlyph name="Eogonek" xMin="51" yMin="-488" xMax="1186" yMax="1358">
      <contour>
        <pt x="238" y="203" on="1"/>
        <pt x="238" y="86" on="0"/>
        <pt x="76" y="86" on="1"/>
        <pt x="59" y="86" on="0"/>
        <pt x="62" y="-6" on="0"/>
        <pt x="76" y="-6" on="1"/>
        <pt x="211" y="0" on="0"/>
        <pt x="373" y="0" on="1"/>
        <pt x="535" y="0" on="0"/>
        <pt x="709" y="-4" on="1"/>
        <pt x="795" y="-6" on="0"/>
        <pt x="883" y="-6" on="1"/>
        <pt x="707" y="-164" on="0"/>
        <pt x="707" y="-303" on="1"/>
        <pt x="706" y="-487" on="0"/>
        <pt x="911" y="-487" on="1"/>
        <pt x="1052" y="-488" on="0"/>
        <pt x="1128" y="-375" on="1"/>
        <pt x="1130" y="-342" on="0"/>
        <pt x="1110" y="-336" on="1"/>
        <pt x="1067" y="-367" on="0"/>
        <pt x="1006" y="-367" on="1"/>
        <pt x="883" y="-367" on="0"/>
        <pt x="883" y="-246" on="1"/>
        <pt x="882" y="-143" on="0"/>
        <pt x="1001" y="-6" on="1"/>
        <pt x="1067" y="-6" on="1"/>
        <pt x="1186" y="-6" on="0"/>
        <pt x="1186" y="57" on="1"/>
        <pt x="1186" y="344" on="1"/>
        <pt x="1186" y="360" on="0"/>
        <pt x="1083" y="360" on="0"/>
        <pt x="1083" y="344" on="1"/>
        <pt x="1083" y="276" on="0"/>
        <pt x="1065" y="227" on="1"/>
        <pt x="1018" y="92" on="0"/>
        <pt x="860" y="90" on="1"/>
        <pt x="637" y="86" on="1"/>
        <pt x="594" y="86" on="0"/>
        <pt x="555" y="106" on="1"/>
        <pt x="481" y="143" on="0"/>
        <pt x="481" y="221" on="1"/>
        <pt x="481" y="563" on="1"/>
        <pt x="481" y="594" on="0"/>
        <pt x="510" y="594" on="1"/>
        <pt x="645" y="594" on="1"/>
        <pt x="768" y="594" on="0"/>
        <pt x="768" y="506" on="1"/>
        <pt x="768" y="420" on="1"/>
        <pt x="768" y="403" on="0"/>
        <pt x="872" y="406" on="0"/>
        <pt x="872" y="420" on="1"/>
        <pt x="866" y="481" on="0"/>
        <pt x="866" y="809" on="0"/>
        <pt x="872" y="877" on="1"/>
        <pt x="872" y="891" on="0"/>
        <pt x="768" y="891" on="0"/>
        <pt x="768" y="877" on="1"/>
        <pt x="768" y="778" on="1"/>
        <pt x="768" y="686" on="0"/>
        <pt x="645" y="686" on="1"/>
        <pt x="510" y="686" on="1"/>
        <pt x="481" y="688" on="0"/>
        <pt x="481" y="717" on="1"/>
        <pt x="481" y="1225" on="1"/>
        <pt x="481" y="1266" on="0"/>
        <pt x="508" y="1266" on="1"/>
        <pt x="805" y="1255" on="1"/>
        <pt x="869" y="1253" on="0"/>
        <pt x="930" y="1206" on="1"/>
        <pt x="1028" y="1130" on="0"/>
        <pt x="1028" y="1001" on="1"/>
        <pt x="1028" y="983" on="0"/>
        <pt x="1128" y="985" on="0"/>
        <pt x="1128" y="1001" on="1"/>
        <pt x="1128" y="1307" on="1"/>
        <pt x="1128" y="1358" on="0"/>
        <pt x="1071" y="1358" on="1"/>
        <pt x="950" y="1358" on="0"/>
        <pt x="521" y="1352" on="0"/>
        <pt x="365" y="1352" on="1"/>
        <pt x="209" y="1352" on="0"/>
        <pt x="66" y="1358" on="1"/>
        <pt x="51" y="1358" on="0"/>
        <pt x="52" y="1266" on="0"/>
        <pt x="66" y="1266" on="1"/>
        <pt x="238" y="1264" on="0"/>
        <pt x="238" y="1155" on="1"/>
        <pt x="238" y="203" on="1"/>
      </contour>
    </TTGlyph>
    <TTGlyph name="Eth" xMin="14" yMin="-9" xMax="1487" yMax="1358">
      <contour>
        <pt x="1487" y="725" on="1"/>
        <pt x="1487" y="1044" on="0"/>
        <pt x="1229" y="1219" on="1"/>
        <pt x="1022" y="1358" on="0"/>
        <pt x="719" y="1358" on="1"/>
        <pt x="614" y="1358" on="0"/>
        <pt x="413" y="1352" on="0"/>
        <pt x="352" y="1352" on="1"/>
        <pt x="209" y="1352" on="0"/>
        <pt x="66" y="1358" on="1"/>
        <pt x="51" y="1358" on="0"/>
        <pt x="52" y="1266" on="0"/>
        <pt x="66" y="1266" on="1"/>
        <pt x="238" y="1264" on="0"/>
        <pt x="238" y="1155" on="1"/>
        <pt x="238" y="748" on="1"/>
        <pt x="238" y="719" on="0"/>
        <pt x="209" y="719" on="1"/>
        <pt x="29" y="719" on="1"/>
        <pt x="14" y="719" on="0"/>
        <pt x="15" y="625" on="0"/>
        <pt x="29" y="625" on="1"/>
        <pt x="209" y="625" on="1"/>
        <pt x="238" y="625" on="0"/>
        <pt x="238" y="594" on="1"/>
        <pt x="238" y="203" on="1"/>
        <pt x="238" y="86" on="0"/>
        <pt x="76" y="86" on="1"/>
        <pt x="59" y="86" on="0"/>
        <pt x="62" y="-6" on="0"/>
        <pt x="76" y="-6" on="1"/>
        <pt x="174" y="0" on="0"/>
        <pt x="340" y="0" on="1"/>
        <pt x="430" y="0" on="0"/>
        <pt x="657" y="-6" on="0"/>
        <pt x="766" y="-6" on="1"/>
        <pt x="1087" y="-9" on="0"/>
        <pt x="1286" y="188" on="1"/>
        <pt x="1487" y="387" on="0"/>
        <pt x="1487" y="725" on="1"/>
      </contour>
      <contour>
        <pt x="1214" y="717" on="1"/>
        <pt x="1214" y="404" on="0"/>
        <pt x="1051" y="223" on="1"/>
        <pt x="911" y="72" on="0"/>
        <pt x="698" y="72" on="1"/>
        <pt x="606" y="70" on="0"/>
        <pt x="567" y="86" on="1"/>
        <pt x="481" y="122" on="0"/>
        <pt x="481" y="272" on="1"/>
        <pt x="481" y="594" on="1"/>
        <pt x="481" y="625" on="0"/>
        <pt x="508" y="625" on="1"/>
        <pt x="737" y="625" on="1"/>
        <pt x="752" y="625" on="0"/>
        <pt x="749" y="719" on="0"/>
        <pt x="737" y="719" on="1"/>
        <pt x="508" y="719" on="1"/>
        <pt x="481" y="719" on="0"/>
        <pt x="481" y="748" on="1"/>
        <pt x="481" y="1200" on="1"/>
        <pt x="481" y="1280" on="0"/>
        <pt x="557" y="1280" on="1"/>
        <pt x="637" y="1280" on="1"/>
        <pt x="952" y="1280" on="0"/>
        <pt x="1116" y="1040" on="1"/>
        <pt x="1214" y="893" on="0"/>
        <pt x="1214" y="717" on="1"/>
      </contour>
    </TTGlyph>
    <TTGlyph name="Euro" xMin="-43" yMin="-27" xMax="1151" yMax="1384">
      <contour>
        <pt x="1143" y="168" on="1"/>
        <pt x="1151" y="174" on="0"/>
        <pt x="1151" y="193" on="0"/>
        <pt x="1124" y="242" on="0"/>
        <pt x="1114" y="242" on="1"/>
        <pt x="1112" y="242" on="0"/>
        <pt x="1024" y="182" on="0"/>
        <pt x="848" y="106" on="0"/>
        <pt x="727" y="106" on="1"/>
        <pt x="582" y="106" on="0"/>
        <pt x="414" y="325" on="0"/>
        <pt x="365" y="485" on="1"/>
        <pt x="905" y="485" on="1"/>
        <pt x="928" y="485" on="0"/>
        <pt x="927" y="616" on="0"/>
        <pt x="907" y="616" on="1"/>
        <pt x="336" y="616" on="1"/>
        <pt x="328" y="666" on="0"/>
        <pt x="328" y="713" on="1"/>
        <pt x="328" y="733" on="1"/>
        <pt x="905" y="733" on="1"/>
        <pt x="928" y="733" on="0"/>
        <pt x="927" y="864" on="0"/>
        <pt x="907" y="864" on="1"/>
        <pt x="340" y="864" on="1"/>
        <pt x="367" y="1034" on="0"/>
        <pt x="557" y="1296" on="0"/>
        <pt x="690" y="1296" on="1"/>
        <pt x="752" y="1296" on="0"/>
        <pt x="860" y="1247" on="0"/>
        <pt x="903" y="1196" on="1"/>
        <pt x="961" y="1128" on="1"/>
        <pt x="1000" y="1081" on="0"/>
        <pt x="1053" y="1081" on="1"/>
        <pt x="1090" y="1081" on="0"/>
        <pt x="1151" y="1126" on="0"/>
        <pt x="1151" y="1157" on="1"/>
        <pt x="1151" y="1196" on="0"/>
        <pt x="1059" y="1300" on="0"/>
        <pt x="831" y="1384" on="0"/>
        <pt x="696" y="1384" on="1"/>
        <pt x="461" y="1384" on="0"/>
        <pt x="129" y="1073" on="0"/>
        <pt x="78" y="864" on="1"/>
        <pt x="-25" y="864" on="1"/>
        <pt x="-43" y="864" on="0"/>
        <pt x="-43" y="733" on="0"/>
        <pt x="-25" y="733" on="1"/>
        <pt x="57" y="733" on="1"/>
        <pt x="55" y="703" on="0"/>
        <pt x="55" y="668" on="1"/>
        <pt x="55" y="616" on="1"/>
        <pt x="-25" y="616" on="1"/>
        <pt x="-43" y="616" on="0"/>
        <pt x="-43" y="485" on="0"/>
        <pt x="-25" y="485" on="1"/>
        <pt x="72" y="485" on="1"/>
        <pt x="117" y="254" on="0"/>
        <pt x="465" y="-27" on="0"/>
        <pt x="692" y="-27" on="1"/>
        <pt x="805" y="-27" on="0"/>
        <pt x="1006" y="55" on="0"/>
        <pt x="1143" y="168" on="1"/>
      </contour>
    </TTGlyph>
    <TTGlyph name="F" xMin="52" yMin="-6" xMax="1128" yMax="1358">
      <contour>
        <pt x="238" y="203" on="1"/>
        <pt x="238" y="86" on="0"/>
        <pt x="76" y="86" on="1"/>
        <pt x="61" y="86" on="0"/>
        <pt x="61" y="-6" on="0"/>
        <pt x="76" y="-6" on="1"/>
        <pt x="180" y="0" on="0"/>
        <pt x="541" y="0" on="0"/>
        <pt x="635" y="-6" on="1"/>
        <pt x="648" y="-6" on="0"/>
        <pt x="648" y="86" on="0"/>
        <pt x="635" y="86" on="1"/>
        <pt x="481" y="86" on="0"/>
        <pt x="481" y="203" on="1"/>
        <pt x="481" y="602" on="1"/>
        <pt x="481" y="633" on="0"/>
        <pt x="510" y="633" on="1"/>
        <pt x="645" y="633" on="1"/>
        <pt x="737" y="631" on="0"/>
        <pt x="737" y="543" on="1"/>
        <pt x="737" y="399" on="1"/>
        <pt x="737" y="386" on="0"/>
        <pt x="842" y="386" on="0"/>
        <pt x="842" y="399" on="1"/>
        <pt x="836" y="469" on="0"/>
        <pt x="836" y="884" on="0"/>
        <pt x="842" y="952" on="1"/>
        <pt x="842" y="967" on="0"/>
        <pt x="737" y="967" on="0"/>
        <pt x="737" y="952" on="1"/>
        <pt x="737" y="815" on="1"/>
        <pt x="737" y="725" on="0"/>
        <pt x="645" y="725" on="1"/>
        <pt x="510" y="725" on="1"/>
        <pt x="481" y="725" on="0"/>
        <pt x="481" y="756" on="1"/>
        <pt x="481" y="1225" on="1"/>
        <pt x="481" y="1266" on="0"/>
        <pt x="508" y="1266" on="1"/>
        <pt x="590" y="1265" on="0"/>
        <pt x="805" y="1255" on="1"/>
        <pt x="885" y="1251" on="0"/>
        <pt x="1028" y="1114" on="0"/>
        <pt x="1028" y="1001" on="1"/>
        <pt x="1028" y="984" on="0"/>
        <pt x="1128" y="984" on="0"/>
        <pt x="1128" y="1001" on="1"/>
        <pt x="1128" y="1307" on="1"/>
        <pt x="1128" y="1358" on="0"/>
        <pt x="1069" y="1358" on="1"/>
        <pt x="942" y="1358" on="0"/>
        <pt x="497" y="1352" on="0"/>
        <pt x="209" y="1352" on="0"/>
        <pt x="66" y="1358" on="1"/>
        <pt x="52" y="1358" on="0"/>
        <pt x="52" y="1266" on="0"/>
        <pt x="66" y="1266" on="1"/>
        <pt x="238" y="1264" on="0"/>
        <pt x="238" y="1155" on="1"/>
        <pt x="238" y="203" on="1"/>
      </contour>
    </TTGlyph>
    <TTGlyph name="G" xMin="55" yMin="-27" xMax="1404" yMax="1384">
      <contour>
        <pt x="846" y="569" on="1"/>
        <pt x="832" y="569" on="0"/>
        <pt x="832" y="477" on="0"/>
        <pt x="846" y="477" on="1"/>
        <pt x="926" y="477" on="1"/>
        <pt x="1038" y="477" on="0"/>
        <pt x="1038" y="401" on="1"/>
        <pt x="1038" y="160" on="1"/>
        <pt x="1038" y="117" on="0"/>
        <pt x="895" y="68" on="0"/>
        <pt x="784" y="68" on="1"/>
        <pt x="629" y="68" on="0"/>
        <pt x="328" y="381" on="0"/>
        <pt x="328" y="705" on="1"/>
        <pt x="328" y="961" on="0"/>
        <pt x="581" y="1296" on="0"/>
        <pt x="788" y="1296" on="1"/>
        <pt x="895" y="1296" on="0"/>
        <pt x="975" y="1270" on="1"/>
        <pt x="1168" y="1204" on="0"/>
        <pt x="1186" y="995" on="1"/>
        <pt x="1190" y="979" on="0"/>
        <pt x="1280" y="986" on="0"/>
        <pt x="1280" y="1004" on="1"/>
        <pt x="1278" y="1055" on="1"/>
        <pt x="1268" y="1270" on="0"/>
        <pt x="1239" y="1329" on="1"/>
        <pt x="1182" y="1330" on="0"/>
        <pt x="1112" y="1348" on="1"/>
        <pt x="926" y="1384" on="0"/>
        <pt x="795" y="1384" on="1"/>
        <pt x="420" y="1384" on="0"/>
        <pt x="207" y="1110" on="1"/>
        <pt x="55" y="913" on="0"/>
        <pt x="55" y="647" on="1"/>
        <pt x="55" y="326" on="0"/>
        <pt x="307" y="127" on="1"/>
        <pt x="508" y="-27" on="0"/>
        <pt x="770" y="-27" on="1"/>
        <pt x="903" y="-27" on="0"/>
        <pt x="1276" y="35" on="0"/>
        <pt x="1325" y="35" on="1"/>
        <pt x="1339" y="35" on="0"/>
        <pt x="1339" y="115" on="0"/>
        <pt x="1325" y="115" on="1"/>
        <pt x="1282" y="115" on="0"/>
        <pt x="1282" y="160" on="1"/>
        <pt x="1282" y="401" on="1"/>
        <pt x="1282" y="477" on="0"/>
        <pt x="1391" y="477" on="1"/>
        <pt x="1404" y="477" on="0"/>
        <pt x="1404" y="569" on="0"/>
        <pt x="1391" y="569" on="1"/>
        <pt x="1331" y="563" on="0"/>
        <pt x="905" y="563" on="0"/>
        <pt x="846" y="569" on="1"/>
      </contour>
    </TTGlyph>
    <TTGlyph name="Gbreve" xMin="55" yMin="-27" xMax="1404" yMax="1842">
      <component glyphName="G" x="0" y="0" flags="0x0"/>
      <component glyphName="uni0306" x="1232" y="507" flags="0x4"/>
    </TTGlyph>
    <TTGlyph name="Gcaron" xMin="55" yMin="-27" xMax="1404" yMax="1798">
      <component glyphName="G" x="0" y="0" flags="0x0"/>
      <component glyphName="uni030C.case" x="1424" y="0" flags="0x0"/>
    </TTGlyph>
    <TTGlyph name="Gcircumflex" xMin="55" yMin="-27" xMax="1404" yMax="1799">
      <component glyphName="G" x="0" y="0" flags="0x0"/>
      <component glyphName="uni0302.case" x="1424" y="0" flags="0x0"/>
    </TTGlyph>
    <TTGlyph name="Gdotaccent" xMin="55" yMin="-27" xMax="1404" yMax="1834">
      <component glyphName="G" x="0" y="0" flags="0x0"/>
      <component glyphName="uni0307" x="1249" y="507" flags="0x4"/>
    </TTGlyph>
    <TTGlyph name="H" xMin="61" yMin="-6" xMax="1610" yMax="1364">
      <contour>
        <pt x="1432" y="1153" on="1"/>
        <pt x="1432" y="1270" on="0"/>
        <pt x="1595" y="1270" on="1"/>
        <pt x="1610" y="1270" on="0"/>
        <pt x="1610" y="1364" on="0"/>
        <pt x="1595" y="1364" on="1"/>
        <pt x="1549" y="1358" on="0"/>
        <pt x="1073" y="1358" on="0"/>
        <pt x="1028" y="1364" on="1"/>
        <pt x="1014" y="1364" on="0"/>
        <pt x="1014" y="1270" on="0"/>
        <pt x="1028" y="1270" on="1"/>
        <pt x="1188" y="1270" on="0"/>
        <pt x="1188" y="1153" on="1"/>
        <pt x="1188" y="782" on="1"/>
        <pt x="1188" y="748" on="0"/>
        <pt x="1153" y="748" on="1"/>
        <pt x="516" y="748" on="1"/>
        <pt x="481" y="748" on="0"/>
        <pt x="481" y="782" on="1"/>
        <pt x="481" y="1153" on="1"/>
        <pt x="481" y="1270" on="0"/>
        <pt x="643" y="1270" on="1"/>
        <pt x="658" y="1270" on="0"/>
        <pt x="658" y="1364" on="0"/>
        <pt x="643" y="1364" on="1"/>
        <pt x="596" y="1359" on="0"/>
        <pt x="123" y="1359" on="0"/>
        <pt x="76" y="1364" on="1"/>
        <pt x="62" y="1364" on="0"/>
        <pt x="62" y="1270" on="0"/>
        <pt x="76" y="1270" on="1"/>
        <pt x="238" y="1270" on="0"/>
        <pt x="238" y="1153" on="1"/>
        <pt x="238" y="203" on="1"/>
        <pt x="238" y="86" on="0"/>
        <pt x="76" y="86" on="1"/>
        <pt x="61" y="86" on="0"/>
        <pt x="61" y="-6" on="0"/>
        <pt x="76" y="-6" on="1"/>
        <pt x="200" y="0" on="0"/>
        <pt x="506" y="0" on="0"/>
        <pt x="639" y="-6" on="1"/>
        <pt x="653" y="-6" on="0"/>
        <pt x="653" y="86" on="0"/>
        <pt x="639" y="86" on="1"/>
        <pt x="481" y="86" on="0"/>
        <pt x="481" y="203" on="1"/>
        <pt x="481" y="618" on="1"/>
        <pt x="481" y="653" on="0"/>
        <pt x="516" y="653" on="1"/>
        <pt x="1153" y="653" on="1"/>
        <pt x="1188" y="653" on="0"/>
        <pt x="1188" y="618" on="1"/>
        <pt x="1188" y="203" on="1"/>
        <pt x="1188" y="86" on="0"/>
        <pt x="1026" y="86" on="1"/>
        <pt x="1012" y="86" on="0"/>
        <pt x="1012" y="-6" on="0"/>
        <pt x="1026" y="-6" on="1"/>
        <pt x="1159" y="0" on="0"/>
        <pt x="1464" y="0" on="0"/>
        <pt x="1591" y="-6" on="1"/>
        <pt x="1606" y="-6" on="0"/>
        <pt x="1606" y="86" on="0"/>
        <pt x="1591" y="86" on="1"/>
        <pt x="1432" y="86" on="0"/>
        <pt x="1432" y="203" on="1"/>
      </contour>
    </TTGlyph>
    <TTGlyph name="Hbar" xMin="59" yMin="-6" xMax="1610" yMax="1364">
      <contour>
        <pt x="1432" y="952" on="1"/>
        <pt x="1509" y="952" on="1"/>
        <pt x="1532" y="952" on="0"/>
        <pt x="1531" y="1053" on="0"/>
        <pt x="1511" y="1053" on="1"/>
        <pt x="1432" y="1053" on="1"/>
        <pt x="1432" y="1153" on="1"/>
        <pt x="1431" y="1270" on="0"/>
        <pt x="1595" y="1270" on="1"/>
        <pt x="1610" y="1270" on="0"/>
        <pt x="1609" y="1364" on="0"/>
        <pt x="1595" y="1364" on="1"/>
        <pt x="1549" y="1358" on="0"/>
        <pt x="1311" y="1358" on="1"/>
        <pt x="1071" y="1360" on="0"/>
        <pt x="1028" y="1364" on="1"/>
        <pt x="1014" y="1364" on="0"/>
        <pt x="1014" y="1270" on="0"/>
        <pt x="1028" y="1270" on="1"/>
        <pt x="1188" y="1270" on="0"/>
        <pt x="1188" y="1153" on="1"/>
        <pt x="1188" y="1053" on="1"/>
        <pt x="481" y="1053" on="1"/>
        <pt x="481" y="1153" on="1"/>
        <pt x="479" y="1270" on="0"/>
        <pt x="643" y="1270" on="1"/>
        <pt x="657" y="1270" on="0"/>
        <pt x="657" y="1364" on="0"/>
        <pt x="643" y="1364" on="1"/>
        <pt x="596" y="1358" on="0"/>
        <pt x="360" y="1358" on="1"/>
        <pt x="123" y="1360" on="0"/>
        <pt x="76" y="1364" on="1"/>
        <pt x="61" y="1364" on="0"/>
        <pt x="62" y="1270" on="0"/>
        <pt x="76" y="1270" on="1"/>
        <pt x="238" y="1270" on="0"/>
        <pt x="238" y="1153" on="1"/>
        <pt x="238" y="1053" on="1"/>
        <pt x="170" y="1053" on="1"/>
        <pt x="152" y="1053" on="0"/>
        <pt x="152" y="952" on="0"/>
        <pt x="170" y="952" on="1"/>
        <pt x="238" y="952" on="1"/>
        <pt x="238" y="203" on="1"/>
        <pt x="238" y="86" on="0"/>
        <pt x="76" y="86" on="1"/>
        <pt x="59" y="86" on="0"/>
        <pt x="62" y="-6" on="0"/>
        <pt x="76" y="-6" on="1"/>
        <pt x="200" y="0" on="0"/>
        <pt x="354" y="0" on="1"/>
        <pt x="506" y="0" on="0"/>
        <pt x="639" y="-6" on="1"/>
        <pt x="651" y="-6" on="0"/>
        <pt x="653" y="41" on="1"/>
        <pt x="653" y="86" on="0"/>
        <pt x="639" y="86" on="1"/>
        <pt x="479" y="86" on="0"/>
        <pt x="481" y="203" on="1"/>
        <pt x="481" y="618" on="1"/>
        <pt x="481" y="653" on="0"/>
        <pt x="516" y="653" on="1"/>
        <pt x="1153" y="653" on="1"/>
        <pt x="1188" y="653" on="0"/>
        <pt x="1188" y="618" on="1"/>
        <pt x="1188" y="203" on="1"/>
        <pt x="1188" y="86" on="0"/>
        <pt x="1026" y="86" on="1"/>
        <pt x="1012" y="86" on="0"/>
        <pt x="1012" y="-6" on="0"/>
        <pt x="1026" y="-6" on="1"/>
        <pt x="1159" y="0" on="0"/>
        <pt x="1313" y="0" on="1"/>
        <pt x="1464" y="0" on="0"/>
        <pt x="1591" y="-6" on="1"/>
        <pt x="1606" y="-6" on="0"/>
        <pt x="1605" y="86" on="0"/>
        <pt x="1591" y="86" on="1"/>
        <pt x="1432" y="86" on="0"/>
        <pt x="1432" y="203" on="1"/>
      </contour>
      <contour>
        <pt x="1188" y="782" on="1"/>
        <pt x="1188" y="748" on="0"/>
        <pt x="1153" y="748" on="1"/>
        <pt x="516" y="748" on="1"/>
        <pt x="481" y="747" on="0"/>
        <pt x="481" y="782" on="1"/>
        <pt x="481" y="952" on="1"/>
        <pt x="1188" y="952" on="1"/>
      </contour>
    </TTGlyph>
    <TTGlyph name="Hcircumflex" xMin="61" yMin="-6" xMax="1610" yMax="1799">
      <component glyphName="H" x="0" y="0" flags="0x0"/>
      <component glyphName="uni0302.case" x="1486" y="0" flags="0x0"/>
    </TTGlyph>
    <TTGlyph name="I" xMin="61" yMin="-6" xMax="657" yMax="1364">
      <contour>
        <pt x="76" y="-6" on="1"/>
        <pt x="200" y="0" on="0"/>
        <pt x="506" y="0" on="0"/>
        <pt x="639" y="-6" on="1"/>
        <pt x="653" y="-6" on="0"/>
        <pt x="653" y="86" on="0"/>
        <pt x="639" y="86" on="1"/>
        <pt x="481" y="86" on="0"/>
        <pt x="481" y="203" on="1"/>
        <pt x="481" y="1153" on="1"/>
        <pt x="481" y="1270" on="0"/>
        <pt x="643" y="1270" on="1"/>
        <pt x="657" y="1270" on="0"/>
        <pt x="657" y="1364" on="0"/>
        <pt x="643" y="1364" on="1"/>
        <pt x="596" y="1358" on="0"/>
        <pt x="123" y="1358" on="0"/>
        <pt x="76" y="1364" on="1"/>
        <pt x="62" y="1364" on="0"/>
        <pt x="62" y="1270" on="0"/>
        <pt x="76" y="1270" on="1"/>
        <pt x="238" y="1270" on="0"/>
        <pt x="238" y="1153" on="1"/>
        <pt x="238" y="203" on="1"/>
        <pt x="238" y="86" on="0"/>
        <pt x="76" y="86" on="1"/>
        <pt x="61" y="86" on="0"/>
        <pt x="61" y="-6" on="0"/>
        <pt x="76" y="-6" on="1"/>
      </contour>
    </TTGlyph>
    <TTGlyph name="IJ" xMin="61" yMin="-420" xMax="1421" yMax="1364">
      <component glyphName="J" x="733" y="0" flags="0x0"/>
      <component glyphName="I" x="0" y="0" flags="0x0"/>
    </TTGlyph>
    <TTGlyph name="Iacute" xMin="61" yMin="-6" xMax="657" yMax="1784">
      <component glyphName="I" x="0" y="0" flags="0x0"/>
      <component glyphName="acutecomb.case" x="961" y="0" flags="0x0"/>
    </TTGlyph>
    <TTGlyph name="Ibreve" xMin="61" yMin="-6" xMax="657" yMax="1842">
      <component glyphName="I" x="0" y="0" flags="0x0"/>
      <component glyphName="uni0306" x="818" y="507" flags="0x4"/>
    </TTGlyph>
    <TTGlyph name="Icircumflex" xMin="30" yMin="-6" xMax="704" yMax="1799">
      <component glyphName="I" x="0" y="0" flags="0x0"/>
      <component glyphName="uni0302.case" x="1010" y="0" flags="0x0"/>
    </TTGlyph>
    <TTGlyph name="Idieresis" xMin="25" yMin="-6" xMax="709" yMax="1753">
      <component glyphName="I" x="0" y="0" flags="0x0"/>
      <component glyphName="uni0308.case" x="978" y="0" flags="0x0"/>
    </TTGlyph>
    <TTGlyph name="Idotaccent" xMin="61" yMin="-6" xMax="657" yMax="1792">
      <component glyphName="dotaccent" x="115" y="465" flags="0x4"/>
      <component glyphName="I" x="0" y="0" flags="0x0"/>
    </TTGlyph>
    <TTGlyph name="Igrave" xMin="61" yMin="-6" xMax="657" yMax="1774">
      <component glyphName="I" x="0" y="0" flags="0x0"/>
      <component glyphName="gravecomb.case" x="821" y="0" flags="0x0"/>
    </TTGlyph>
    <TTGlyph name="Imacron" xMin="44" yMin="-6" xMax="692" yMax="1661">
      <component glyphName="I" x="0" y="0" flags="0x0"/>
      <component glyphName="uni0304.case" x="999" y="0" flags="0x0"/>
    </TTGlyph>
    <TTGlyph name="Iogonek" xMin="61" yMin="-543" xMax="720" yMax="1364">
      <contour>
        <pt x="298" y="-359" on="1"/>
        <pt x="298" y="-543" on="0"/>
        <pt x="503" y="-543" on="1"/>
        <pt x="644" y="-543" on="0"/>
        <pt x="720" y="-430" on="1"/>
        <pt x="720" y="-397" on="0"/>
        <pt x="700" y="-391" on="1"/>
        <pt x="658" y="-422" on="0"/>
        <pt x="597" y="-422" on="1"/>
        <pt x="474" y="-422" on="0"/>
        <pt x="474" y="-301" on="1"/>
        <pt x="475" y="-174" on="0"/>
        <pt x="659" y="10" on="1"/>
        <pt x="558" y="10" on="1"/>
        <pt x="298" y="-189" on="0"/>
        <pt x="298" y="-359" on="1"/>
      </contour>
      <contour>
        <pt x="76" y="-6" on="1"/>
        <pt x="200" y="0" on="0"/>
        <pt x="506" y="0" on="0"/>
        <pt x="639" y="-6" on="1"/>
        <pt x="653" y="-6" on="0"/>
        <pt x="653" y="86" on="0"/>
        <pt x="639" y="86" on="1"/>
        <pt x="481" y="86" on="0"/>
        <pt x="481" y="203" on="1"/>
        <pt x="481" y="1153" on="1"/>
        <pt x="481" y="1270" on="0"/>
        <pt x="643" y="1270" on="1"/>
        <pt x="657" y="1270" on="0"/>
        <pt x="657" y="1364" on="0"/>
        <pt x="643" y="1364" on="1"/>
        <pt x="596" y="1358" on="0"/>
        <pt x="123" y="1358" on="0"/>
        <pt x="76" y="1364" on="1"/>
        <pt x="62" y="1364" on="0"/>
        <pt x="62" y="1270" on="0"/>
        <pt x="76" y="1270" on="1"/>
        <pt x="238" y="1270" on="0"/>
        <pt x="238" y="1153" on="1"/>
        <pt x="238" y="203" on="1"/>
        <pt x="238" y="86" on="0"/>
        <pt x="76" y="86" on="1"/>
        <pt x="61" y="86" on="0"/>
        <pt x="61" y="-6" on="0"/>
        <pt x="76" y="-6" on="1"/>
        <pt x="76" y="-6" on="1"/>
      </contour>
    </TTGlyph>
    <TTGlyph name="Itilde" xMin="50" yMin="-6" xMax="685" yMax="1764">
      <component glyphName="I" x="0" y="0" flags="0x0"/>
      <component glyphName="tildecomb" x="851" y="507" flags="0x4"/>
    </TTGlyph>
    <TTGlyph name="J" xMin="-131" yMin="-420" xMax="688" yMax="1364">
      <contour>
        <pt x="-131" y="-276" on="1"/>
        <pt x="-131" y="-344" on="0"/>
        <pt x="-18" y="-420" on="0"/>
        <pt x="33" y="-420" on="1"/>
        <pt x="119" y="-418" on="0"/>
        <pt x="205" y="-371" on="1"/>
        <pt x="332" y="-299" on="0"/>
        <pt x="492" y="-33" on="0"/>
        <pt x="492" y="195" on="1"/>
        <pt x="502" y="523" on="0"/>
        <pt x="502" y="629" on="1"/>
        <pt x="502" y="1153" on="1"/>
        <pt x="502" y="1270" on="0"/>
        <pt x="674" y="1270" on="1"/>
        <pt x="688" y="1270" on="0"/>
        <pt x="688" y="1364" on="0"/>
        <pt x="674" y="1364" on="1"/>
        <pt x="627" y="1359" on="0"/>
        <pt x="133" y="1359" on="0"/>
        <pt x="86" y="1364" on="1"/>
        <pt x="72" y="1364" on="0"/>
        <pt x="72" y="1270" on="0"/>
        <pt x="86" y="1270" on="1"/>
        <pt x="256" y="1270" on="0"/>
        <pt x="256" y="1153" on="1"/>
        <pt x="256" y="254" on="1"/>
        <pt x="256" y="-107" on="0"/>
        <pt x="231" y="-195" on="1"/>
        <pt x="207" y="-251" on="0"/>
        <pt x="174" y="-276" on="1"/>
        <pt x="162" y="-242" on="0"/>
        <pt x="137" y="-215" on="1"/>
        <pt x="82" y="-158" on="0"/>
        <pt x="8" y="-158" on="1"/>
        <pt x="-48" y="-158" on="0"/>
        <pt x="-131" y="-216" on="0"/>
        <pt x="-131" y="-276" on="1"/>
      </contour>
    </TTGlyph>
    <TTGlyph name="Jcircumflex" xMin="-131" yMin="-420" xMax="695" yMax="1799">
      <component glyphName="J" x="0" y="0" flags="0x0"/>
      <component glyphName="uni0302.case" x="1001" y="0" flags="0x0"/>
    </TTGlyph>
    <TTGlyph name="K" xMin="51" yMin="-6" xMax="1397" yMax="1364">
      <contour>
        <pt x="686" y="725" on="1"/>
        <pt x="672" y="742" on="0"/>
        <pt x="672" y="775" on="0"/>
        <pt x="686" y="793" on="1"/>
        <pt x="1024" y="1186" on="1"/>
        <pt x="1063" y="1229" on="0"/>
        <pt x="1149" y="1270" on="0"/>
        <pt x="1237" y="1270" on="1"/>
        <pt x="1251" y="1270" on="0"/>
        <pt x="1251" y="1364" on="0"/>
        <pt x="1237" y="1364" on="1"/>
        <pt x="1190" y="1359" on="0"/>
        <pt x="891" y="1359" on="0"/>
        <pt x="842" y="1364" on="1"/>
        <pt x="829" y="1364" on="0"/>
        <pt x="829" y="1270" on="0"/>
        <pt x="842" y="1270" on="1"/>
        <pt x="903" y="1270" on="0"/>
        <pt x="903" y="1218" on="0"/>
        <pt x="850" y="1155" on="1"/>
        <pt x="573" y="825" on="1"/>
        <pt x="527" y="770" on="0"/>
        <pt x="498" y="770" on="1"/>
        <pt x="481" y="770" on="0"/>
        <pt x="481" y="797" on="1"/>
        <pt x="481" y="1153" on="1"/>
        <pt x="481" y="1270" on="0"/>
        <pt x="641" y="1270" on="1"/>
        <pt x="655" y="1270" on="0"/>
        <pt x="655" y="1364" on="0"/>
        <pt x="641" y="1364" on="1"/>
        <pt x="594" y="1358" on="0"/>
        <pt x="113" y="1358" on="0"/>
        <pt x="66" y="1364" on="1"/>
        <pt x="51" y="1364" on="0"/>
        <pt x="51" y="1270" on="0"/>
        <pt x="66" y="1270" on="1"/>
        <pt x="238" y="1270" on="0"/>
        <pt x="238" y="1153" on="1"/>
        <pt x="238" y="203" on="1"/>
        <pt x="238" y="86" on="0"/>
        <pt x="76" y="86" on="1"/>
        <pt x="61" y="86" on="0"/>
        <pt x="61" y="-6" on="0"/>
        <pt x="76" y="-6" on="1"/>
        <pt x="200" y="0" on="0"/>
        <pt x="504" y="0" on="0"/>
        <pt x="637" y="-6" on="1"/>
        <pt x="650" y="-6" on="0"/>
        <pt x="650" y="86" on="0"/>
        <pt x="637" y="86" on="1"/>
        <pt x="481" y="86" on="0"/>
        <pt x="481" y="203" on="1"/>
        <pt x="481" y="569" on="1"/>
        <pt x="481" y="598" on="0"/>
        <pt x="527" y="598" on="0"/>
        <pt x="590" y="524" on="1"/>
        <pt x="848" y="203" on="1"/>
        <pt x="889" y="152" on="0"/>
        <pt x="889" y="125" on="1"/>
        <pt x="889" y="86" on="0"/>
        <pt x="805" y="86" on="1"/>
        <pt x="791" y="86" on="0"/>
        <pt x="791" y="-6" on="0"/>
        <pt x="805" y="-6" on="1"/>
        <pt x="944" y="0" on="0"/>
        <pt x="1249" y="0" on="0"/>
        <pt x="1382" y="-6" on="1"/>
        <pt x="1397" y="-6" on="0"/>
        <pt x="1397" y="86" on="0"/>
        <pt x="1382" y="86" on="1"/>
        <pt x="1346" y="86" on="0"/>
        <pt x="1323" y="88" on="1"/>
        <pt x="1223" y="100" on="0"/>
        <pt x="1145" y="190" on="1"/>
      </contour>
    </TTGlyph>
    <TTGlyph name="L" xMin="51" yMin="-6" xMax="1280" yMax="1364">
      <contour>
        <pt x="481" y="1153" on="1"/>
        <pt x="481" y="1270" on="0"/>
        <pt x="637" y="1270" on="1"/>
        <pt x="650" y="1270" on="0"/>
        <pt x="650" y="1364" on="0"/>
        <pt x="637" y="1364" on="1"/>
        <pt x="588" y="1359" on="0"/>
        <pt x="113" y="1359" on="0"/>
        <pt x="66" y="1364" on="1"/>
        <pt x="51" y="1364" on="0"/>
        <pt x="51" y="1270" on="0"/>
        <pt x="66" y="1270" on="1"/>
        <pt x="238" y="1270" on="0"/>
        <pt x="238" y="1153" on="1"/>
        <pt x="238" y="213" on="1"/>
        <pt x="238" y="86" on="0"/>
        <pt x="76" y="86" on="1"/>
        <pt x="61" y="86" on="0"/>
        <pt x="61" y="-6" on="0"/>
        <pt x="76" y="-6" on="1"/>
        <pt x="282" y="0" on="0"/>
        <pt x="463" y="0" on="0"/>
        <pt x="977" y="-6" on="0"/>
        <pt x="1163" y="-6" on="1"/>
        <pt x="1258" y="-6" on="0"/>
        <pt x="1266" y="4" on="1"/>
        <pt x="1280" y="14" on="0"/>
        <pt x="1280" y="57" on="1"/>
        <pt x="1280" y="391" on="1"/>
        <pt x="1280" y="409" on="0"/>
        <pt x="1180" y="409" on="0"/>
        <pt x="1180" y="391" on="1"/>
        <pt x="1180" y="276" on="0"/>
        <pt x="1098" y="172" on="1"/>
        <pt x="1030" y="92" on="0"/>
        <pt x="954" y="90" on="1"/>
        <pt x="623" y="78" on="1"/>
        <pt x="584" y="78" on="0"/>
        <pt x="549" y="96" on="1"/>
        <pt x="481" y="139" on="0"/>
        <pt x="481" y="250" on="1"/>
      </contour>
    </TTGlyph>
    <TTGlyph name="Lacute" xMin="51" yMin="-6" xMax="1280" yMax="1784">
      <component glyphName="L" x="0" y="0" flags="0x0"/>
      <component glyphName="acutecomb.case" x="956" y="0" flags="0x0"/>
    </TTGlyph>
    <TTGlyph name="Lcaron" xMin="51" yMin="-6" xMax="1280" yMax="1491">
      <component glyphName="caron.alt" x="283" y="0" flags="0x0"/>
      <component glyphName="L" x="0" y="0" flags="0x0"/>
    </TTGlyph>
    <TTGlyph name="Ldot" xMin="51" yMin="-6" xMax="1280" yMax="1364">
      <component glyphName="periodcentered" x="682" y="219" flags="0x4"/>
      <component glyphName="L" x="0" y="0" flags="0x0"/>
    </TTGlyph>
    <TTGlyph name="Lslash" xMin="-12" yMin="-8" xMax="1280" yMax="1364">
      <contour>
        <pt x="1280" y="391" on="1"/>
        <pt x="1280" y="410" on="0"/>
        <pt x="1180" y="409" on="0"/>
        <pt x="1180" y="391" on="1"/>
        <pt x="1180" y="324" on="0"/>
        <pt x="1130" y="215" on="0"/>
        <pt x="1030" y="92" on="0"/>
        <pt x="954" y="90" on="1"/>
        <pt x="623" y="78" on="1"/>
        <pt x="578" y="76" on="0"/>
        <pt x="518" y="115" on="0"/>
        <pt x="481" y="187" on="0"/>
        <pt x="481" y="250" on="1"/>
        <pt x="481" y="637" on="1"/>
        <pt x="799" y="836" on="1"/>
        <pt x="817" y="848" on="0"/>
        <pt x="751" y="952" on="0"/>
        <pt x="733" y="940" on="1"/>
        <pt x="481" y="782" on="1"/>
        <pt x="481" y="1153" on="1"/>
        <pt x="481" y="1270" on="0"/>
        <pt x="637" y="1270" on="1"/>
        <pt x="649" y="1270" on="0"/>
        <pt x="651" y="1364" on="0"/>
        <pt x="637" y="1364" on="1"/>
        <pt x="588" y="1358" on="0"/>
        <pt x="350" y="1358" on="1"/>
        <pt x="113" y="1360" on="0"/>
        <pt x="66" y="1364" on="1"/>
        <pt x="51" y="1364" on="0"/>
        <pt x="52" y="1270" on="0"/>
        <pt x="66" y="1270" on="1"/>
        <pt x="238" y="1270" on="0"/>
        <pt x="238" y="1153" on="1"/>
        <pt x="238" y="631" on="1"/>
        <pt x="-6" y="477" on="1"/>
        <pt x="-10" y="475" on="0"/>
        <pt x="-10" y="465" on="1"/>
        <pt x="-12" y="449" on="0"/>
        <pt x="4" y="420" on="1"/>
        <pt x="39" y="361" on="0"/>
        <pt x="59" y="373" on="1"/>
        <pt x="238" y="483" on="1"/>
        <pt x="238" y="213" on="1"/>
        <pt x="238" y="86" on="0"/>
        <pt x="76" y="86" on="1"/>
        <pt x="59" y="86" on="0"/>
        <pt x="62" y="-6" on="0"/>
        <pt x="76" y="-6" on="1"/>
        <pt x="340" y="0" on="0"/>
        <pt x="465" y="0" on="1"/>
        <pt x="590" y="0" on="0"/>
        <pt x="995" y="-6" on="0"/>
        <pt x="1163" y="-6" on="1"/>
        <pt x="1241" y="-8" on="0"/>
        <pt x="1266" y="4" on="1"/>
        <pt x="1280" y="14" on="0"/>
        <pt x="1280" y="57" on="1"/>
      </contour>
    </TTGlyph>
    <TTGlyph name="M" xMin="27" yMin="-18" xMax="1784" yMax="1364">
      <contour>
        <pt x="1597" y="1124" on="1"/>
        <pt x="1597" y="1182" on="0"/>
        <pt x="1651" y="1270" on="0"/>
        <pt x="1755" y="1270" on="1"/>
        <pt x="1769" y="1270" on="0"/>
        <pt x="1769" y="1364" on="0"/>
        <pt x="1755" y="1364" on="1"/>
        <pt x="1695" y="1358" on="0"/>
        <pt x="1591" y="1358" on="1"/>
        <pt x="1538" y="1358" on="1"/>
        <pt x="1470" y="1358" on="0"/>
        <pt x="1427" y="1276" on="1"/>
        <pt x="958" y="358" on="1"/>
        <pt x="946" y="336" on="0"/>
        <pt x="917" y="336" on="0"/>
        <pt x="907" y="356" on="1"/>
        <pt x="469" y="1270" on="1"/>
        <pt x="416" y="1358" on="0"/>
        <pt x="350" y="1358" on="1"/>
        <pt x="254" y="1358" on="1"/>
        <pt x="162" y="1358" on="0"/>
        <pt x="80" y="1364" on="1"/>
        <pt x="68" y="1364" on="0"/>
        <pt x="68" y="1270" on="0"/>
        <pt x="80" y="1270" on="1"/>
        <pt x="254" y="1270" on="0"/>
        <pt x="254" y="1161" on="1"/>
        <pt x="254" y="1116" on="1"/>
        <pt x="193" y="211" on="1"/>
        <pt x="188" y="86" on="0"/>
        <pt x="41" y="86" on="1"/>
        <pt x="27" y="86" on="0"/>
        <pt x="27" y="-6" on="0"/>
        <pt x="41" y="-6" on="1"/>
        <pt x="103" y="0" on="0"/>
        <pt x="336" y="0" on="0"/>
        <pt x="469" y="-6" on="1"/>
        <pt x="482" y="-6" on="0"/>
        <pt x="482" y="86" on="0"/>
        <pt x="469" y="86" on="1"/>
        <pt x="299" y="86" on="0"/>
        <pt x="299" y="174" on="1"/>
        <pt x="299" y="207" on="1"/>
        <pt x="348" y="963" on="1"/>
        <pt x="352" y="989" on="0"/>
        <pt x="365" y="989" on="0"/>
        <pt x="375" y="969" on="1"/>
        <pt x="834" y="4" on="1"/>
        <pt x="842" y="-18" on="0"/>
        <pt x="883" y="-18" on="0"/>
        <pt x="895" y="4" on="1"/>
        <pt x="1346" y="881" on="1"/>
        <pt x="1354" y="897" on="0"/>
        <pt x="1368" y="897" on="0"/>
        <pt x="1368" y="877" on="1"/>
        <pt x="1374" y="209" on="1"/>
        <pt x="1374" y="86" on="0"/>
        <pt x="1221" y="86" on="1"/>
        <pt x="1206" y="86" on="0"/>
        <pt x="1206" y="-6" on="0"/>
        <pt x="1221" y="-6" on="1"/>
        <pt x="1362" y="0" on="0"/>
        <pt x="1642" y="0" on="0"/>
        <pt x="1769" y="-6" on="1"/>
        <pt x="1784" y="-6" on="0"/>
        <pt x="1784" y="86" on="0"/>
        <pt x="1769" y="86" on="1"/>
        <pt x="1610" y="86" on="0"/>
        <pt x="1608" y="209" on="1"/>
      </contour>
    </TTGlyph>
    <TTGlyph name="N" xMin="39" yMin="-20" xMax="1438" yMax="1364">
      <contour>
        <pt x="1288" y="1151" on="1"/>
        <pt x="1288" y="1270" on="0"/>
        <pt x="1423" y="1270" on="1"/>
        <pt x="1438" y="1270" on="0"/>
        <pt x="1437" y="1364" on="0"/>
        <pt x="1423" y="1364" on="1"/>
        <pt x="1331" y="1358" on="0"/>
        <pt x="1231" y="1358" on="1"/>
        <pt x="1134" y="1360" on="0"/>
        <pt x="1032" y="1364" on="1"/>
        <pt x="1018" y="1364" on="0"/>
        <pt x="1018" y="1270" on="0"/>
        <pt x="1032" y="1270" on="1"/>
        <pt x="1186" y="1270" on="0"/>
        <pt x="1186" y="1151" on="1"/>
        <pt x="1186" y="449" on="1"/>
        <pt x="1186" y="418" on="0"/>
        <pt x="1161" y="418" on="1"/>
        <pt x="1147" y="418" on="0"/>
        <pt x="1137" y="432" on="1"/>
        <pt x="426" y="1298" on="1"/>
        <pt x="385" y="1348" on="0"/>
        <pt x="326" y="1356" on="1"/>
        <pt x="311" y="1358" on="0"/>
        <pt x="227" y="1358" on="1"/>
        <pt x="100" y="1360" on="0"/>
        <pt x="51" y="1364" on="1"/>
        <pt x="39" y="1364" on="0"/>
        <pt x="39" y="1270" on="0"/>
        <pt x="51" y="1270" on="1"/>
        <pt x="223" y="1270" on="0"/>
        <pt x="223" y="1155" on="1"/>
        <pt x="223" y="203" on="1"/>
        <pt x="226" y="86" on="0"/>
        <pt x="66" y="86" on="1"/>
        <pt x="51" y="86" on="0"/>
        <pt x="52" y="-8" on="0"/>
        <pt x="66" y="-6" on="1"/>
        <pt x="177" y="0" on="0"/>
        <pt x="279" y="0" on="1"/>
        <pt x="387" y="0" on="0"/>
        <pt x="479" y="-6" on="1"/>
        <pt x="494" y="-8" on="0"/>
        <pt x="493" y="86" on="0"/>
        <pt x="479" y="86" on="1"/>
        <pt x="328" y="86" on="0"/>
        <pt x="328" y="203" on="1"/>
        <pt x="328" y="1008" on="1"/>
        <pt x="330" y="1030" on="0"/>
        <pt x="342" y="1030" on="1"/>
        <pt x="348" y="1030" on="0"/>
        <pt x="360" y="1014" on="1"/>
        <pt x="1184" y="37" on="1"/>
        <pt x="1230" y="-20" on="0"/>
        <pt x="1257" y="-20" on="1"/>
        <pt x="1288" y="-20" on="0"/>
        <pt x="1288" y="76" on="1"/>
      </contour>
    </TTGlyph>
    <TTGlyph name="Nacute" xMin="39" yMin="-20" xMax="1438" yMax="1784">
      <component glyphName="N" x="0" y="0" flags="0x0"/>
      <component glyphName="acutecomb.case" x="1334" y="0" flags="0x0"/>
    </TTGlyph>
    <TTGlyph name="Ncaron" xMin="39" yMin="-20" xMax="1438" yMax="1798">
      <component glyphName="N" x="0" y="0" flags="0x0"/>
      <component glyphName="uni030C.case" x="1383" y="0" flags="0x0"/>
    </TTGlyph>
    <TTGlyph name="Ntilde" xMin="39" yMin="-20" xMax="1438" yMax="1764">
      <component glyphName="N" x="0" y="0" flags="0x0"/>
      <component glyphName="tildecomb" x="1224" y="507" flags="0x4"/>
    </TTGlyph>
    <TTGlyph name="O" xMin="55" yMin="-27" xMax="1430" yMax="1385">
      <contour>
        <pt x="1430" y="664" on="1"/>
        <pt x="1430" y="1006" on="0"/>
        <pt x="1171" y="1231" on="1"/>
        <pt x="991" y="1384" on="0"/>
        <pt x="745" y="1384" on="1"/>
        <pt x="426" y="1385" on="0"/>
        <pt x="231" y="1141" on="1"/>
        <pt x="55" y="920" on="0"/>
        <pt x="55" y="668" on="1"/>
        <pt x="55" y="291" on="0"/>
        <pt x="336" y="96" on="1"/>
        <pt x="516" y="-27" on="0"/>
        <pt x="741" y="-27" on="1"/>
        <pt x="1081" y="-26" on="0"/>
        <pt x="1284" y="246" on="1"/>
        <pt x="1430" y="445" on="0"/>
        <pt x="1430" y="664" on="1"/>
      </contour>
      <contour>
        <pt x="1157" y="649" on="1"/>
        <pt x="1157" y="477" on="0"/>
        <pt x="1112" y="346" on="1"/>
        <pt x="1020" y="68" on="0"/>
        <pt x="756" y="68" on="1"/>
        <pt x="610" y="67" on="0"/>
        <pt x="481" y="229" on="1"/>
        <pt x="328" y="422" on="0"/>
        <pt x="328" y="725" on="1"/>
        <pt x="328" y="1001" on="0"/>
        <pt x="473" y="1167" on="1"/>
        <pt x="585" y="1296" on="0"/>
        <pt x="739" y="1296" on="1"/>
        <pt x="891" y="1298" on="0"/>
        <pt x="1032" y="1087" on="1"/>
        <pt x="1157" y="905" on="0"/>
        <pt x="1157" y="649" on="1"/>
      </contour>
    </TTGlyph>
    <TTGlyph name="OE" xMin="53" yMin="-10" xMax="1946" yMax="1358">
      <contour>
        <pt x="1946" y="344" on="1"/>
        <pt x="1946" y="362" on="0"/>
        <pt x="1843" y="362" on="0"/>
        <pt x="1843" y="344" on="1"/>
        <pt x="1843" y="276" on="0"/>
        <pt x="1825" y="227" on="1"/>
        <pt x="1778" y="94" on="0"/>
        <pt x="1620" y="90" on="1"/>
        <pt x="1403" y="86" on="1"/>
        <pt x="1356" y="86" on="0"/>
        <pt x="1315" y="106" on="1"/>
        <pt x="1241" y="145" on="0"/>
        <pt x="1241" y="221" on="1"/>
        <pt x="1241" y="563" on="1"/>
        <pt x="1241" y="594" on="0"/>
        <pt x="1270" y="594" on="1"/>
        <pt x="1407" y="594" on="1"/>
        <pt x="1528" y="594" on="0"/>
        <pt x="1528" y="506" on="1"/>
        <pt x="1528" y="420" on="1"/>
        <pt x="1528" y="403" on="0"/>
        <pt x="1632" y="406" on="0"/>
        <pt x="1632" y="420" on="1"/>
        <pt x="1626" y="481" on="0"/>
        <pt x="1626" y="643" on="1"/>
        <pt x="1626" y="809" on="0"/>
        <pt x="1632" y="877" on="1"/>
        <pt x="1632" y="891" on="0"/>
        <pt x="1528" y="891" on="0"/>
        <pt x="1528" y="877" on="1"/>
        <pt x="1528" y="778" on="1"/>
        <pt x="1528" y="686" on="0"/>
        <pt x="1407" y="686" on="1"/>
        <pt x="1270" y="686" on="1"/>
        <pt x="1247" y="690" on="0"/>
        <pt x="1241" y="717" on="1"/>
        <pt x="1241" y="1225" on="1"/>
        <pt x="1241" y="1266" on="0"/>
        <pt x="1268" y="1266" on="1"/>
        <pt x="1522" y="1257" on="0"/>
        <pt x="1565" y="1255" on="1"/>
        <pt x="1629" y="1251" on="0"/>
        <pt x="1690" y="1206" on="1"/>
        <pt x="1788" y="1130" on="0"/>
        <pt x="1788" y="1001" on="1"/>
        <pt x="1788" y="983" on="0"/>
        <pt x="1888" y="985" on="0"/>
        <pt x="1888" y="1001" on="1"/>
        <pt x="1888" y="1307" on="1"/>
        <pt x="1888" y="1333" on="0"/>
        <pt x="1878" y="1343" on="1"/>
        <pt x="1868" y="1358" on="0"/>
        <pt x="1784" y="1358" on="1"/>
        <pt x="1614" y="1356" on="0"/>
        <pt x="1219" y="1352" on="0"/>
        <pt x="1133" y="1352" on="1"/>
        <pt x="1049" y="1352" on="0"/>
        <pt x="819" y="1358" on="0"/>
        <pt x="723" y="1358" on="1"/>
        <pt x="432" y="1358" on="0"/>
        <pt x="53" y="926" on="0"/>
        <pt x="53" y="662" on="1"/>
        <pt x="53" y="371" on="0"/>
        <pt x="443" y="-10" on="0"/>
        <pt x="719" y="-10" on="1"/>
        <pt x="768" y="-10" on="0"/>
        <pt x="1054" y="0" on="0"/>
        <pt x="1122" y="0" on="1"/>
        <pt x="1268" y="0" on="0"/>
        <pt x="1692" y="-6" on="0"/>
        <pt x="1829" y="-6" on="1"/>
        <pt x="1902" y="-8" on="0"/>
        <pt x="1929" y="4" on="1"/>
        <pt x="1946" y="14" on="0"/>
        <pt x="1946" y="57" on="1"/>
      </contour>
      <contour>
        <pt x="997" y="203" on="1"/>
        <pt x="997" y="135" on="0"/>
        <pt x="872" y="80" on="0"/>
        <pt x="731" y="80" on="1"/>
        <pt x="602" y="80" on="0"/>
        <pt x="326" y="424" on="0"/>
        <pt x="326" y="719" on="1"/>
        <pt x="326" y="969" on="0"/>
        <pt x="561" y="1272" on="0"/>
        <pt x="717" y="1272" on="1"/>
        <pt x="768" y="1272" on="0"/>
        <pt x="895" y="1264" on="0"/>
        <pt x="997" y="1208" on="0"/>
        <pt x="997" y="1155" on="1"/>
        <pt x="997" y="203" on="1"/>
      </contour>
    </TTGlyph>
    <TTGlyph name="Oacute" xMin="55" yMin="-27" xMax="1430" yMax="1784">
      <component glyphName="O" x="0" y="0" flags="0x0"/>
      <component glyphName="acutecomb.case" x="1356" y="0" flags="0x0"/>
    </TTGlyph>
    <TTGlyph name="Obreve" xMin="55" yMin="-27" xMax="1430" yMax="1842">
      <component glyphName="O" x="0" y="0" flags="0x0"/>
      <component glyphName="uni0306" x="1213" y="507" flags="0x4"/>
    </TTGlyph>
    <TTGlyph name="Ocircumflex" xMin="55" yMin="-27" xMax="1430" yMax="1799">
      <component glyphName="O" x="0" y="0" flags="0x0"/>
      <component glyphName="uni0302.case" x="1405" y="0" flags="0x0"/>
    </TTGlyph>
    <TTGlyph name="Odieresis" xMin="55" yMin="-27" xMax="1430" yMax="1753">
      <component glyphName="O" x="0" y="0" flags="0x0"/>
      <component glyphName="uni0308.case" x="1373" y="0" flags="0x0"/>
    </TTGlyph>
    <TTGlyph name="Ograve" xMin="55" yMin="-27" xMax="1430" yMax="1774">
      <component glyphName="O" x="0" y="0" flags="0x0"/>
      <component glyphName="gravecomb.case" x="1216" y="0" flags="0x0"/>
    </TTGlyph>
    <TTGlyph name="Ohungarumlaut" xMin="55" yMin="-27" xMax="1430" yMax="1784">
      <component glyphName="O" x="0" y="0" flags="0x0"/>
      <component glyphName="uni030B.case" x="1319" y="0" flags="0x0"/>
    </TTGlyph>
    <TTGlyph name="Omacron" xMin="55" yMin="-27" xMax="1430" yMax="1661">
      <component glyphName="O" x="0" y="0" flags="0x0"/>
      <component glyphName="uni0304.case" x="1394" y="0" flags="0x0"/>
    </TTGlyph>
    <TTGlyph name="Oslash" xMin="55" yMin="-100" xMax="1430" yMax="1432">
      <contour>
        <pt x="395" y="59" on="1"/>
        <pt x="553" y="-27" on="0"/>
        <pt x="741" y="-27" on="1"/>
        <pt x="1081" y="-26" on="0"/>
        <pt x="1284" y="246" on="1"/>
        <pt x="1430" y="445" on="0"/>
        <pt x="1430" y="664" on="1"/>
        <pt x="1429" y="989" on="0"/>
        <pt x="1196" y="1206" on="1"/>
        <pt x="1296" y="1352" on="1"/>
        <pt x="1298" y="1354" on="0"/>
        <pt x="1298" y="1358" on="1"/>
        <pt x="1301" y="1370" on="0"/>
        <pt x="1268" y="1397" on="1"/>
        <pt x="1225" y="1432" on="0"/>
        <pt x="1194" y="1432" on="1"/>
        <pt x="1186" y="1431" on="0"/>
        <pt x="1184" y="1427" on="1"/>
        <pt x="1087" y="1290" on="1"/>
        <pt x="935" y="1384" on="0"/>
        <pt x="745" y="1384" on="1"/>
        <pt x="426" y="1385" on="0"/>
        <pt x="231" y="1141" on="1"/>
        <pt x="55" y="920" on="0"/>
        <pt x="55" y="668" on="1"/>
        <pt x="56" y="327" on="0"/>
        <pt x="283" y="137" on="1"/>
        <pt x="174" y="-14" on="1"/>
        <pt x="172" y="-19" on="0"/>
        <pt x="172" y="-25" on="1"/>
        <pt x="172" y="-41" on="0"/>
        <pt x="213" y="-72" on="1"/>
        <pt x="249" y="-100" on="0"/>
        <pt x="274" y="-100" on="1"/>
        <pt x="285" y="-98" on="0"/>
        <pt x="289" y="-92" on="1"/>
      </contour>
      <contour>
        <pt x="1069" y="1026" on="1"/>
        <pt x="1157" y="862" on="0"/>
        <pt x="1157" y="649" on="1"/>
        <pt x="1155" y="475" on="0"/>
        <pt x="1112" y="346" on="1"/>
        <pt x="1020" y="68" on="0"/>
        <pt x="756" y="68" on="1"/>
        <pt x="619" y="68" on="0"/>
        <pt x="498" y="209" on="1"/>
      </contour>
      <contour>
        <pt x="416" y="330" on="1"/>
        <pt x="330" y="496" on="0"/>
        <pt x="328" y="725" on="1"/>
        <pt x="328" y="1001" on="0"/>
        <pt x="473" y="1167" on="1"/>
        <pt x="585" y="1296" on="0"/>
        <pt x="739" y="1296" on="1"/>
        <pt x="866" y="1299" on="0"/>
        <pt x="987" y="1149" on="1"/>
        <pt x="416" y="330" on="1"/>
      </contour>
    </TTGlyph>
    <TTGlyph name="Oslashacute" xMin="55" yMin="-100" xMax="1430" yMax="1784">
      <contour>
        <pt x="1040" y="1649" on="1"/>
        <pt x="1040" y="1665" on="0"/>
        <pt x="1014" y="1722" on="0"/>
        <pt x="983" y="1769" on="0"/>
        <pt x="958" y="1784" on="0"/>
        <pt x="950" y="1784" on="1"/>
        <pt x="942" y="1784" on="0"/>
        <pt x="936" y="1778" on="1"/>
        <pt x="678" y="1579" on="1"/>
        <pt x="659" y="1567" on="0"/>
        <pt x="637" y="1530" on="0"/>
        <pt x="637" y="1516" on="1"/>
        <pt x="637" y="1497" on="0"/>
        <pt x="670" y="1475" on="0"/>
        <pt x="688" y="1475" on="1"/>
        <pt x="710" y="1475" on="0"/>
        <pt x="741" y="1489" on="1"/>
        <pt x="1028" y="1624" on="1"/>
        <pt x="1032" y="1626" on="0"/>
        <pt x="1040" y="1639" on="0"/>
        <pt x="1040" y="1649" on="1"/>
      </contour>
      <contour>
        <pt x="395" y="59" on="1"/>
        <pt x="553" y="-27" on="0"/>
        <pt x="741" y="-27" on="1"/>
        <pt x="1081" y="-26" on="0"/>
        <pt x="1284" y="246" on="1"/>
        <pt x="1430" y="445" on="0"/>
        <pt x="1430" y="664" on="1"/>
        <pt x="1429" y="989" on="0"/>
        <pt x="1196" y="1206" on="1"/>
        <pt x="1296" y="1352" on="1"/>
        <pt x="1298" y="1354" on="0"/>
        <pt x="1298" y="1358" on="1"/>
        <pt x="1301" y="1370" on="0"/>
        <pt x="1268" y="1397" on="1"/>
        <pt x="1225" y="1432" on="0"/>
        <pt x="1194" y="1432" on="1"/>
        <pt x="1186" y="1431" on="0"/>
        <pt x="1184" y="1427" on="1"/>
        <pt x="1087" y="1290" on="1"/>
        <pt x="935" y="1384" on="0"/>
        <pt x="745" y="1384" on="1"/>
        <pt x="426" y="1385" on="0"/>
        <pt x="231" y="1141" on="1"/>
        <pt x="55" y="920" on="0"/>
        <pt x="55" y="668" on="1"/>
        <pt x="56" y="327" on="0"/>
        <pt x="283" y="137" on="1"/>
        <pt x="174" y="-14" on="1"/>
        <pt x="172" y="-19" on="0"/>
        <pt x="172" y="-25" on="1"/>
        <pt x="172" y="-41" on="0"/>
        <pt x="213" y="-72" on="1"/>
        <pt x="249" y="-100" on="0"/>
        <pt x="274" y="-100" on="1"/>
        <pt x="285" y="-98" on="0"/>
        <pt x="289" y="-92" on="1"/>
      </contour>
      <contour>
        <pt x="1069" y="1026" on="1"/>
        <pt x="1157" y="862" on="0"/>
        <pt x="1157" y="649" on="1"/>
        <pt x="1155" y="475" on="0"/>
        <pt x="1112" y="346" on="1"/>
        <pt x="1020" y="68" on="0"/>
        <pt x="756" y="68" on="1"/>
        <pt x="619" y="68" on="0"/>
        <pt x="498" y="209" on="1"/>
      </contour>
      <contour>
        <pt x="416" y="330" on="1"/>
        <pt x="330" y="496" on="0"/>
        <pt x="328" y="725" on="1"/>
        <pt x="328" y="1001" on="0"/>
        <pt x="473" y="1167" on="1"/>
        <pt x="585" y="1296" on="0"/>
        <pt x="739" y="1296" on="1"/>
        <pt x="866" y="1299" on="0"/>
        <pt x="987" y="1149" on="1"/>
        <pt x="416" y="330" on="1"/>
      </contour>
    </TTGlyph>
    <TTGlyph name="Otilde" xMin="55" yMin="-27" xMax="1430" yMax="1764">
      <component glyphName="O" x="0" y="0" flags="0x0"/>
      <component glyphName="tildecomb" x="1246" y="507" flags="0x4"/>
    </TTGlyph>
    <TTGlyph name="P" xMin="53" yMin="-6" xMax="1180" yMax="1358">
      <contour>
        <pt x="481" y="569" on="1"/>
        <pt x="481" y="602" on="0"/>
        <pt x="516" y="600" on="1"/>
        <pt x="563" y="596" on="0"/>
        <pt x="653" y="596" on="1"/>
        <pt x="869" y="596" on="0"/>
        <pt x="1008" y="678" on="1"/>
        <pt x="1180" y="779" on="0"/>
        <pt x="1180" y="969" on="1"/>
        <pt x="1180" y="1146" on="0"/>
        <pt x="1022" y="1257" on="1"/>
        <pt x="876" y="1358" on="0"/>
        <pt x="659" y="1358" on="1"/>
        <pt x="578" y="1358" on="0"/>
        <pt x="413" y="1352" on="0"/>
        <pt x="354" y="1352" on="1"/>
        <pt x="211" y="1352" on="0"/>
        <pt x="68" y="1358" on="1"/>
        <pt x="53" y="1358" on="0"/>
        <pt x="54" y="1266" on="0"/>
        <pt x="68" y="1266" on="1"/>
        <pt x="238" y="1264" on="0"/>
        <pt x="238" y="1155" on="1"/>
        <pt x="238" y="203" on="1"/>
        <pt x="238" y="86" on="0"/>
        <pt x="80" y="86" on="1"/>
        <pt x="68" y="86" on="0"/>
        <pt x="68" y="-6" on="0"/>
        <pt x="80" y="-6" on="1"/>
        <pt x="213" y="0" on="0"/>
        <pt x="360" y="0" on="1"/>
        <pt x="522" y="0" on="0"/>
        <pt x="649" y="-6" on="1"/>
        <pt x="664" y="-6" on="0"/>
        <pt x="663" y="86" on="0"/>
        <pt x="649" y="86" on="1"/>
        <pt x="481" y="86" on="0"/>
        <pt x="481" y="203" on="1"/>
      </contour>
      <contour>
        <pt x="924" y="969" on="1"/>
        <pt x="924" y="901" on="0"/>
        <pt x="903" y="848" on="1"/>
        <pt x="842" y="676" on="0"/>
        <pt x="592" y="676" on="1"/>
        <pt x="549" y="676" on="0"/>
        <pt x="512" y="680" on="1"/>
        <pt x="481" y="686" on="0"/>
        <pt x="481" y="717" on="1"/>
        <pt x="481" y="1249" on="1"/>
        <pt x="481" y="1258" on="0"/>
        <pt x="485" y="1264" on="1"/>
        <pt x="497" y="1278" on="0"/>
        <pt x="563" y="1278" on="1"/>
        <pt x="744" y="1278" on="0"/>
        <pt x="842" y="1174" on="1"/>
        <pt x="924" y="1090" on="0"/>
        <pt x="924" y="969" on="1"/>
      </contour>
    </TTGlyph>
    <TTGlyph name="PoisonMark" xMin="51" yMin="1069" xMax="578" yMax="1595">
      <contour>
        <pt x="377" y="1331" on="1"/>
        <pt x="578" y="1534" on="1"/>
        <pt x="516" y="1595" on="1"/>
        <pt x="315" y="1395" on="1"/>
        <pt x="115" y="1595" on="1"/>
        <pt x="51" y="1534" on="1"/>
        <pt x="254" y="1331" on="1"/>
        <pt x="51" y="1130" on="1"/>
        <pt x="115" y="1069" on="1"/>
        <pt x="315" y="1270" on="1"/>
        <pt x="516" y="1069" on="1"/>
        <pt x="578" y="1130" on="1"/>
      </contour>
    </TTGlyph>
    <TTGlyph name="Q" xMin="53" yMin="-364" xMax="1686" yMax="1385">
      <contour>
        <pt x="1430" y="659" on="1"/>
        <pt x="1430" y="991" on="0"/>
        <pt x="1171" y="1231" on="1"/>
        <pt x="1005" y="1384" on="0"/>
        <pt x="745" y="1384" on="1"/>
        <pt x="438" y="1385" on="0"/>
        <pt x="233" y="1139" on="1"/>
        <pt x="55" y="924" on="0"/>
        <pt x="55" y="662" on="1"/>
        <pt x="53" y="475" on="0"/>
        <pt x="213" y="168" on="0"/>
        <pt x="344" y="86" on="1"/>
        <pt x="467" y="12" on="0"/>
        <pt x="500" y="0" on="1"/>
        <pt x="653" y="-59" on="1"/>
        <pt x="1239" y="-282" on="0"/>
        <pt x="1640" y="-358" on="1"/>
        <pt x="1667" y="-364" on="0"/>
        <pt x="1681" y="-315" on="1"/>
        <pt x="1686" y="-301" on="0"/>
        <pt x="1686" y="-291" on="1"/>
        <pt x="1683" y="-262" on="0"/>
        <pt x="1663" y="-256" on="1"/>
        <pt x="1632" y="-248" on="1"/>
        <pt x="1350" y="-166" on="0"/>
        <pt x="1092" y="4" on="1"/>
        <pt x="1069" y="20" on="0"/>
        <pt x="1069" y="45" on="0"/>
        <pt x="1092" y="59" on="1"/>
        <pt x="1212" y="140" on="0"/>
        <pt x="1282" y="238" on="1"/>
        <pt x="1430" y="444" on="0"/>
        <pt x="1430" y="659" on="1"/>
      </contour>
      <contour>
        <pt x="1157" y="641" on="1"/>
        <pt x="1157" y="467" on="0"/>
        <pt x="1106" y="330" on="1"/>
        <pt x="1010" y="66" on="0"/>
        <pt x="756" y="66" on="1"/>
        <pt x="608" y="63" on="0"/>
        <pt x="481" y="219" on="1"/>
        <pt x="328" y="410" on="0"/>
        <pt x="328" y="717" on="1"/>
        <pt x="328" y="942" on="0"/>
        <pt x="426" y="1104" on="1"/>
        <pt x="542" y="1296" on="0"/>
        <pt x="739" y="1296" on="1"/>
        <pt x="907" y="1298" on="0"/>
        <pt x="1036" y="1087" on="1"/>
        <pt x="1157" y="893" on="0"/>
        <pt x="1157" y="641" on="1"/>
      </contour>
    </TTGlyph>
    <TTGlyph name="R" xMin="51" yMin="-25" xMax="1457" yMax="1358">
      <contour>
        <pt x="1212" y="969" on="1"/>
        <pt x="1212" y="1094" on="0"/>
        <pt x="1141" y="1184" on="1"/>
        <pt x="997" y="1358" on="0"/>
        <pt x="659" y="1358" on="1"/>
        <pt x="567" y="1358" on="0"/>
        <pt x="409" y="1352" on="0"/>
        <pt x="354" y="1352" on="1"/>
        <pt x="209" y="1352" on="0"/>
        <pt x="66" y="1358" on="1"/>
        <pt x="51" y="1358" on="0"/>
        <pt x="52" y="1266" on="0"/>
        <pt x="66" y="1266" on="1"/>
        <pt x="238" y="1264" on="0"/>
        <pt x="238" y="1155" on="1"/>
        <pt x="238" y="203" on="1"/>
        <pt x="238" y="86" on="0"/>
        <pt x="76" y="86" on="1"/>
        <pt x="59" y="86" on="0"/>
        <pt x="62" y="-6" on="0"/>
        <pt x="76" y="-6" on="1"/>
        <pt x="208" y="0" on="0"/>
        <pt x="360" y="0" on="1"/>
        <pt x="504" y="0" on="0"/>
        <pt x="637" y="-6" on="1"/>
        <pt x="649" y="-6" on="0"/>
        <pt x="651" y="86" on="0"/>
        <pt x="637" y="86" on="1"/>
        <pt x="481" y="86" on="0"/>
        <pt x="481" y="203" on="1"/>
        <pt x="481" y="567" on="1"/>
        <pt x="482" y="588" on="0"/>
        <pt x="500" y="588" on="1"/>
        <pt x="567" y="588" on="1"/>
        <pt x="606" y="585" on="0"/>
        <pt x="631" y="565" on="1"/>
        <pt x="646" y="553" on="0"/>
        <pt x="709" y="477" on="1"/>
        <pt x="840" y="291" on="1"/>
        <pt x="961" y="119" on="0"/>
        <pt x="1102" y="31" on="1"/>
        <pt x="1183" y="-25" on="0"/>
        <pt x="1339" y="-25" on="1"/>
        <pt x="1432" y="-20" on="1"/>
        <pt x="1454" y="-23" on="0"/>
        <pt x="1454" y="16" on="1"/>
        <pt x="1457" y="41" on="0"/>
        <pt x="1430" y="45" on="1"/>
        <pt x="1343" y="62" on="0"/>
        <pt x="1249" y="162" on="1"/>
        <pt x="1055" y="363" on="0"/>
        <pt x="924" y="586" on="1"/>
        <pt x="911" y="602" on="0"/>
        <pt x="911" y="612" on="1"/>
        <pt x="912" y="629" on="0"/>
        <pt x="930" y="633" on="1"/>
        <pt x="1212" y="717" on="0"/>
        <pt x="1212" y="969" on="1"/>
      </contour>
      <contour>
        <pt x="958" y="969" on="1"/>
        <pt x="958" y="893" on="0"/>
        <pt x="932" y="831" on="1"/>
        <pt x="856" y="666" on="0"/>
        <pt x="592" y="666" on="1"/>
        <pt x="553" y="666" on="0"/>
        <pt x="506" y="674" on="1"/>
        <pt x="481" y="680" on="0"/>
        <pt x="481" y="713" on="1"/>
        <pt x="481" y="1237" on="1"/>
        <pt x="481" y="1262" on="0"/>
        <pt x="502" y="1278" on="0"/>
        <pt x="563" y="1278" on="1"/>
        <pt x="736" y="1278" on="0"/>
        <pt x="842" y="1196" on="1"/>
        <pt x="958" y="1104" on="0"/>
        <pt x="958" y="969" on="1"/>
      </contour>
    </TTGlyph>
    <TTGlyph name="Racute" xMin="51" yMin="-25" xMax="1457" yMax="1784">
      <component glyphName="R" x="0" y="0" flags="0x0"/>
      <component glyphName="acutecomb.case" x="1304" y="0" flags="0x0"/>
    </TTGlyph>
    <TTGlyph name="Rcaron" xMin="51" yMin="-25" xMax="1457" yMax="1798">
      <component glyphName="R" x="0" y="0" flags="0x0"/>
      <component glyphName="uni030C.case" x="1353" y="0" flags="0x0"/>
    </TTGlyph>
    <TTGlyph name="S" xMin="104" yMin="-27" xMax="981" yMax="1384">
      <contour>
        <pt x="981" y="403" on="1"/>
        <pt x="981" y="733" on="0"/>
        <pt x="559" y="834" on="1"/>
        <pt x="311" y="895" on="0"/>
        <pt x="311" y="1075" on="1"/>
        <pt x="311" y="1162" on="0"/>
        <pt x="352" y="1217" on="1"/>
        <pt x="412" y="1300" on="0"/>
        <pt x="506" y="1300" on="1"/>
        <pt x="625" y="1300" on="0"/>
        <pt x="760" y="1180" on="0"/>
        <pt x="791" y="1063" on="1"/>
        <pt x="797" y="1045" on="0"/>
        <pt x="842" y="1051" on="1"/>
        <pt x="889" y="1056" on="0"/>
        <pt x="887" y="1083" on="1"/>
        <pt x="875" y="1235" on="0"/>
        <pt x="838" y="1354" on="1"/>
        <pt x="836" y="1354" on="1"/>
        <pt x="801" y="1352" on="1"/>
        <pt x="792" y="1352" on="0"/>
        <pt x="737" y="1364" on="1"/>
        <pt x="645" y="1384" on="0"/>
        <pt x="524" y="1384" on="1"/>
        <pt x="337" y="1384" on="0"/>
        <pt x="233" y="1290" on="1"/>
        <pt x="104" y="1173" on="0"/>
        <pt x="104" y="1032" on="1"/>
        <pt x="105" y="684" on="0"/>
        <pt x="502" y="584" on="1"/>
        <pt x="770" y="514" on="0"/>
        <pt x="770" y="307" on="1"/>
        <pt x="772" y="195" on="0"/>
        <pt x="700" y="125" on="1"/>
        <pt x="643" y="68" on="0"/>
        <pt x="571" y="68" on="1"/>
        <pt x="403" y="65" on="0"/>
        <pt x="299" y="184" on="1"/>
        <pt x="219" y="274" on="0"/>
        <pt x="209" y="391" on="1"/>
        <pt x="205" y="412" on="0"/>
        <pt x="158" y="410" on="1"/>
        <pt x="111" y="410" on="0"/>
        <pt x="111" y="385" on="1"/>
        <pt x="111" y="234" on="0"/>
        <pt x="164" y="72" on="1"/>
        <pt x="307" y="8" on="1"/>
        <pt x="412" y="-27" on="0"/>
        <pt x="555" y="-27" on="1"/>
        <pt x="751" y="-27" on="0"/>
        <pt x="870" y="102" on="1"/>
        <pt x="981" y="223" on="0"/>
        <pt x="981" y="403" on="1"/>
      </contour>
    </TTGlyph>
    <TTGlyph name="Sacute" xMin="104" yMin="-27" xMax="981" yMax="1784">
      <component glyphName="S" x="0" y="0" flags="0x0"/>
      <component glyphName="acutecomb.case" x="1132" y="0" flags="0x0"/>
    </TTGlyph>
    <TTGlyph name="Scaron" xMin="104" yMin="-27" xMax="981" yMax="1798">
      <component glyphName="S" x="0" y="0" flags="0x0"/>
      <component glyphName="uni030C.case" x="1181" y="0" flags="0x0"/>
    </TTGlyph>
    <TTGlyph name="Scedilla" xMin="104" yMin="-524" xMax="981" yMax="1384">
      <contour>
        <pt x="674" y="-334" on="1"/>
        <pt x="674" y="-225" on="0"/>
        <pt x="551" y="-160" on="1"/>
        <pt x="522" y="-143" on="0"/>
        <pt x="522" y="-133" on="1"/>
        <pt x="522" y="-129" on="0"/>
        <pt x="530" y="-117" on="1"/>
        <pt x="598" y="-25" on="1"/>
        <pt x="766" y="-13" on="0"/>
        <pt x="870" y="102" on="1"/>
        <pt x="981" y="223" on="0"/>
        <pt x="981" y="403" on="1"/>
        <pt x="981" y="732" on="0"/>
        <pt x="559" y="834" on="1"/>
        <pt x="311" y="895" on="0"/>
        <pt x="311" y="1075" on="1"/>
        <pt x="311" y="1162" on="0"/>
        <pt x="352" y="1217" on="1"/>
        <pt x="412" y="1300" on="0"/>
        <pt x="506" y="1300" on="1"/>
        <pt x="625" y="1300" on="0"/>
        <pt x="760" y="1180" on="0"/>
        <pt x="791" y="1063" on="1"/>
        <pt x="797" y="1045" on="0"/>
        <pt x="842" y="1051" on="1"/>
        <pt x="889" y="1056" on="0"/>
        <pt x="887" y="1083" on="1"/>
        <pt x="875" y="1235" on="0"/>
        <pt x="838" y="1354" on="1"/>
        <pt x="836" y="1354" on="1"/>
        <pt x="801" y="1352" on="1"/>
        <pt x="792" y="1352" on="0"/>
        <pt x="737" y="1364" on="1"/>
        <pt x="645" y="1384" on="0"/>
        <pt x="524" y="1384" on="1"/>
        <pt x="337" y="1384" on="0"/>
        <pt x="233" y="1290" on="1"/>
        <pt x="104" y="1173" on="0"/>
        <pt x="104" y="1032" on="1"/>
        <pt x="105" y="684" on="0"/>
        <pt x="502" y="584" on="1"/>
        <pt x="770" y="514" on="0"/>
        <pt x="770" y="307" on="1"/>
        <pt x="772" y="195" on="0"/>
        <pt x="700" y="125" on="1"/>
        <pt x="643" y="68" on="0"/>
        <pt x="571" y="68" on="1"/>
        <pt x="403" y="65" on="0"/>
        <pt x="299" y="184" on="1"/>
        <pt x="219" y="274" on="0"/>
        <pt x="209" y="391" on="1"/>
        <pt x="205" y="412" on="0"/>
        <pt x="158" y="410" on="1"/>
        <pt x="111" y="410" on="0"/>
        <pt x="111" y="385" on="1"/>
        <pt x="111" y="234" on="0"/>
        <pt x="164" y="72" on="1"/>
        <pt x="307" y="8" on="1"/>
        <pt x="387" y="-19" on="0"/>
        <pt x="489" y="-25" on="1"/>
        <pt x="358" y="-219" on="1"/>
        <pt x="352" y="-227" on="0"/>
        <pt x="352" y="-231" on="1"/>
        <pt x="353" y="-242" on="0"/>
        <pt x="373" y="-250" on="1"/>
        <pt x="514" y="-313" on="0"/>
        <pt x="514" y="-391" on="1"/>
        <pt x="516" y="-442" on="0"/>
        <pt x="463" y="-442" on="1"/>
        <pt x="440" y="-443" on="0"/>
        <pt x="397" y="-406" on="1"/>
        <pt x="353" y="-367" on="0"/>
        <pt x="322" y="-367" on="1"/>
        <pt x="305" y="-367" on="0"/>
        <pt x="293" y="-373" on="1"/>
        <pt x="256" y="-391" on="0"/>
        <pt x="256" y="-434" on="1"/>
        <pt x="256" y="-451" on="0"/>
        <pt x="262" y="-463" on="1"/>
        <pt x="289" y="-524" on="0"/>
        <pt x="414" y="-524" on="1"/>
        <pt x="512" y="-522" on="0"/>
        <pt x="586" y="-475" on="1"/>
        <pt x="674" y="-420" on="0"/>
        <pt x="674" y="-334" on="1"/>
      </contour>
    </TTGlyph>
    <TTGlyph name="Scircumflex" xMin="104" yMin="-27" xMax="981" yMax="1799">
      <component glyphName="S" x="0" y="0" flags="0x0"/>
      <component glyphName="uni0302.case" x="1181" y="0" flags="0x0"/>
    </TTGlyph>
    <TTGlyph name="T" xMin="35" yMin="-6" xMax="1268" yMax="1358">
      <contour>
        <pt x="772" y="1237" on="1"/>
        <pt x="774" y="1266" on="0"/>
        <pt x="807" y="1266" on="1"/>
        <pt x="934" y="1266" on="1"/>
        <pt x="1010" y="1266" on="0"/>
        <pt x="1165" y="1137" on="0"/>
        <pt x="1165" y="1008" on="1"/>
        <pt x="1165" y="991" on="0"/>
        <pt x="1268" y="992" on="0"/>
        <pt x="1268" y="1008" on="1"/>
        <pt x="1268" y="1307" on="1"/>
        <pt x="1268" y="1331" on="0"/>
        <pt x="1260" y="1341" on="1"/>
        <pt x="1247" y="1358" on="0"/>
        <pt x="1163" y="1358" on="1"/>
        <pt x="950" y="1352" on="0"/>
        <pt x="335" y="1352" on="0"/>
        <pt x="147" y="1358" on="1"/>
        <pt x="74" y="1358" on="0"/>
        <pt x="49" y="1348" on="1"/>
        <pt x="35" y="1342" on="0"/>
        <pt x="35" y="1307" on="1"/>
        <pt x="35" y="1008" on="1"/>
        <pt x="35" y="991" on="0"/>
        <pt x="135" y="992" on="0"/>
        <pt x="135" y="1008" on="1"/>
        <pt x="135" y="1120" on="0"/>
        <pt x="272" y="1266" on="0"/>
        <pt x="358" y="1266" on="1"/>
        <pt x="502" y="1266" on="1"/>
        <pt x="528" y="1266" on="0"/>
        <pt x="528" y="1237" on="1"/>
        <pt x="528" y="203" on="1"/>
        <pt x="528" y="86" on="0"/>
        <pt x="348" y="86" on="1"/>
        <pt x="336" y="86" on="0"/>
        <pt x="334" y="-6" on="0"/>
        <pt x="348" y="-6" on="1"/>
        <pt x="444" y="0" on="0"/>
        <pt x="858" y="0" on="0"/>
        <pt x="944" y="-6" on="1"/>
        <pt x="956" y="-6" on="0"/>
        <pt x="956" y="86" on="0"/>
        <pt x="944" y="86" on="1"/>
        <pt x="772" y="86" on="0"/>
        <pt x="772" y="203" on="1"/>
      </contour>
    </TTGlyph>
    <TTGlyph name="T.alt" xMin="35" yMin="-6" xMax="1583" yMax="1358">
      <contour>
        <pt x="930" y="1237" on="1"/>
        <pt x="930" y="1266" on="0"/>
        <pt x="963" y="1266" on="1"/>
        <pt x="1143" y="1259" on="0"/>
        <pt x="1249" y="1255" on="1"/>
        <pt x="1303" y="1253" on="0"/>
        <pt x="1366" y="1210" on="1"/>
        <pt x="1481" y="1137" on="0"/>
        <pt x="1481" y="1008" on="1"/>
        <pt x="1481" y="991" on="0"/>
        <pt x="1534" y="991" on="1"/>
        <pt x="1581" y="992" on="0"/>
        <pt x="1581" y="1008" on="1"/>
        <pt x="1581" y="1307" on="1"/>
        <pt x="1583" y="1331" on="0"/>
        <pt x="1575" y="1341" on="1"/>
        <pt x="1563" y="1358" on="0"/>
        <pt x="1479" y="1358" on="1"/>
        <pt x="1036" y="1352" on="0"/>
        <pt x="807" y="1352" on="1"/>
        <pt x="575" y="1352" on="0"/>
        <pt x="147" y="1358" on="1"/>
        <pt x="67" y="1358" on="0"/>
        <pt x="49" y="1348" on="1"/>
        <pt x="35" y="1342" on="0"/>
        <pt x="35" y="1307" on="1"/>
        <pt x="35" y="1008" on="1"/>
        <pt x="35" y="991" on="0"/>
        <pt x="88" y="991" on="1"/>
        <pt x="135" y="992" on="0"/>
        <pt x="135" y="1008" on="1"/>
        <pt x="142" y="1120" on="0"/>
        <pt x="244" y="1204" on="1"/>
        <pt x="307" y="1253" on="0"/>
        <pt x="358" y="1255" on="1"/>
        <pt x="464" y="1260" on="0"/>
        <pt x="659" y="1266" on="1"/>
        <pt x="686" y="1266" on="0"/>
        <pt x="686" y="1237" on="1"/>
        <pt x="686" y="203" on="1"/>
        <pt x="686" y="86" on="0"/>
        <pt x="506" y="86" on="1"/>
        <pt x="492" y="86" on="0"/>
        <pt x="492" y="39" on="1"/>
        <pt x="492" y="-6" on="0"/>
        <pt x="506" y="-6" on="1"/>
        <pt x="639" y="0" on="0"/>
        <pt x="811" y="0" on="1"/>
        <pt x="963" y="0" on="0"/>
        <pt x="1102" y="-6" on="1"/>
        <pt x="1114" y="-6" on="0"/>
        <pt x="1114" y="41" on="1"/>
        <pt x="1114" y="86" on="0"/>
        <pt x="1102" y="86" on="1"/>
        <pt x="930" y="86" on="0"/>
        <pt x="930" y="203" on="1"/>
      </contour>
    </TTGlyph>
    <TTGlyph name="Tcaron" xMin="35" yMin="-6" xMax="1268" yMax="1798">
      <component glyphName="T" x="0" y="0" flags="0x0"/>
      <component glyphName="uni030C.case" x="1292" y="0" flags="0x0"/>
    </TTGlyph>
    <TTGlyph name="Thorn" xMin="12" yMin="-520" xMax="1135" yMax="1389">
      <contour>
        <pt x="1135" y="727" on="1"/>
        <pt x="1135" y="860" on="0"/>
        <pt x="1092" y="985" on="1"/>
        <pt x="1024" y="1184" on="0"/>
        <pt x="866" y="1307" on="1"/>
        <pt x="831" y="1329" on="0"/>
        <pt x="788" y="1329" on="1"/>
        <pt x="704" y="1329" on="0"/>
        <pt x="602" y="1245" on="1"/>
        <pt x="483" y="1145" on="0"/>
        <pt x="467" y="1139" on="1"/>
        <pt x="456" y="1135" on="0"/>
        <pt x="446" y="1135" on="1"/>
        <pt x="430" y="1134" on="0"/>
        <pt x="430" y="1157" on="1"/>
        <pt x="436" y="1354" on="1"/>
        <pt x="434" y="1389" on="0"/>
        <pt x="393" y="1389" on="1"/>
        <pt x="372" y="1388" on="0"/>
        <pt x="352" y="1380" on="1"/>
        <pt x="203" y="1321" on="0"/>
        <pt x="27" y="1321" on="1"/>
        <pt x="12" y="1321" on="0"/>
        <pt x="13" y="1229" on="0"/>
        <pt x="27" y="1229" on="1"/>
        <pt x="186" y="1227" on="0"/>
        <pt x="186" y="1092" on="1"/>
        <pt x="186" y="-209" on="1"/>
        <pt x="187" y="-264" on="0"/>
        <pt x="152" y="-309" on="1"/>
        <pt x="129" y="-336" on="0"/>
        <pt x="47" y="-408" on="1"/>
        <pt x="43" y="-412" on="0"/>
        <pt x="43" y="-420" on="1"/>
        <pt x="43" y="-436" on="0"/>
        <pt x="57" y="-459" on="1"/>
        <pt x="94" y="-520" on="0"/>
        <pt x="133" y="-520" on="1"/>
        <pt x="139" y="-520" on="0"/>
        <pt x="145" y="-516" on="1"/>
        <pt x="291" y="-418" on="1"/>
        <pt x="432" y="-316" on="0"/>
        <pt x="432" y="-244" on="1"/>
        <pt x="432" y="-51" on="1"/>
        <pt x="432" y="-18" on="0"/>
        <pt x="469" y="-12" on="1"/>
        <pt x="567" y="2" on="0"/>
        <pt x="659" y="43" on="1"/>
        <pt x="862" y="133" on="0"/>
        <pt x="993" y="317" on="1"/>
        <pt x="1135" y="512" on="0"/>
        <pt x="1135" y="727" on="1"/>
      </contour>
      <contour>
        <pt x="862" y="727" on="1"/>
        <pt x="862" y="522" on="0"/>
        <pt x="780" y="356" on="1"/>
        <pt x="676" y="141" on="0"/>
        <pt x="473" y="84" on="1"/>
        <pt x="465" y="82" on="0"/>
        <pt x="459" y="82" on="1"/>
        <pt x="430" y="82" on="0"/>
        <pt x="430" y="119" on="1"/>
        <pt x="430" y="983" on="1"/>
        <pt x="430" y="1018" on="0"/>
        <pt x="453" y="1030" on="1"/>
        <pt x="524" y="1067" on="0"/>
        <pt x="596" y="1133" on="1"/>
        <pt x="651" y="1182" on="0"/>
        <pt x="657" y="1186" on="1"/>
        <pt x="668" y="1192" on="0"/>
        <pt x="680" y="1192" on="1"/>
        <pt x="691" y="1191" on="0"/>
        <pt x="709" y="1171" on="1"/>
        <pt x="862" y="1010" on="0"/>
        <pt x="862" y="727" on="1"/>
      </contour>
    </TTGlyph>
    <TTGlyph name="Thorn.nordic" xMin="59" yMin="-6" xMax="1180" yMax="1364">
      <contour>
        <pt x="924" y="678" on="1"/>
        <pt x="924" y="610" on="0"/>
        <pt x="903" y="557" on="1"/>
        <pt x="836" y="385" on="0"/>
        <pt x="592" y="385" on="1"/>
        <pt x="549" y="385" on="0"/>
        <pt x="512" y="389" on="1"/>
        <pt x="481" y="393" on="0"/>
        <pt x="481" y="426" on="1"/>
        <pt x="481" y="958" on="1"/>
        <pt x="481" y="969" on="0"/>
        <pt x="485" y="975" on="1"/>
        <pt x="497" y="987" on="0"/>
        <pt x="563" y="987" on="1"/>
        <pt x="744" y="989" on="0"/>
        <pt x="842" y="885" on="1"/>
        <pt x="924" y="799" on="0"/>
        <pt x="924" y="678" on="1"/>
      </contour>
      <contour>
        <pt x="1180" y="678" on="1"/>
        <pt x="1180" y="858" on="0"/>
        <pt x="1022" y="969" on="1"/>
        <pt x="872" y="1071" on="0"/>
        <pt x="659" y="1067" on="1"/>
        <pt x="481" y="1065" on="1"/>
        <pt x="481" y="1153" on="1"/>
        <pt x="479" y="1270" on="0"/>
        <pt x="643" y="1270" on="1"/>
        <pt x="657" y="1270" on="0"/>
        <pt x="657" y="1364" on="0"/>
        <pt x="643" y="1364" on="1"/>
        <pt x="582" y="1358" on="0"/>
        <pt x="137" y="1360" on="0"/>
        <pt x="76" y="1364" on="1"/>
        <pt x="61" y="1364" on="0"/>
        <pt x="62" y="1270" on="0"/>
        <pt x="76" y="1270" on="1"/>
        <pt x="238" y="1270" on="0"/>
        <pt x="238" y="1153" on="1"/>
        <pt x="238" y="203" on="1"/>
        <pt x="238" y="86" on="0"/>
        <pt x="76" y="86" on="1"/>
        <pt x="59" y="86" on="0"/>
        <pt x="62" y="-6" on="0"/>
        <pt x="76" y="-6" on="1"/>
        <pt x="161" y="0" on="0"/>
        <pt x="360" y="0" on="1"/>
        <pt x="533" y="0" on="0"/>
        <pt x="639" y="-6" on="1"/>
        <pt x="651" y="-6" on="0"/>
        <pt x="653" y="41" on="1"/>
        <pt x="653" y="86" on="0"/>
        <pt x="639" y="86" on="1"/>
        <pt x="479" y="86" on="0"/>
        <pt x="481" y="203" on="1"/>
        <pt x="481" y="279" on="1"/>
        <pt x="481" y="311" on="0"/>
        <pt x="516" y="309" on="1"/>
        <pt x="585" y="305" on="0"/>
        <pt x="653" y="305" on="1"/>
        <pt x="869" y="305" on="0"/>
        <pt x="1008" y="387" on="1"/>
        <pt x="1180" y="488" on="0"/>
        <pt x="1180" y="678" on="1"/>
      </contour>
    </TTGlyph>
    <TTGlyph name="U" xMin="53" yMin="-29" xMax="1491" yMax="1364">
      <contour>
        <pt x="1323" y="1153" on="1"/>
        <pt x="1323" y="1270" on="0"/>
        <pt x="1477" y="1270" on="1"/>
        <pt x="1491" y="1270" on="0"/>
        <pt x="1491" y="1364" on="0"/>
        <pt x="1477" y="1364" on="1"/>
        <pt x="1341" y="1358" on="0"/>
        <pt x="1249" y="1358" on="1"/>
        <pt x="1157" y="1360" on="0"/>
        <pt x="1020" y="1364" on="1"/>
        <pt x="1006" y="1364" on="0"/>
        <pt x="1006" y="1270" on="0"/>
        <pt x="1020" y="1270" on="1"/>
        <pt x="1178" y="1270" on="0"/>
        <pt x="1178" y="1153" on="1"/>
        <pt x="1178" y="496" on="1"/>
        <pt x="1177" y="264" on="0"/>
        <pt x="1087" y="172" on="1"/>
        <pt x="983" y="68" on="0"/>
        <pt x="811" y="68" on="1"/>
        <pt x="625" y="68" on="0"/>
        <pt x="535" y="203" on="1"/>
        <pt x="481" y="281" on="0"/>
        <pt x="479" y="406" on="1"/>
        <pt x="469" y="686" on="1"/>
        <pt x="469" y="1153" on="1"/>
        <pt x="467" y="1270" on="0"/>
        <pt x="641" y="1270" on="1"/>
        <pt x="655" y="1270" on="0"/>
        <pt x="655" y="1364" on="0"/>
        <pt x="641" y="1364" on="1"/>
        <pt x="493" y="1358" on="0"/>
        <pt x="348" y="1358" on="1"/>
        <pt x="215" y="1360" on="0"/>
        <pt x="68" y="1364" on="1"/>
        <pt x="53" y="1364" on="0"/>
        <pt x="54" y="1270" on="0"/>
        <pt x="68" y="1270" on="1"/>
        <pt x="223" y="1270" on="0"/>
        <pt x="223" y="1153" on="1"/>
        <pt x="223" y="545" on="1"/>
        <pt x="236" y="307" on="0"/>
        <pt x="287" y="201" on="1"/>
        <pt x="348" y="75" on="0"/>
        <pt x="506" y="14" on="1"/>
        <pt x="616" y="-27" on="0"/>
        <pt x="772" y="-27" on="1"/>
        <pt x="1028" y="-29" on="0"/>
        <pt x="1155" y="90" on="1"/>
        <pt x="1295" y="219" on="0"/>
        <pt x="1311" y="465" on="1"/>
        <pt x="1323" y="605" on="0"/>
        <pt x="1323" y="881" on="1"/>
      </contour>
    </TTGlyph>
    <TTGlyph name="Uacute" xMin="53" yMin="-29" xMax="1491" yMax="1784">
      <component glyphName="U" x="0" y="0" flags="0x0"/>
      <component glyphName="acutecomb.case" x="1400" y="0" flags="0x0"/>
    </TTGlyph>
    <TTGlyph name="Ubreve" xMin="53" yMin="-29" xMax="1491" yMax="1842">
      <component glyphName="U" x="0" y="0" flags="0x0"/>
      <component glyphName="uni0306" x="1257" y="507" flags="0x4"/>
    </TTGlyph>
    <TTGlyph name="Ucircumflex" xMin="53" yMin="-29" xMax="1491" yMax="1799">
      <component glyphName="U" x="0" y="0" flags="0x0"/>
      <component glyphName="uni0302.case" x="1449" y="0" flags="0x0"/>
    </TTGlyph>
    <TTGlyph name="Udieresis" xMin="53" yMin="-29" xMax="1491" yMax="1753">
      <component glyphName="U" x="0" y="0" flags="0x0"/>
      <component glyphName="uni0308.case" x="1417" y="0" flags="0x0"/>
    </TTGlyph>
    <TTGlyph name="Ugrave" xMin="53" yMin="-29" xMax="1491" yMax="1774">
      <component glyphName="U" x="0" y="0" flags="0x0"/>
      <component glyphName="gravecomb.case" x="1260" y="0" flags="0x0"/>
    </TTGlyph>
    <TTGlyph name="Uhungarumlaut" xMin="53" yMin="-29" xMax="1491" yMax="1784">
      <component glyphName="U" x="0" y="0" flags="0x0"/>
      <component glyphName="uni030B.case" x="1363" y="0" flags="0x0"/>
    </TTGlyph>
    <TTGlyph name="Umacron" xMin="53" yMin="-29" xMax="1491" yMax="1661">
      <component glyphName="U" x="0" y="0" flags="0x0"/>
      <component glyphName="uni0304.case" x="1438" y="0" flags="0x0"/>
    </TTGlyph>
    <TTGlyph name="Uogonek" xMin="53" yMin="-488" xMax="1491" yMax="1364">
      <contour>
        <pt x="1323" y="1153" on="1"/>
        <pt x="1323" y="1270" on="0"/>
        <pt x="1477" y="1270" on="1"/>
        <pt x="1491" y="1270" on="0"/>
        <pt x="1491" y="1364" on="0"/>
        <pt x="1477" y="1364" on="1"/>
        <pt x="1390" y="1358" on="0"/>
        <pt x="1247" y="1358" on="1"/>
        <pt x="1104" y="1360" on="0"/>
        <pt x="1020" y="1364" on="1"/>
        <pt x="1006" y="1364" on="0"/>
        <pt x="1006" y="1270" on="0"/>
        <pt x="1020" y="1270" on="1"/>
        <pt x="1178" y="1270" on="0"/>
        <pt x="1178" y="1153" on="1"/>
        <pt x="1178" y="496" on="1"/>
        <pt x="1178" y="266" on="0"/>
        <pt x="983" y="68" on="0"/>
        <pt x="811" y="68" on="1"/>
        <pt x="625" y="68" on="0"/>
        <pt x="469" y="278" on="0"/>
        <pt x="469" y="686" on="1"/>
        <pt x="469" y="1153" on="1"/>
        <pt x="467" y="1270" on="0"/>
        <pt x="641" y="1270" on="1"/>
        <pt x="655" y="1270" on="0"/>
        <pt x="655" y="1364" on="0"/>
        <pt x="641" y="1364" on="1"/>
        <pt x="521" y="1358" on="0"/>
        <pt x="367" y="1358" on="1"/>
        <pt x="215" y="1360" on="0"/>
        <pt x="68" y="1364" on="1"/>
        <pt x="53" y="1364" on="0"/>
        <pt x="54" y="1270" on="0"/>
        <pt x="68" y="1270" on="1"/>
        <pt x="223" y="1270" on="0"/>
        <pt x="223" y="1153" on="1"/>
        <pt x="223" y="545" on="1"/>
        <pt x="223" y="307" on="0"/>
        <pt x="348" y="76" on="0"/>
        <pt x="618" y="-27" on="0"/>
        <pt x="782" y="-27" on="1"/>
        <pt x="594" y="-141" on="0"/>
        <pt x="594" y="-303" on="1"/>
        <pt x="594" y="-385" on="0"/>
        <pt x="690" y="-487" on="0"/>
        <pt x="799" y="-487" on="1"/>
        <pt x="940" y="-488" on="0"/>
        <pt x="1016" y="-375" on="1"/>
        <pt x="1015" y="-342" on="0"/>
        <pt x="995" y="-336" on="1"/>
        <pt x="954" y="-367" on="0"/>
        <pt x="893" y="-367" on="1"/>
        <pt x="770" y="-367" on="0"/>
        <pt x="770" y="-246" on="1"/>
        <pt x="770" y="-80" on="0"/>
        <pt x="1020" y="10" on="1"/>
        <pt x="1100" y="39" on="0"/>
        <pt x="1155" y="90" on="1"/>
        <pt x="1292" y="219" on="0"/>
        <pt x="1323" y="605" on="0"/>
        <pt x="1323" y="881" on="1"/>
      </contour>
    </TTGlyph>
    <TTGlyph name="Uring" xMin="53" yMin="-29" xMax="1491" yMax="1975">
      <component glyphName="U" x="0" y="0" flags="0x0"/>
      <component glyphName="uni030A" x="1257" y="507" flags="0x4"/>
    </TTGlyph>
    <TTGlyph name="Utilde" xMin="53" yMin="-29" xMax="1491" yMax="1764">
      <component glyphName="U" x="0" y="0" flags="0x0"/>
      <component glyphName="tildecomb" x="1290" y="507" flags="0x4"/>
    </TTGlyph>
    <TTGlyph name="V" xMin="16" yMin="-39" xMax="1378" yMax="1364">
      <contour>
        <pt x="1182" y="1186" on="1"/>
        <pt x="1217" y="1270" on="0"/>
        <pt x="1364" y="1270" on="1"/>
        <pt x="1378" y="1270" on="0"/>
        <pt x="1378" y="1364" on="0"/>
        <pt x="1364" y="1364" on="1"/>
        <pt x="1317" y="1358" on="0"/>
        <pt x="1151" y="1358" on="1"/>
        <pt x="991" y="1360" on="0"/>
        <pt x="944" y="1364" on="1"/>
        <pt x="930" y="1364" on="0"/>
        <pt x="930" y="1270" on="0"/>
        <pt x="944" y="1270" on="1"/>
        <pt x="1038" y="1270" on="0"/>
        <pt x="1042" y="1198" on="1"/>
        <pt x="1042" y="1178" on="0"/>
        <pt x="1032" y="1147" on="1"/>
        <pt x="737" y="383" on="1"/>
        <pt x="729" y="358" on="0"/>
        <pt x="713" y="358" on="1"/>
        <pt x="694" y="359" on="0"/>
        <pt x="686" y="379" on="1"/>
        <pt x="406" y="1153" on="1"/>
        <pt x="393" y="1183" on="0"/>
        <pt x="393" y="1206" on="1"/>
        <pt x="393" y="1270" on="0"/>
        <pt x="518" y="1270" on="1"/>
        <pt x="530" y="1270" on="0"/>
        <pt x="530" y="1364" on="0"/>
        <pt x="518" y="1364" on="1"/>
        <pt x="471" y="1358" on="0"/>
        <pt x="262" y="1358" on="1"/>
        <pt x="76" y="1360" on="0"/>
        <pt x="31" y="1364" on="1"/>
        <pt x="16" y="1364" on="0"/>
        <pt x="17" y="1270" on="0"/>
        <pt x="31" y="1270" on="1"/>
        <pt x="131" y="1270" on="0"/>
        <pt x="172" y="1153" on="1"/>
        <pt x="596" y="6" on="1"/>
        <pt x="612" y="-39" on="0"/>
        <pt x="647" y="-39" on="1"/>
        <pt x="678" y="-39" on="0"/>
        <pt x="698" y="6" on="1"/>
      </contour>
    </TTGlyph>
    <TTGlyph name="W" xMin="-8" yMin="-39" xMax="2056" yMax="1364">
      <contour>
        <pt x="1860" y="1186" on="1"/>
        <pt x="1899" y="1272" on="0"/>
        <pt x="2042" y="1270" on="1"/>
        <pt x="2056" y="1270" on="0"/>
        <pt x="2056" y="1364" on="0"/>
        <pt x="2042" y="1364" on="1"/>
        <pt x="1994" y="1358" on="0"/>
        <pt x="1853" y="1358" on="1"/>
        <pt x="1710" y="1360" on="0"/>
        <pt x="1665" y="1364" on="1"/>
        <pt x="1651" y="1364" on="0"/>
        <pt x="1651" y="1270" on="0"/>
        <pt x="1665" y="1270" on="1"/>
        <pt x="1731" y="1270" on="0"/>
        <pt x="1731" y="1221" on="1"/>
        <pt x="1730" y="1192" on="0"/>
        <pt x="1710" y="1147" on="1"/>
        <pt x="1358" y="375" on="1"/>
        <pt x="1351" y="358" on="0"/>
        <pt x="1339" y="358" on="1"/>
        <pt x="1325" y="359" on="0"/>
        <pt x="1317" y="377" on="1"/>
        <pt x="1135" y="774" on="1"/>
        <pt x="1130" y="787" on="0"/>
        <pt x="1130" y="799" on="1"/>
        <pt x="1131" y="813" on="0"/>
        <pt x="1141" y="838" on="1"/>
        <pt x="1298" y="1186" on="1"/>
        <pt x="1338" y="1270" on="0"/>
        <pt x="1483" y="1270" on="1"/>
        <pt x="1497" y="1270" on="0"/>
        <pt x="1497" y="1364" on="0"/>
        <pt x="1483" y="1364" on="1"/>
        <pt x="1433" y="1358" on="0"/>
        <pt x="1298" y="1358" on="1"/>
        <pt x="1171" y="1360" on="0"/>
        <pt x="1122" y="1364" on="1"/>
        <pt x="1110" y="1364" on="0"/>
        <pt x="1108" y="1270" on="0"/>
        <pt x="1122" y="1270" on="1"/>
        <pt x="1176" y="1270" on="0"/>
        <pt x="1176" y="1231" on="1"/>
        <pt x="1178" y="1202" on="0"/>
        <pt x="1151" y="1147" on="1"/>
        <pt x="1081" y="997" on="1"/>
        <pt x="1069" y="973" on="0"/>
        <pt x="1057" y="973" on="1"/>
        <pt x="1046" y="973" on="0"/>
        <pt x="1038" y="991" on="1"/>
        <pt x="965" y="1153" on="1"/>
        <pt x="944" y="1196" on="0"/>
        <pt x="944" y="1229" on="1"/>
        <pt x="944" y="1270" on="0"/>
        <pt x="1014" y="1270" on="1"/>
        <pt x="1028" y="1270" on="0"/>
        <pt x="1028" y="1364" on="0"/>
        <pt x="1014" y="1364" on="1"/>
        <pt x="967" y="1358" on="0"/>
        <pt x="811" y="1358" on="1"/>
        <pt x="649" y="1360" on="0"/>
        <pt x="602" y="1364" on="1"/>
        <pt x="588" y="1364" on="0"/>
        <pt x="588" y="1270" on="0"/>
        <pt x="602" y="1270" on="1"/>
        <pt x="655" y="1269" on="0"/>
        <pt x="684" y="1208" on="1"/>
        <pt x="920" y="686" on="1"/>
        <pt x="926" y="670" on="0"/>
        <pt x="926" y="653" on="0"/>
        <pt x="920" y="639" on="1"/>
        <pt x="799" y="375" on="1"/>
        <pt x="790" y="356" on="0"/>
        <pt x="778" y="356" on="1"/>
        <pt x="764" y="359" on="0"/>
        <pt x="756" y="375" on="1"/>
        <pt x="406" y="1153" on="1"/>
        <pt x="389" y="1184" on="0"/>
        <pt x="385" y="1225" on="1"/>
        <pt x="387" y="1270" on="0"/>
        <pt x="457" y="1270" on="1"/>
        <pt x="471" y="1270" on="0"/>
        <pt x="471" y="1364" on="0"/>
        <pt x="457" y="1364" on="1"/>
        <pt x="407" y="1358" on="0"/>
        <pt x="221" y="1358" on="1"/>
        <pt x="53" y="1360" on="0"/>
        <pt x="6" y="1364" on="1"/>
        <pt x="-8" y="1364" on="0"/>
        <pt x="-8" y="1270" on="0"/>
        <pt x="6" y="1270" on="1"/>
        <pt x="99" y="1270" on="0"/>
        <pt x="150" y="1153" on="1"/>
        <pt x="655" y="25" on="1"/>
        <pt x="684" y="-39" on="0"/>
        <pt x="742" y="-39" on="0"/>
        <pt x="762" y="6" on="1"/>
        <pt x="979" y="479" on="1"/>
        <pt x="987" y="500" on="0"/>
        <pt x="995" y="500" on="1"/>
        <pt x="1002" y="499" on="0"/>
        <pt x="1010" y="481" on="1"/>
        <pt x="1214" y="25" on="1"/>
        <pt x="1245" y="-39" on="0"/>
        <pt x="1272" y="-39" on="1"/>
        <pt x="1300" y="-39" on="0"/>
        <pt x="1323" y="6" on="1"/>
        <pt x="1860" y="1186" on="1"/>
      </contour>
    </TTGlyph>
    <TTGlyph name="Wcircumflex" xMin="-8" yMin="-39" xMax="2056" yMax="1799">
      <component glyphName="W" x="0" y="0" flags="0x0"/>
      <component glyphName="uni0302.case" x="1709" y="0" flags="0x0"/>
    </TTGlyph>
    <TTGlyph name="X" xMin="-45" yMin="-6" xMax="1384" yMax="1364">
      <contour>
        <pt x="805" y="713" on="1"/>
        <pt x="793" y="731" on="0"/>
        <pt x="793" y="745" on="1"/>
        <pt x="795" y="762" on="0"/>
        <pt x="811" y="782" on="1"/>
        <pt x="1063" y="1092" on="1"/>
        <pt x="1114" y="1155" on="0"/>
        <pt x="1147" y="1186" on="1"/>
        <pt x="1239" y="1270" on="0"/>
        <pt x="1356" y="1270" on="1"/>
        <pt x="1370" y="1270" on="0"/>
        <pt x="1370" y="1364" on="0"/>
        <pt x="1356" y="1364" on="1"/>
        <pt x="1307" y="1358" on="0"/>
        <pt x="1135" y="1358" on="1"/>
        <pt x="960" y="1360" on="0"/>
        <pt x="913" y="1364" on="1"/>
        <pt x="899" y="1364" on="0"/>
        <pt x="899" y="1270" on="0"/>
        <pt x="913" y="1270" on="1"/>
        <pt x="995" y="1270" on="0"/>
        <pt x="995" y="1217" on="1"/>
        <pt x="996" y="1190" on="0"/>
        <pt x="961" y="1147" on="1"/>
        <pt x="745" y="879" on="1"/>
        <pt x="735" y="864" on="0"/>
        <pt x="723" y="864" on="1"/>
        <pt x="712" y="865" on="0"/>
        <pt x="702" y="879" on="1"/>
        <pt x="506" y="1153" on="1"/>
        <pt x="477" y="1191" on="0"/>
        <pt x="477" y="1214" on="1"/>
        <pt x="477" y="1270" on="0"/>
        <pt x="602" y="1270" on="1"/>
        <pt x="616" y="1270" on="0"/>
        <pt x="616" y="1364" on="0"/>
        <pt x="602" y="1364" on="1"/>
        <pt x="553" y="1358" on="0"/>
        <pt x="311" y="1358" on="1"/>
        <pt x="67" y="1360" on="0"/>
        <pt x="20" y="1364" on="1"/>
        <pt x="6" y="1364" on="0"/>
        <pt x="6" y="1270" on="0"/>
        <pt x="20" y="1270" on="1"/>
        <pt x="146" y="1270" on="0"/>
        <pt x="199" y="1194" on="1"/>
        <pt x="555" y="694" on="1"/>
        <pt x="567" y="678" on="0"/>
        <pt x="567" y="664" on="1"/>
        <pt x="567" y="647" on="0"/>
        <pt x="555" y="631" on="1"/>
        <pt x="188" y="172" on="1"/>
        <pt x="119" y="86" on="0"/>
        <pt x="-33" y="86" on="1"/>
        <pt x="-45" y="86" on="0"/>
        <pt x="-45" y="-6" on="0"/>
        <pt x="-33" y="-6" on="1"/>
        <pt x="11" y="0" on="0"/>
        <pt x="238" y="0" on="1"/>
        <pt x="391" y="0" on="0"/>
        <pt x="469" y="-6" on="1"/>
        <pt x="481" y="-6" on="0"/>
        <pt x="483" y="86" on="0"/>
        <pt x="469" y="86" on="1"/>
        <pt x="367" y="86" on="0"/>
        <pt x="369" y="156" on="1"/>
        <pt x="370" y="211" on="0"/>
        <pt x="436" y="299" on="1"/>
        <pt x="606" y="526" on="1"/>
        <pt x="619" y="543" on="0"/>
        <pt x="633" y="543" on="1"/>
        <pt x="645" y="540" on="0"/>
        <pt x="655" y="526" on="1"/>
        <pt x="897" y="209" on="1"/>
        <pt x="934" y="162" on="0"/>
        <pt x="934" y="133" on="1"/>
        <pt x="934" y="86" on="0"/>
        <pt x="825" y="86" on="1"/>
        <pt x="811" y="86" on="0"/>
        <pt x="811" y="-6" on="0"/>
        <pt x="825" y="-6" on="1"/>
        <pt x="922" y="0" on="0"/>
        <pt x="1096" y="0" on="1"/>
        <pt x="1288" y="0" on="0"/>
        <pt x="1368" y="-6" on="1"/>
        <pt x="1384" y="-6" on="0"/>
        <pt x="1382" y="86" on="0"/>
        <pt x="1368" y="86" on="1"/>
        <pt x="1233" y="86" on="0"/>
        <pt x="1151" y="203" on="1"/>
      </contour>
    </TTGlyph>
    <TTGlyph name="Y" xMin="-29" yMin="-6" xMax="1374" yMax="1364">
      <contour>
        <pt x="758" y="500" on="1"/>
        <pt x="758" y="579" on="0"/>
        <pt x="766" y="608" on="1"/>
        <pt x="772" y="631" on="0"/>
        <pt x="811" y="686" on="1"/>
        <pt x="1149" y="1167" on="1"/>
        <pt x="1182" y="1202" on="1"/>
        <pt x="1251" y="1270" on="0"/>
        <pt x="1360" y="1270" on="1"/>
        <pt x="1374" y="1270" on="0"/>
        <pt x="1374" y="1364" on="0"/>
        <pt x="1360" y="1364" on="1"/>
        <pt x="1310" y="1358" on="0"/>
        <pt x="1126" y="1358" on="1"/>
        <pt x="950" y="1360" on="0"/>
        <pt x="905" y="1364" on="1"/>
        <pt x="891" y="1364" on="0"/>
        <pt x="891" y="1270" on="0"/>
        <pt x="905" y="1270" on="1"/>
        <pt x="1012" y="1269" on="0"/>
        <pt x="1012" y="1206" on="1"/>
        <pt x="1010" y="1182" on="0"/>
        <pt x="987" y="1147" on="1"/>
        <pt x="721" y="752" on="1"/>
        <pt x="708" y="731" on="0"/>
        <pt x="698" y="731" on="1"/>
        <pt x="688" y="734" on="0"/>
        <pt x="678" y="750" on="1"/>
        <pt x="424" y="1153" on="1"/>
        <pt x="403" y="1186" on="0"/>
        <pt x="403" y="1217" on="1"/>
        <pt x="403" y="1270" on="0"/>
        <pt x="514" y="1270" on="1"/>
        <pt x="528" y="1270" on="0"/>
        <pt x="528" y="1364" on="0"/>
        <pt x="514" y="1364" on="1"/>
        <pt x="463" y="1358" on="0"/>
        <pt x="248" y="1358" on="1"/>
        <pt x="35" y="1360" on="0"/>
        <pt x="-12" y="1364" on="1"/>
        <pt x="-29" y="1364" on="0"/>
        <pt x="-26" y="1270" on="0"/>
        <pt x="-12" y="1270" on="1"/>
        <pt x="20" y="1269" on="0"/>
        <pt x="49" y="1257" on="1"/>
        <pt x="101" y="1235" on="0"/>
        <pt x="152" y="1153" on="1"/>
        <pt x="449" y="684" on="1"/>
        <pt x="496" y="611" on="0"/>
        <pt x="504" y="588" on="1"/>
        <pt x="514" y="562" on="0"/>
        <pt x="514" y="494" on="1"/>
        <pt x="514" y="203" on="1"/>
        <pt x="514" y="86" on="0"/>
        <pt x="367" y="86" on="1"/>
        <pt x="352" y="86" on="0"/>
        <pt x="353" y="-6" on="0"/>
        <pt x="367" y="-6" on="1"/>
        <pt x="438" y="0" on="0"/>
        <pt x="839" y="0" on="0"/>
        <pt x="905" y="-6" on="1"/>
        <pt x="920" y="-6" on="0"/>
        <pt x="917" y="86" on="0"/>
        <pt x="905" y="86" on="1"/>
        <pt x="758" y="86" on="0"/>
        <pt x="758" y="203" on="1"/>
      </contour>
    </TTGlyph>
    <TTGlyph name="Yacute" xMin="-29" yMin="-6" xMax="1374" yMax="1784">
      <component glyphName="Y" x="0" y="0" flags="0x0"/>
      <component glyphName="acutecomb.case" x="1306" y="0" flags="0x0"/>
    </TTGlyph>
    <TTGlyph name="Ycircumflex" xMin="-29" yMin="-6" xMax="1374" yMax="1799">
      <component glyphName="Y" x="0" y="0" flags="0x0"/>
      <component glyphName="uni0302.case" x="1355" y="0" flags="0x0"/>
    </TTGlyph>
    <TTGlyph name="Ydieresis" xMin="-29" yMin="-6" xMax="1374" yMax="1753">
      <component glyphName="Y" x="0" y="0" flags="0x0"/>
      <component glyphName="uni0308.case" x="1323" y="0" flags="0x0"/>
    </TTGlyph>
    <TTGlyph name="Z" xMin="75" yMin="-29" xMax="1315" yMax="1368">
      <contour>
        <pt x="1270" y="18" on="1"/>
        <pt x="1270" y="157" on="0"/>
        <pt x="1315" y="330" on="1"/>
        <pt x="1315" y="338" on="0"/>
        <pt x="1309" y="344" on="1"/>
        <pt x="1288" y="362" on="0"/>
        <pt x="1253" y="362" on="1"/>
        <pt x="1237" y="360" on="0"/>
        <pt x="1235" y="354" on="1"/>
        <pt x="1225" y="320" on="0"/>
        <pt x="1184" y="250" on="1"/>
        <pt x="1097" y="102" on="0"/>
        <pt x="1044" y="98" on="1"/>
        <pt x="865" y="86" on="0"/>
        <pt x="453" y="86" on="1"/>
        <pt x="420" y="86" on="0"/>
        <pt x="420" y="106" on="1"/>
        <pt x="420" y="115" on="0"/>
        <pt x="426" y="125" on="1"/>
        <pt x="1260" y="1268" on="1"/>
        <pt x="1284" y="1300" on="0"/>
        <pt x="1284" y="1325" on="1"/>
        <pt x="1285" y="1358" on="0"/>
        <pt x="1219" y="1358" on="1"/>
        <pt x="838" y="1352" on="1"/>
        <pt x="330" y="1352" on="1"/>
        <pt x="315" y="1354" on="0"/>
        <pt x="268" y="1360" on="1"/>
        <pt x="211" y="1368" on="0"/>
        <pt x="209" y="1368" on="1"/>
        <pt x="168" y="1368" on="0"/>
        <pt x="168" y="1321" on="1"/>
        <pt x="168" y="1223" on="0"/>
        <pt x="137" y="987" on="1"/>
        <pt x="137" y="975" on="0"/>
        <pt x="162" y="967" on="1"/>
        <pt x="179" y="963" on="0"/>
        <pt x="195" y="963" on="1"/>
        <pt x="219" y="965" on="0"/>
        <pt x="219" y="975" on="1"/>
        <pt x="223" y="999" on="0"/>
        <pt x="254" y="1075" on="1"/>
        <pt x="311" y="1216" on="0"/>
        <pt x="350" y="1247" on="1"/>
        <pt x="379" y="1274" on="0"/>
        <pt x="422" y="1274" on="1"/>
        <pt x="934" y="1274" on="1"/>
        <pt x="975" y="1273" on="0"/>
        <pt x="975" y="1257" on="1"/>
        <pt x="975" y="1249" on="0"/>
        <pt x="965" y="1237" on="1"/>
        <pt x="92" y="96" on="1"/>
        <pt x="76" y="76" on="0"/>
        <pt x="76" y="49" on="1"/>
        <pt x="75" y="0" on="0"/>
        <pt x="145" y="0" on="1"/>
        <pt x="594" y="0" on="1"/>
        <pt x="1045" y="0" on="0"/>
        <pt x="1176" y="-20" on="1"/>
        <pt x="1228" y="-29" on="0"/>
        <pt x="1253" y="-29" on="1"/>
        <pt x="1270" y="-29" on="0"/>
        <pt x="1270" y="18" on="1"/>
      </contour>
    </TTGlyph>
    <TTGlyph name="Zacute" xMin="75" yMin="-29" xMax="1315" yMax="1784">
      <component glyphName="Z" x="0" y="0" flags="0x0"/>
      <component glyphName="acutecomb.case" x="1302" y="0" flags="0x0"/>
    </TTGlyph>
    <TTGlyph name="Zcaron" xMin="75" yMin="-29" xMax="1315" yMax="1798">
      <component glyphName="Z" x="0" y="0" flags="0x0"/>
      <component glyphName="uni030C.case" x="1351" y="0" flags="0x0"/>
    </TTGlyph>
    <TTGlyph name="Zdotaccent" xMin="75" yMin="-29" xMax="1315" yMax="1834">
      <component glyphName="Z" x="0" y="0" flags="0x0"/>
      <component glyphName="uni0307" x="1176" y="507" flags="0x4"/>
    </TTGlyph>
    <TTGlyph name="a" xMin="43" yMin="-25" xMax="870" yMax="871">
      <contour>
        <pt x="866" y="88" on="1"/>
        <pt x="870" y="98" on="0"/>
        <pt x="856" y="113" on="1"/>
        <pt x="837" y="129" on="0"/>
        <pt x="829" y="121" on="1"/>
        <pt x="789" y="84" on="0"/>
        <pt x="758" y="86" on="1"/>
        <pt x="690" y="84" on="0"/>
        <pt x="690" y="199" on="1"/>
        <pt x="690" y="707" on="1"/>
        <pt x="689" y="770" on="0"/>
        <pt x="623" y="813" on="1"/>
        <pt x="541" y="870" on="0"/>
        <pt x="428" y="870" on="1"/>
        <pt x="285" y="871" on="0"/>
        <pt x="164" y="795" on="1"/>
        <pt x="129" y="772" on="0"/>
        <pt x="98" y="729" on="1"/>
        <pt x="43" y="654" on="0"/>
        <pt x="43" y="586" on="1"/>
        <pt x="43" y="508" on="0"/>
        <pt x="133" y="508" on="1"/>
        <pt x="200" y="508" on="0"/>
        <pt x="225" y="596" on="1"/>
        <pt x="229" y="612" on="0"/>
        <pt x="229" y="647" on="1"/>
        <pt x="232" y="709" on="0"/>
        <pt x="240" y="723" on="1"/>
        <pt x="276" y="774" on="0"/>
        <pt x="356" y="774" on="1"/>
        <pt x="461" y="774" on="0"/>
        <pt x="461" y="702" on="1"/>
        <pt x="461" y="512" on="1"/>
        <pt x="461" y="485" on="0"/>
        <pt x="426" y="465" on="1"/>
        <pt x="274" y="393" on="1"/>
        <pt x="63" y="283" on="0"/>
        <pt x="63" y="162" on="1"/>
        <pt x="61" y="104" on="0"/>
        <pt x="88" y="61" on="1"/>
        <pt x="141" y="-23" on="0"/>
        <pt x="266" y="-23" on="1"/>
        <pt x="383" y="-23" on="0"/>
        <pt x="465" y="59" on="1"/>
        <pt x="482" y="76" on="0"/>
        <pt x="494" y="76" on="1"/>
        <pt x="500" y="75" on="0"/>
        <pt x="514" y="57" on="1"/>
        <pt x="584" y="-25" on="0"/>
        <pt x="676" y="-25" on="1"/>
        <pt x="809" y="-25" on="0"/>
        <pt x="866" y="88" on="1"/>
      </contour>
      <contour>
        <pt x="461" y="193" on="1"/>
        <pt x="461" y="89" on="0"/>
        <pt x="365" y="88" on="1"/>
        <pt x="293" y="88" on="0"/>
        <pt x="293" y="205" on="1"/>
        <pt x="293" y="323" on="0"/>
        <pt x="434" y="395" on="1"/>
        <pt x="440" y="397" on="0"/>
        <pt x="446" y="397" on="1"/>
        <pt x="461" y="398" on="0"/>
        <pt x="461" y="375" on="1"/>
        <pt x="461" y="193" on="1"/>
      </contour>
    </TTGlyph>
    <TTGlyph name="a.sc" xMin="-8" yMin="-6" xMax="1044" yMax="952">
      <contour>
        <pt x="143" y="160" on="1"/>
        <pt x="106" y="70" on="0"/>
        <pt x="6" y="68" on="1"/>
        <pt x="-6" y="68" on="0"/>
        <pt x="-8" y="-6" on="0"/>
        <pt x="6" y="-6" on="1"/>
        <pt x="68" y="0" on="0"/>
        <pt x="283" y="0" on="0"/>
        <pt x="344" y="-6" on="1"/>
        <pt x="358" y="-6" on="0"/>
        <pt x="358" y="68" on="0"/>
        <pt x="344" y="68" on="1"/>
        <pt x="225" y="67" on="0"/>
        <pt x="254" y="145" on="1"/>
        <pt x="319" y="322" on="1"/>
        <pt x="328" y="340" on="0"/>
        <pt x="342" y="340" on="1"/>
        <pt x="592" y="340" on="1"/>
        <pt x="612" y="340" on="0"/>
        <pt x="616" y="324" on="1"/>
        <pt x="674" y="147" on="1"/>
        <pt x="700" y="68" on="0"/>
        <pt x="618" y="68" on="1"/>
        <pt x="602" y="68" on="0"/>
        <pt x="604" y="-6" on="0"/>
        <pt x="618" y="-6" on="1"/>
        <pt x="680" y="0" on="0"/>
        <pt x="969" y="0" on="0"/>
        <pt x="1030" y="-6" on="1"/>
        <pt x="1044" y="-6" on="0"/>
        <pt x="1040" y="68" on="0"/>
        <pt x="1030" y="68" on="1"/>
        <pt x="922" y="67" on="0"/>
        <pt x="893" y="147" on="1"/>
        <pt x="659" y="807" on="1"/>
        <pt x="647" y="841" on="0"/>
        <pt x="627" y="911" on="1"/>
        <pt x="616" y="952" on="0"/>
        <pt x="575" y="952" on="0"/>
        <pt x="451" y="895" on="0"/>
        <pt x="376" y="877" on="0"/>
        <pt x="401" y="852" on="1"/>
        <pt x="408" y="846" on="0"/>
        <pt x="408" y="840" on="1"/>
        <pt x="407" y="836" on="0"/>
        <pt x="399" y="813" on="1"/>
        <pt x="143" y="160" on="1"/>
      </contour>
      <contour>
        <pt x="461" y="698" on="1"/>
        <pt x="467" y="713" on="0"/>
        <pt x="492" y="712" on="0"/>
        <pt x="496" y="698" on="1"/>
        <pt x="573" y="457" on="1"/>
        <pt x="582" y="432" on="0"/>
        <pt x="555" y="432" on="1"/>
        <pt x="385" y="432" on="1"/>
        <pt x="365" y="432" on="0"/>
        <pt x="371" y="455" on="1"/>
      </contour>
    </TTGlyph>
    <TTGlyph name="aacute" xMin="43" yMin="-25" xMax="870" yMax="1434">
      <component glyphName="a" x="0" y="0" flags="0x0"/>
      <component glyphName="acutecomb" x="826" y="0" flags="0x0"/>
    </TTGlyph>
    <TTGlyph name="aacute.sc" xMin="-8" yMin="-6" xMax="1044" yMax="1333">
      <component glyphName="a.sc" x="0" y="0" flags="0x0"/>
      <component glyphName="acutecomb.sc" x="827" y="0" flags="0x0"/>
    </TTGlyph>
    <TTGlyph name="abreve" xMin="43" yMin="-25" xMax="870" yMax="1335">
      <component glyphName="a" x="0" y="0" flags="0x0"/>
      <component glyphName="uni0306" x="880" y="0" flags="0x0"/>
    </TTGlyph>
    <TTGlyph name="acircumflex" xMin="43" yMin="-25" xMax="870" yMax="1506">
      <component glyphName="a" x="0" y="0" flags="0x0"/>
      <component glyphName="uni0302" x="900" y="0" flags="0x0"/>
    </TTGlyph>
    <TTGlyph name="acircumflex.sc" xMin="-8" yMin="-6" xMax="1044" yMax="1360">
      <component glyphName="a.sc" x="0" y="0" flags="0x0"/>
      <component glyphName="uni0302.sc" x="918" y="0" flags="0x0"/>
    </TTGlyph>
    <TTGlyph name="acute" xMin="143" yMin="1020" xMax="434" yMax="1434">
      <contour>
        <pt x="186" y="1020" on="1"/>
        <pt x="223" y="1020" on="0"/>
        <pt x="254" y="1069" on="1"/>
        <pt x="430" y="1331" on="1"/>
        <pt x="432" y="1337" on="0"/>
        <pt x="432" y="1343" on="1"/>
        <pt x="434" y="1364" on="0"/>
        <pt x="395" y="1391" on="1"/>
        <pt x="332" y="1434" on="0"/>
        <pt x="299" y="1434" on="1"/>
        <pt x="278" y="1431" on="0"/>
        <pt x="272" y="1415" on="1"/>
        <pt x="152" y="1114" on="1"/>
        <pt x="143" y="1093" on="0"/>
        <pt x="143" y="1073" on="1"/>
        <pt x="143" y="1020" on="0"/>
        <pt x="186" y="1020" on="1"/>
      </contour>
    </TTGlyph>
    <TTGlyph name="acutecomb" xMin="-543" yMin="1020" xMax="-252" yMax="1434">
      <contour>
        <pt x="-500" y="1020" on="1"/>
        <pt x="-463" y="1020" on="0"/>
        <pt x="-430" y="1069" on="1"/>
        <pt x="-256" y="1331" on="1"/>
        <pt x="-252" y="1337" on="0"/>
        <pt x="-252" y="1343" on="1"/>
        <pt x="-252" y="1364" on="0"/>
        <pt x="-291" y="1391" on="1"/>
        <pt x="-352" y="1434" on="0"/>
        <pt x="-385" y="1434" on="1"/>
        <pt x="-408" y="1431" on="0"/>
        <pt x="-414" y="1415" on="1"/>
        <pt x="-532" y="1114" on="1"/>
        <pt x="-541" y="1093" on="0"/>
        <pt x="-541" y="1073" on="1"/>
        <pt x="-543" y="1020" on="0"/>
        <pt x="-500" y="1020" on="1"/>
      </contour>
    </TTGlyph>
    <TTGlyph name="acutecomb.case" xMin="-795" yMin="1475" xMax="-394" yMax="1784">
      <contour>
        <pt x="-394" y="1649" on="1"/>
        <pt x="-394" y="1665" on="0"/>
        <pt x="-420" y="1722" on="0"/>
        <pt x="-449" y="1769" on="0"/>
        <pt x="-474" y="1784" on="0"/>
        <pt x="-482" y="1784" on="1"/>
        <pt x="-490" y="1784" on="0"/>
        <pt x="-496" y="1778" on="1"/>
        <pt x="-756" y="1579" on="1"/>
        <pt x="-773" y="1567" on="0"/>
        <pt x="-795" y="1530" on="0"/>
        <pt x="-795" y="1516" on="1"/>
        <pt x="-795" y="1497" on="0"/>
        <pt x="-762" y="1475" on="0"/>
        <pt x="-744" y="1475" on="1"/>
        <pt x="-724" y="1475" on="0"/>
        <pt x="-693" y="1489" on="1"/>
        <pt x="-404" y="1624" on="1"/>
        <pt x="-400" y="1626" on="0"/>
        <pt x="-394" y="1639" on="0"/>
        <pt x="-394" y="1649" on="1"/>
      </contour>
    </TTGlyph>
    <TTGlyph name="acutecomb.sc" xMin="-449" yMin="1020" xMax="-156" yMax="1333">
      <contour>
        <pt x="-412" y="1020" on="1"/>
        <pt x="-387" y="1020" on="0"/>
        <pt x="-356" y="1047" on="1"/>
        <pt x="-162" y="1225" on="1"/>
        <pt x="-156" y="1229" on="0"/>
        <pt x="-156" y="1243" on="1"/>
        <pt x="-156" y="1253" on="0"/>
        <pt x="-227" y="1333" on="0"/>
        <pt x="-258" y="1333" on="1"/>
        <pt x="-266" y="1331" on="0"/>
        <pt x="-272" y="1323" on="1"/>
        <pt x="-430" y="1104" on="1"/>
        <pt x="-446" y="1082" on="0"/>
        <pt x="-446" y="1055" on="1"/>
        <pt x="-449" y="1020" on="0"/>
        <pt x="-412" y="1020" on="1"/>
      </contour>
    </TTGlyph>
    <TTGlyph name="adieresis" xMin="43" yMin="-25" xMax="870" yMax="1300">
      <component glyphName="a" x="0" y="0" flags="0x0"/>
      <component glyphName="uni0308" x="862" y="0" flags="0x0"/>
    </TTGlyph>
    <TTGlyph name="adieresis.sc" xMin="-8" yMin="-6" xMax="1044" yMax="1323">
      <component glyphName="a.sc" x="0" y="0" flags="0x0"/>
      <component glyphName="uni0308.sc" x="969" y="0" flags="0x0"/>
    </TTGlyph>
    <TTGlyph name="ae" xMin="59" yMin="-23" xMax="1184" yMax="870">
      <contour>
        <pt x="1176" y="154" on="1"/>
        <pt x="1184" y="164" on="0"/>
        <pt x="1157" y="190" on="1"/>
        <pt x="1130" y="211" on="0"/>
        <pt x="1116" y="199" on="1"/>
        <pt x="1108" y="188" on="0"/>
        <pt x="1094" y="180" on="1"/>
        <pt x="1014" y="133" on="0"/>
        <pt x="934" y="133" on="1"/>
        <pt x="813" y="133" on="0"/>
        <pt x="739" y="250" on="1"/>
        <pt x="686" y="336" on="0"/>
        <pt x="686" y="424" on="1"/>
        <pt x="686" y="488" on="0"/>
        <pt x="727" y="504" on="1"/>
        <pt x="1114" y="666" on="1"/>
        <pt x="1171" y="690" on="0"/>
        <pt x="1171" y="717" on="1"/>
        <pt x="1172" y="741" on="0"/>
        <pt x="1133" y="782" on="1"/>
        <pt x="1038" y="870" on="0"/>
        <pt x="856" y="870" on="1"/>
        <pt x="754" y="870" on="0"/>
        <pt x="676" y="809" on="1"/>
        <pt x="653" y="788" on="0"/>
        <pt x="629" y="788" on="0"/>
        <pt x="602" y="813" on="1"/>
        <pt x="530" y="870" on="0"/>
        <pt x="426" y="870" on="1"/>
        <pt x="313" y="870" on="0"/>
        <pt x="176" y="788" on="1"/>
        <pt x="146" y="768" on="0"/>
        <pt x="115" y="727" on="1"/>
        <pt x="59" y="654" on="0"/>
        <pt x="59" y="588" on="1"/>
        <pt x="59" y="508" on="0"/>
        <pt x="147" y="508" on="1"/>
        <pt x="182" y="508" on="0"/>
        <pt x="207" y="526" on="1"/>
        <pt x="252" y="561" on="0"/>
        <pt x="252" y="637" on="1"/>
        <pt x="252" y="678" on="1"/>
        <pt x="252" y="715" on="0"/>
        <pt x="260" y="727" on="1"/>
        <pt x="305" y="788" on="0"/>
        <pt x="371" y="788" on="1"/>
        <pt x="469" y="789" on="0"/>
        <pt x="469" y="678" on="1"/>
        <pt x="469" y="530" on="1"/>
        <pt x="469" y="485" on="0"/>
        <pt x="434" y="471" on="1"/>
        <pt x="227" y="381" on="1"/>
        <pt x="68" y="316" on="0"/>
        <pt x="68" y="162" on="1"/>
        <pt x="67" y="115" on="0"/>
        <pt x="90" y="78" on="1"/>
        <pt x="145" y="-10" on="0"/>
        <pt x="297" y="-10" on="1"/>
        <pt x="352" y="-10" on="0"/>
        <pt x="393" y="4" on="1"/>
        <pt x="451" y="24" on="0"/>
        <pt x="510" y="92" on="1"/>
        <pt x="535" y="115" on="0"/>
        <pt x="543" y="115" on="1"/>
        <pt x="553" y="115" on="0"/>
        <pt x="569" y="92" on="1"/>
        <pt x="589" y="65" on="0"/>
        <pt x="618" y="45" on="1"/>
        <pt x="711" y="-23" on="0"/>
        <pt x="815" y="-23" on="1"/>
        <pt x="1029" y="-22" on="0"/>
        <pt x="1176" y="154" on="1"/>
      </contour>
      <contour>
        <pt x="975" y="713" on="1"/>
        <pt x="975" y="695" on="0"/>
        <pt x="958" y="688" on="1"/>
        <pt x="715" y="590" on="1"/>
        <pt x="700" y="590" on="0"/>
        <pt x="700" y="606" on="1"/>
        <pt x="703" y="654" on="0"/>
        <pt x="748" y="713" on="1"/>
        <pt x="807" y="788" on="0"/>
        <pt x="866" y="788" on="1"/>
        <pt x="903" y="788" on="0"/>
        <pt x="936" y="768" on="1"/>
        <pt x="975" y="742" on="0"/>
        <pt x="975" y="713" on="1"/>
      </contour>
      <contour>
        <pt x="494" y="225" on="1"/>
        <pt x="498" y="215" on="0"/>
        <pt x="498" y="205" on="1"/>
        <pt x="497" y="185" on="0"/>
        <pt x="479" y="160" on="1"/>
        <pt x="426" y="92" on="0"/>
        <pt x="381" y="92" on="1"/>
        <pt x="360" y="92" on="0"/>
        <pt x="342" y="102" on="1"/>
        <pt x="297" y="129" on="0"/>
        <pt x="297" y="190" on="1"/>
        <pt x="297" y="305" on="0"/>
        <pt x="436" y="383" on="1"/>
        <pt x="447" y="389" on="0"/>
        <pt x="455" y="389" on="1"/>
        <pt x="467" y="390" on="0"/>
        <pt x="469" y="367" on="1"/>
        <pt x="480" y="264" on="0"/>
        <pt x="494" y="225" on="1"/>
      </contour>
    </TTGlyph>
    <TTGlyph name="ae.sc" xMin="-74" yMin="-6" xMax="1278" yMax="932">
      <contour>
        <pt x="1237" y="897" on="1"/>
        <pt x="1237" y="920" on="0"/>
        <pt x="1210" y="932" on="0"/>
        <pt x="1130" y="932" on="1"/>
        <pt x="1079" y="932" on="0"/>
        <pt x="842" y="928" on="0"/>
        <pt x="662" y="928" on="1"/>
        <pt x="526" y="928" on="0"/>
        <pt x="403" y="932" on="1"/>
        <pt x="385" y="932" on="0"/>
        <pt x="387" y="858" on="0"/>
        <pt x="403" y="858" on="1"/>
        <pt x="483" y="858" on="0"/>
        <pt x="483" y="838" on="1"/>
        <pt x="483" y="827" on="0"/>
        <pt x="473" y="809" on="1"/>
        <pt x="86" y="154" on="1"/>
        <pt x="61" y="115" on="0"/>
        <pt x="-6" y="68" on="0"/>
        <pt x="-57" y="68" on="1"/>
        <pt x="-74" y="68" on="0"/>
        <pt x="-73" y="-6" on="0"/>
        <pt x="-57" y="-6" on="1"/>
        <pt x="4" y="0" on="0"/>
        <pt x="213" y="0" on="0"/>
        <pt x="274" y="-6" on="1"/>
        <pt x="291" y="-6" on="0"/>
        <pt x="290" y="68" on="0"/>
        <pt x="274" y="68" on="1"/>
        <pt x="217" y="68" on="0"/>
        <pt x="190" y="82" on="1"/>
        <pt x="161" y="94" on="0"/>
        <pt x="186" y="137" on="1"/>
        <pt x="328" y="377" on="1"/>
        <pt x="336" y="391" on="0"/>
        <pt x="352" y="391" on="1"/>
        <pt x="575" y="391" on="1"/>
        <pt x="590" y="391" on="0"/>
        <pt x="590" y="373" on="1"/>
        <pt x="590" y="147" on="1"/>
        <pt x="590" y="68" on="0"/>
        <pt x="479" y="68" on="1"/>
        <pt x="465" y="68" on="0"/>
        <pt x="465" y="-6" on="0"/>
        <pt x="479" y="-6" on="1"/>
        <pt x="586" y="0" on="0"/>
        <pt x="666" y="0" on="1"/>
        <pt x="762" y="0" on="0"/>
        <pt x="1149" y="-6" on="0"/>
        <pt x="1198" y="-6" on="1"/>
        <pt x="1252" y="-6" on="0"/>
        <pt x="1266" y="0" on="1"/>
        <pt x="1278" y="8" on="0"/>
        <pt x="1278" y="39" on="1"/>
        <pt x="1278" y="236" on="1"/>
        <pt x="1278" y="248" on="0"/>
        <pt x="1176" y="248" on="0"/>
        <pt x="1176" y="236" on="1"/>
        <pt x="1176" y="98" on="0"/>
        <pt x="1047" y="94" on="1"/>
        <pt x="950" y="90" on="1"/>
        <pt x="899" y="90" on="0"/>
        <pt x="817" y="139" on="0"/>
        <pt x="817" y="184" on="1"/>
        <pt x="817" y="371" on="1"/>
        <pt x="818" y="391" on="0"/>
        <pt x="838" y="391" on="1"/>
        <pt x="940" y="391" on="1"/>
        <pt x="989" y="391" on="0"/>
        <pt x="989" y="330" on="1"/>
        <pt x="989" y="287" on="1"/>
        <pt x="989" y="270" on="0"/>
        <pt x="1069" y="271" on="0"/>
        <pt x="1069" y="287" on="1"/>
        <pt x="1067" y="311" on="0"/>
        <pt x="1067" y="442" on="1"/>
        <pt x="1065" y="577" on="0"/>
        <pt x="1069" y="602" on="1"/>
        <pt x="1069" y="618" on="0"/>
        <pt x="989" y="618" on="0"/>
        <pt x="989" y="602" on="1"/>
        <pt x="989" y="549" on="1"/>
        <pt x="989" y="487" on="0"/>
        <pt x="940" y="487" on="1"/>
        <pt x="838" y="487" on="1"/>
        <pt x="817" y="490" on="0"/>
        <pt x="817" y="510" on="1"/>
        <pt x="817" y="809" on="1"/>
        <pt x="818" y="836" on="0"/>
        <pt x="836" y="836" on="1"/>
        <pt x="979" y="827" on="1"/>
        <pt x="1034" y="826" on="0"/>
        <pt x="1083" y="795" on="1"/>
        <pt x="1133" y="764" on="0"/>
        <pt x="1133" y="686" on="1"/>
        <pt x="1133" y="674" on="0"/>
        <pt x="1237" y="674" on="0"/>
        <pt x="1237" y="686" on="1"/>
      </contour>
      <contour>
        <pt x="561" y="772" on="1"/>
        <pt x="571" y="791" on="0"/>
        <pt x="590" y="784" on="0"/>
        <pt x="590" y="772" on="1"/>
        <pt x="590" y="508" on="1"/>
        <pt x="589" y="487" on="0"/>
        <pt x="569" y="487" on="1"/>
        <pt x="414" y="487" on="1"/>
        <pt x="408" y="487" on="0"/>
        <pt x="399" y="500" on="0"/>
        <pt x="403" y="508" on="1"/>
      </contour>
    </TTGlyph>
    <TTGlyph name="aeacute" xMin="59" yMin="-23" xMax="1184" yMax="1434">
      <component glyphName="ae" x="0" y="0" flags="0x0"/>
      <component glyphName="acutecomb" x="1015" y="0" flags="0x0"/>
    </TTGlyph>
    <TTGlyph name="agrave" xMin="43" yMin="-25" xMax="870" yMax="1420">
      <component glyphName="a" x="0" y="0" flags="0x0"/>
      <component glyphName="gravecomb" x="963" y="0" flags="0x0"/>
    </TTGlyph>
    <TTGlyph name="agrave.sc" xMin="-8" yMin="-6" xMax="1044" yMax="1327">
      <component glyphName="a.sc" x="0" y="0" flags="0x0"/>
      <component glyphName="gravecomb.sc" x="790" y="0" flags="0x0"/>
    </TTGlyph>
    <TTGlyph name="amacron" xMin="43" yMin="-25" xMax="870" yMax="1189">
      <component glyphName="a" x="0" y="0" flags="0x0"/>
      <component glyphName="uni0304" x="869" y="0" flags="0x0"/>
    </TTGlyph>
    <TTGlyph name="amacron.sc" xMin="-8" yMin="-6" xMax="1044" yMax="1261">
      <component glyphName="a.sc" x="0" y="0" flags="0x0"/>
      <component glyphName="uni0304" x="966" y="72" flags="0x4"/>
    </TTGlyph>
    <TTGlyph name="ampersand" xMin="39" yMin="-29" xMax="1710" yMax="1372">
      <contour>
        <pt x="1694" y="193" on="1"/>
        <pt x="1680" y="205" on="0"/>
        <pt x="1667" y="205" on="1"/>
        <pt x="1661" y="205" on="0"/>
        <pt x="1657" y="201" on="1"/>
        <pt x="1591" y="135" on="0"/>
        <pt x="1460" y="135" on="1"/>
        <pt x="1278" y="135" on="0"/>
        <pt x="1112" y="383" on="1"/>
        <pt x="1196" y="491" on="0"/>
        <pt x="1272" y="606" on="1"/>
        <pt x="1336" y="705" on="0"/>
        <pt x="1395" y="760" on="1"/>
        <pt x="1469" y="819" on="0"/>
        <pt x="1608" y="819" on="1"/>
        <pt x="1622" y="819" on="0"/>
        <pt x="1622" y="920" on="0"/>
        <pt x="1608" y="920" on="1"/>
        <pt x="1554" y="911" on="0"/>
        <pt x="1366" y="911" on="1"/>
        <pt x="1178" y="914" on="0"/>
        <pt x="1094" y="920" on="1"/>
        <pt x="1077" y="920" on="0"/>
        <pt x="1078" y="819" on="0"/>
        <pt x="1094" y="819" on="1"/>
        <pt x="1219" y="819" on="0"/>
        <pt x="1219" y="760" on="1"/>
        <pt x="1219" y="715" on="0"/>
        <pt x="1051" y="477" on="1"/>
        <pt x="887" y="711" on="0"/>
        <pt x="690" y="850" on="1"/>
        <pt x="870" y="957" on="0"/>
        <pt x="870" y="1096" on="1"/>
        <pt x="868" y="1190" on="0"/>
        <pt x="821" y="1249" on="1"/>
        <pt x="725" y="1372" on="0"/>
        <pt x="557" y="1372" on="1"/>
        <pt x="428" y="1372" on="0"/>
        <pt x="326" y="1286" on="1"/>
        <pt x="221" y="1198" on="0"/>
        <pt x="221" y="1063" on="1"/>
        <pt x="221" y="912" on="0"/>
        <pt x="385" y="793" on="1"/>
        <pt x="41" y="615" on="0"/>
        <pt x="39" y="373" on="1"/>
        <pt x="39" y="238" on="0"/>
        <pt x="129" y="123" on="1"/>
        <pt x="250" y="-29" on="0"/>
        <pt x="496" y="-29" on="1"/>
        <pt x="733" y="-26" on="0"/>
        <pt x="958" y="199" on="1"/>
        <pt x="1120" y="-29" on="0"/>
        <pt x="1323" y="-29" on="1"/>
        <pt x="1385" y="-28" on="0"/>
        <pt x="1444" y="-14" on="1"/>
        <pt x="1610" y="27" on="0"/>
        <pt x="1706" y="154" on="1"/>
        <pt x="1708" y="158" on="0"/>
        <pt x="1708" y="164" on="1"/>
        <pt x="1710" y="177" on="0"/>
        <pt x="1694" y="193" on="1"/>
      </contour>
      <contour>
        <pt x="676" y="1102" on="1"/>
        <pt x="676" y="985" on="0"/>
        <pt x="596" y="907" on="1"/>
        <pt x="432" y="1010" on="0"/>
        <pt x="432" y="1110" on="1"/>
        <pt x="432" y="1274" on="0"/>
        <pt x="551" y="1274" on="1"/>
        <pt x="676" y="1274" on="0"/>
        <pt x="676" y="1102" on="1"/>
      </contour>
      <contour>
        <pt x="903" y="279" on="1"/>
        <pt x="733" y="91" on="0"/>
        <pt x="580" y="90" on="1"/>
        <pt x="434" y="90" on="0"/>
        <pt x="344" y="184" on="1"/>
        <pt x="258" y="277" on="0"/>
        <pt x="258" y="414" on="1"/>
        <pt x="258" y="608" on="0"/>
        <pt x="471" y="735" on="1"/>
        <pt x="706" y="576" on="0"/>
        <pt x="903" y="279" on="1"/>
      </contour>
    </TTGlyph>
    <TTGlyph name="ampersand.sc" xMin="88" yMin="-23" xMax="1247" yMax="930">
      <contour>
        <pt x="88" y="250" on="1"/>
        <pt x="88" y="148" on="0"/>
        <pt x="276" y="-23" on="0"/>
        <pt x="426" y="-23" on="1"/>
        <pt x="592" y="-22" on="0"/>
        <pt x="731" y="121" on="1"/>
        <pt x="840" y="-23" on="0"/>
        <pt x="981" y="-23" on="1"/>
        <pt x="1147" y="-23" on="0"/>
        <pt x="1239" y="98" on="1"/>
        <pt x="1247" y="109" on="0"/>
        <pt x="1208" y="145" on="0"/>
        <pt x="1200" y="137" on="1"/>
        <pt x="1161" y="100" on="0"/>
        <pt x="1063" y="100" on="1"/>
        <pt x="948" y="100" on="0"/>
        <pt x="850" y="262" on="1"/>
        <pt x="895" y="319" on="0"/>
        <pt x="981" y="436" on="0"/>
        <pt x="1024" y="496" on="0"/>
        <pt x="1108" y="541" on="0"/>
        <pt x="1171" y="541" on="1"/>
        <pt x="1182" y="541" on="0"/>
        <pt x="1181" y="616" on="0"/>
        <pt x="1171" y="616" on="1"/>
        <pt x="1143" y="612" on="0"/>
        <pt x="852" y="612" on="0"/>
        <pt x="827" y="616" on="1"/>
        <pt x="815" y="616" on="0"/>
        <pt x="817" y="541" on="0"/>
        <pt x="827" y="541" on="1"/>
        <pt x="936" y="541" on="0"/>
        <pt x="842" y="391" on="0"/>
        <pt x="795" y="342" on="1"/>
        <pt x="714" y="456" on="0"/>
        <pt x="571" y="569" on="1"/>
        <pt x="625" y="594" on="0"/>
        <pt x="717" y="676" on="0"/>
        <pt x="717" y="733" on="1"/>
        <pt x="717" y="827" on="0"/>
        <pt x="569" y="930" on="0"/>
        <pt x="469" y="930" on="1"/>
        <pt x="369" y="930" on="0"/>
        <pt x="201" y="809" on="0"/>
        <pt x="201" y="711" on="1"/>
        <pt x="200" y="619" on="0"/>
        <pt x="319" y="537" on="1"/>
        <pt x="207" y="492" on="0"/>
        <pt x="88" y="356" on="0"/>
        <pt x="88" y="250" on="1"/>
      </contour>
      <contour>
        <pt x="530" y="737" on="1"/>
        <pt x="530" y="680" on="0"/>
        <pt x="496" y="623" on="1"/>
        <pt x="397" y="675" on="0"/>
        <pt x="397" y="743" on="1"/>
        <pt x="397" y="786" on="0"/>
        <pt x="434" y="831" on="0"/>
        <pt x="463" y="831" on="1"/>
        <pt x="498" y="831" on="0"/>
        <pt x="530" y="784" on="0"/>
        <pt x="530" y="737" on="1"/>
      </contour>
      <contour>
        <pt x="317" y="276" on="1"/>
        <pt x="317" y="403" on="0"/>
        <pt x="414" y="477" on="1"/>
        <pt x="492" y="426" on="0"/>
        <pt x="631" y="276" on="0"/>
        <pt x="682" y="188" on="1"/>
        <pt x="631" y="137" on="0"/>
        <pt x="526" y="100" on="0"/>
        <pt x="483" y="100" on="1"/>
        <pt x="403" y="100" on="0"/>
        <pt x="317" y="208" on="0"/>
        <pt x="317" y="276" on="1"/>
      </contour>
    </TTGlyph>
    <TTGlyph name="angleleft" xMin="72" yMin="-377" xMax="657" yMax="1421">
      <contour>
        <pt x="217" y="522" on="1"/>
        <pt x="657" y="1421" on="1"/>
        <pt x="512" y="1421" on="1"/>
        <pt x="72" y="522" on="1"/>
        <pt x="512" y="-377" on="1"/>
        <pt x="657" y="-377" on="1"/>
      </contour>
    </TTGlyph>
    <TTGlyph name="angleright" xMin="25" yMin="-377" xMax="608" yMax="1421">
      <contour>
        <pt x="170" y="1421" on="1"/>
        <pt x="25" y="1421" on="1"/>
        <pt x="463" y="522" on="1"/>
        <pt x="25" y="-377" on="1"/>
        <pt x="170" y="-377" on="1"/>
        <pt x="608" y="522" on="1"/>
      </contour>
    </TTGlyph>
    <TTGlyph name="aogonek" xMin="43" yMin="-488" xMax="870" yMax="871">
      <contour>
        <pt x="461" y="193" on="1"/>
        <pt x="461" y="89" on="0"/>
        <pt x="365" y="88" on="1"/>
        <pt x="293" y="88" on="0"/>
        <pt x="293" y="205" on="1"/>
        <pt x="293" y="323" on="0"/>
        <pt x="434" y="395" on="1"/>
        <pt x="440" y="397" on="0"/>
        <pt x="446" y="397" on="1"/>
        <pt x="461" y="398" on="0"/>
        <pt x="461" y="375" on="1"/>
        <pt x="461" y="193" on="1"/>
      </contour>
      <contour>
        <pt x="580" y="0" on="1"/>
        <pt x="398" y="-162" on="0"/>
        <pt x="397" y="-303" on="1"/>
        <pt x="397" y="-487" on="0"/>
        <pt x="602" y="-487" on="1"/>
        <pt x="743" y="-488" on="0"/>
        <pt x="819" y="-375" on="1"/>
        <pt x="821" y="-342" on="0"/>
        <pt x="801" y="-336" on="1"/>
        <pt x="757" y="-367" on="0"/>
        <pt x="696" y="-367" on="1"/>
        <pt x="573" y="-367" on="0"/>
        <pt x="573" y="-246" on="1"/>
        <pt x="576" y="-152" on="0"/>
        <pt x="678" y="-25" on="1"/>
        <pt x="809" y="-25" on="0"/>
        <pt x="866" y="88" on="1"/>
        <pt x="870" y="99" on="0"/>
        <pt x="856" y="113" on="1"/>
        <pt x="837" y="129" on="0"/>
        <pt x="829" y="121" on="1"/>
        <pt x="789" y="84" on="0"/>
        <pt x="758" y="86" on="1"/>
        <pt x="690" y="84" on="0"/>
        <pt x="690" y="199" on="1"/>
        <pt x="690" y="707" on="1"/>
        <pt x="689" y="770" on="0"/>
        <pt x="623" y="813" on="1"/>
        <pt x="541" y="870" on="0"/>
        <pt x="428" y="870" on="1"/>
        <pt x="285" y="871" on="0"/>
        <pt x="164" y="795" on="1"/>
        <pt x="129" y="772" on="0"/>
        <pt x="98" y="729" on="1"/>
        <pt x="43" y="654" on="0"/>
        <pt x="43" y="586" on="1"/>
        <pt x="43" y="508" on="0"/>
        <pt x="133" y="508" on="1"/>
        <pt x="200" y="508" on="0"/>
        <pt x="225" y="596" on="1"/>
        <pt x="229" y="612" on="0"/>
        <pt x="229" y="647" on="1"/>
        <pt x="232" y="709" on="0"/>
        <pt x="240" y="723" on="1"/>
        <pt x="276" y="774" on="0"/>
        <pt x="356" y="774" on="1"/>
        <pt x="461" y="774" on="0"/>
        <pt x="461" y="702" on="1"/>
        <pt x="461" y="512" on="1"/>
        <pt x="461" y="485" on="0"/>
        <pt x="426" y="465" on="1"/>
        <pt x="274" y="393" on="1"/>
        <pt x="63" y="283" on="0"/>
        <pt x="63" y="162" on="1"/>
        <pt x="61" y="104" on="0"/>
        <pt x="88" y="61" on="1"/>
        <pt x="141" y="-23" on="0"/>
        <pt x="266" y="-23" on="1"/>
        <pt x="383" y="-23" on="0"/>
        <pt x="465" y="59" on="1"/>
        <pt x="482" y="76" on="0"/>
        <pt x="494" y="76" on="1"/>
        <pt x="500" y="75" on="0"/>
        <pt x="514" y="57" on="1"/>
        <pt x="545" y="20" on="0"/>
        <pt x="580" y="0" on="1"/>
      </contour>
    </TTGlyph>
    <TTGlyph name="aogonek.sc" xMin="-8" yMin="-488" xMax="1044" yMax="952">
      <contour>
        <pt x="461" y="698" on="1"/>
        <pt x="467" y="713" on="0"/>
        <pt x="492" y="712" on="0"/>
        <pt x="496" y="698" on="1"/>
        <pt x="573" y="457" on="1"/>
        <pt x="582" y="432" on="0"/>
        <pt x="555" y="432" on="1"/>
        <pt x="385" y="432" on="1"/>
        <pt x="365" y="432" on="0"/>
        <pt x="371" y="455" on="1"/>
      </contour>
      <contour>
        <pt x="143" y="160" on="1"/>
        <pt x="106" y="70" on="0"/>
        <pt x="6" y="68" on="1"/>
        <pt x="-6" y="68" on="0"/>
        <pt x="-8" y="-6" on="0"/>
        <pt x="6" y="-6" on="1"/>
        <pt x="68" y="0" on="0"/>
        <pt x="283" y="0" on="0"/>
        <pt x="344" y="-6" on="1"/>
        <pt x="358" y="-6" on="0"/>
        <pt x="358" y="68" on="0"/>
        <pt x="344" y="68" on="1"/>
        <pt x="225" y="67" on="0"/>
        <pt x="254" y="145" on="1"/>
        <pt x="319" y="322" on="1"/>
        <pt x="328" y="340" on="0"/>
        <pt x="342" y="340" on="1"/>
        <pt x="592" y="340" on="1"/>
        <pt x="612" y="340" on="0"/>
        <pt x="616" y="324" on="1"/>
        <pt x="674" y="147" on="1"/>
        <pt x="700" y="68" on="0"/>
        <pt x="618" y="68" on="1"/>
        <pt x="602" y="68" on="0"/>
        <pt x="604" y="-6" on="0"/>
        <pt x="618" y="-6" on="1"/>
        <pt x="666" y="0" on="0"/>
        <pt x="766" y="0" on="1"/>
        <pt x="584" y="-160" on="0"/>
        <pt x="584" y="-303" on="1"/>
        <pt x="586" y="-487" on="0"/>
        <pt x="791" y="-487" on="1"/>
        <pt x="932" y="-488" on="0"/>
        <pt x="1008" y="-375" on="1"/>
        <pt x="1007" y="-342" on="0"/>
        <pt x="987" y="-336" on="1"/>
        <pt x="944" y="-367" on="0"/>
        <pt x="883" y="-367" on="1"/>
        <pt x="760" y="-367" on="0"/>
        <pt x="760" y="-246" on="1"/>
        <pt x="762" y="-141" on="0"/>
        <pt x="885" y="0" on="1"/>
        <pt x="983" y="-2" on="0"/>
        <pt x="1030" y="-6" on="1"/>
        <pt x="1044" y="-6" on="0"/>
        <pt x="1040" y="68" on="0"/>
        <pt x="1030" y="68" on="1"/>
        <pt x="922" y="67" on="0"/>
        <pt x="893" y="147" on="1"/>
        <pt x="659" y="807" on="1"/>
        <pt x="647" y="841" on="0"/>
        <pt x="627" y="911" on="1"/>
        <pt x="616" y="952" on="0"/>
        <pt x="575" y="952" on="0"/>
        <pt x="451" y="895" on="0"/>
        <pt x="376" y="877" on="0"/>
        <pt x="401" y="852" on="1"/>
        <pt x="408" y="846" on="0"/>
        <pt x="408" y="840" on="1"/>
        <pt x="407" y="836" on="0"/>
        <pt x="399" y="813" on="1"/>
        <pt x="143" y="160" on="1"/>
      </contour>
    </TTGlyph>
    <TTGlyph name="aring" xMin="43" yMin="-25" xMax="870" yMax="1468">
      <component glyphName="a" x="0" y="0" flags="0x0"/>
      <component glyphName="uni030A" x="880" y="0" flags="0x0"/>
    </TTGlyph>
    <TTGlyph name="aring.sc" xMin="-8" yMin="-6" xMax="1044" yMax="1446">
      <contour>
        <pt x="143" y="160" on="1"/>
        <pt x="106" y="70" on="0"/>
        <pt x="6" y="68" on="1"/>
        <pt x="-6" y="68" on="0"/>
        <pt x="-8" y="-6" on="0"/>
        <pt x="6" y="-6" on="1"/>
        <pt x="68" y="0" on="0"/>
        <pt x="283" y="0" on="0"/>
        <pt x="344" y="-6" on="1"/>
        <pt x="358" y="-6" on="0"/>
        <pt x="358" y="68" on="0"/>
        <pt x="344" y="68" on="1"/>
        <pt x="225" y="67" on="0"/>
        <pt x="254" y="145" on="1"/>
        <pt x="319" y="322" on="1"/>
        <pt x="328" y="340" on="0"/>
        <pt x="342" y="340" on="1"/>
        <pt x="592" y="340" on="1"/>
        <pt x="612" y="340" on="0"/>
        <pt x="616" y="324" on="1"/>
        <pt x="674" y="147" on="1"/>
        <pt x="700" y="68" on="0"/>
        <pt x="618" y="68" on="1"/>
        <pt x="602" y="68" on="0"/>
        <pt x="604" y="-6" on="0"/>
        <pt x="618" y="-6" on="1"/>
        <pt x="680" y="0" on="0"/>
        <pt x="969" y="0" on="0"/>
        <pt x="1030" y="-6" on="1"/>
        <pt x="1044" y="-6" on="0"/>
        <pt x="1040" y="68" on="0"/>
        <pt x="1030" y="68" on="1"/>
        <pt x="922" y="67" on="0"/>
        <pt x="893" y="147" on="1"/>
        <pt x="659" y="807" on="1"/>
        <pt x="647" y="841" on="0"/>
        <pt x="627" y="911" on="1"/>
        <pt x="616" y="952" on="0"/>
        <pt x="575" y="952" on="0"/>
        <pt x="451" y="895" on="0"/>
        <pt x="376" y="877" on="0"/>
        <pt x="401" y="852" on="1"/>
        <pt x="408" y="846" on="0"/>
        <pt x="408" y="840" on="1"/>
        <pt x="407" y="836" on="0"/>
        <pt x="399" y="813" on="1"/>
        <pt x="143" y="160" on="1"/>
      </contour>
      <contour>
        <pt x="461" y="698" on="1"/>
        <pt x="467" y="713" on="0"/>
        <pt x="492" y="712" on="0"/>
        <pt x="496" y="698" on="1"/>
        <pt x="573" y="457" on="1"/>
        <pt x="582" y="432" on="0"/>
        <pt x="555" y="432" on="1"/>
        <pt x="385" y="432" on="1"/>
        <pt x="365" y="432" on="0"/>
        <pt x="371" y="455" on="1"/>
      </contour>
      <contour>
        <pt x="756" y="1245" on="1"/>
        <pt x="756" y="1313" on="0"/>
        <pt x="713" y="1366" on="1"/>
        <pt x="650" y="1446" on="0"/>
        <pt x="535" y="1446" on="1"/>
        <pt x="440" y="1446" on="0"/>
        <pt x="379" y="1391" on="1"/>
        <pt x="311" y="1331" on="0"/>
        <pt x="311" y="1245" on="1"/>
        <pt x="311" y="1175" on="0"/>
        <pt x="356" y="1122" on="1"/>
        <pt x="422" y="1042" on="0"/>
        <pt x="535" y="1042" on="1"/>
        <pt x="613" y="1040" on="0"/>
        <pt x="664" y="1077" on="1"/>
        <pt x="756" y="1145" on="0"/>
        <pt x="756" y="1245" on="1"/>
      </contour>
      <contour>
        <pt x="633" y="1245" on="1"/>
        <pt x="633" y="1210" on="0"/>
        <pt x="621" y="1182" on="1"/>
        <pt x="596" y="1120" on="0"/>
        <pt x="535" y="1120" on="1"/>
        <pt x="506" y="1121" on="0"/>
        <pt x="483" y="1135" on="1"/>
        <pt x="436" y="1167" on="0"/>
        <pt x="436" y="1245" on="1"/>
        <pt x="439" y="1280" on="0"/>
        <pt x="449" y="1307" on="1"/>
        <pt x="478" y="1374" on="0"/>
        <pt x="535" y="1374" on="1"/>
        <pt x="564" y="1372" on="0"/>
        <pt x="584" y="1356" on="1"/>
        <pt x="633" y="1315" on="0"/>
        <pt x="633" y="1245" on="1"/>
      </contour>
    </TTGlyph>
    <TTGlyph name="aringacute" xMin="43" yMin="-25" xMax="870" yMax="1986">
      <component glyphName="a" x="0" y="0" flags="0x0"/>
      <component glyphName="uni030A" x="880" y="0" flags="0x0"/>
      <component glyphName="acutecomb" x="826" y="552" flags="0x4"/>
    </TTGlyph>
    <TTGlyph name="arrowdown" xMin="90" yMin="-428" xMax="934" yMax="1463">
      <contour>
        <pt x="612" y="1430" on="1"/>
        <pt x="612" y="1463" on="0"/>
        <pt x="412" y="1463" on="0"/>
        <pt x="412" y="1430" on="1"/>
        <pt x="412" y="-88" on="1"/>
        <pt x="109" y="147" on="1"/>
        <pt x="90" y="147" on="0"/>
        <pt x="93" y="29" on="0"/>
        <pt x="109" y="6" on="1"/>
        <pt x="414" y="-375" on="1"/>
        <pt x="457" y="-428" on="0"/>
        <pt x="506" y="-428" on="1"/>
        <pt x="557" y="-428" on="0"/>
        <pt x="600" y="-375" on="1"/>
        <pt x="915" y="6" on="1"/>
        <pt x="934" y="29" on="0"/>
        <pt x="933" y="150" on="0"/>
        <pt x="915" y="150" on="1"/>
        <pt x="612" y="-88" on="1"/>
        <pt x="612" y="1430" on="1"/>
      </contour>
    </TTGlyph>
    <TTGlyph name="arrowleft" xMin="80" yMin="94" xMax="1968" yMax="938">
      <contour>
        <pt x="418" y="616" on="1"/>
        <pt x="653" y="920" on="1"/>
        <pt x="653" y="938" on="0"/>
        <pt x="535" y="936" on="0"/>
        <pt x="512" y="920" on="1"/>
        <pt x="133" y="614" on="1"/>
        <pt x="80" y="571" on="0"/>
        <pt x="80" y="522" on="1"/>
        <pt x="80" y="471" on="0"/>
        <pt x="133" y="428" on="1"/>
        <pt x="514" y="113" on="1"/>
        <pt x="537" y="94" on="0"/>
        <pt x="657" y="95" on="0"/>
        <pt x="657" y="113" on="1"/>
        <pt x="418" y="416" on="1"/>
        <pt x="1935" y="416" on="1"/>
        <pt x="1968" y="416" on="0"/>
        <pt x="1968" y="616" on="0"/>
        <pt x="1935" y="616" on="1"/>
      </contour>
    </TTGlyph>
    <TTGlyph name="arrowright" xMin="78" yMin="94" xMax="1968" yMax="938">
      <contour>
        <pt x="1534" y="920" on="1"/>
        <pt x="1511" y="938" on="0"/>
        <pt x="1391" y="938" on="0"/>
        <pt x="1391" y="920" on="1"/>
        <pt x="1628" y="616" on="1"/>
        <pt x="111" y="616" on="1"/>
        <pt x="80" y="616" on="0"/>
        <pt x="78" y="416" on="0"/>
        <pt x="111" y="416" on="1"/>
        <pt x="1628" y="416" on="1"/>
        <pt x="1393" y="113" on="1"/>
        <pt x="1393" y="94" on="0"/>
        <pt x="1452" y="94" on="1"/>
        <pt x="1511" y="97" on="0"/>
        <pt x="1534" y="113" on="1"/>
        <pt x="1915" y="420" on="1"/>
        <pt x="1968" y="463" on="0"/>
        <pt x="1968" y="561" on="0"/>
        <pt x="1915" y="604" on="1"/>
      </contour>
    </TTGlyph>
    <TTGlyph name="arrowup" xMin="90" yMin="-428" xMax="934" yMax="1460">
      <contour>
        <pt x="612" y="1122" on="1"/>
        <pt x="915" y="887" on="1"/>
        <pt x="934" y="887" on="0"/>
        <pt x="931" y="1003" on="0"/>
        <pt x="915" y="1026" on="1"/>
        <pt x="610" y="1407" on="1"/>
        <pt x="567" y="1460" on="0"/>
        <pt x="518" y="1460" on="1"/>
        <pt x="467" y="1460" on="0"/>
        <pt x="424" y="1407" on="1"/>
        <pt x="109" y="1026" on="1"/>
        <pt x="90" y="1004" on="0"/>
        <pt x="91" y="883" on="0"/>
        <pt x="109" y="883" on="1"/>
        <pt x="412" y="1122" on="1"/>
        <pt x="412" y="-395" on="1"/>
        <pt x="412" y="-428" on="0"/>
        <pt x="612" y="-428" on="0"/>
        <pt x="612" y="-395" on="1"/>
      </contour>
    </TTGlyph>
    <TTGlyph name="asciicircum" xMin="49" yMin="535" xMax="1044" yMax="1372">
      <contour>
        <pt x="625" y="1372" on="1"/>
        <pt x="471" y="1372" on="1"/>
        <pt x="49" y="535" on="1"/>
        <pt x="270" y="535" on="1"/>
        <pt x="549" y="1112" on="1"/>
        <pt x="825" y="535" on="1"/>
        <pt x="1044" y="535" on="1"/>
      </contour>
    </TTGlyph>
    <TTGlyph name="asciitilde" xMin="2" yMin="344" xMax="737" yMax="573">
      <contour>
        <pt x="737" y="526" on="1"/>
        <pt x="731" y="539" on="1"/>
        <pt x="713" y="561" on="0"/>
        <pt x="690" y="563" on="1"/>
        <pt x="680" y="561" on="1"/>
        <pt x="672" y="555" on="0"/>
        <pt x="637" y="524" on="1"/>
        <pt x="586" y="483" on="0"/>
        <pt x="541" y="483" on="1"/>
        <pt x="530" y="483" on="1"/>
        <pt x="494" y="487" on="0"/>
        <pt x="408" y="528" on="1"/>
        <pt x="311" y="573" on="0"/>
        <pt x="260" y="573" on="1"/>
        <pt x="154" y="573" on="0"/>
        <pt x="70" y="487" on="1"/>
        <pt x="6" y="416" on="1"/>
        <pt x="2" y="414" on="0"/>
        <pt x="2" y="412" on="1"/>
        <pt x="4" y="399" on="1"/>
        <pt x="12" y="377" on="0"/>
        <pt x="35" y="367" on="1"/>
        <pt x="47" y="362" on="1"/>
        <pt x="55" y="363" on="0"/>
        <pt x="59" y="367" on="1"/>
        <pt x="59" y="369" on="1"/>
        <pt x="76" y="383" on="1"/>
        <pt x="143" y="438" on="0"/>
        <pt x="188" y="438" on="1"/>
        <pt x="197" y="436" on="0"/>
        <pt x="207" y="436" on="1"/>
        <pt x="248" y="432" on="0"/>
        <pt x="336" y="389" on="1"/>
        <pt x="430" y="346" on="0"/>
        <pt x="481" y="346" on="1"/>
        <pt x="573" y="344" on="0"/>
        <pt x="657" y="430" on="1"/>
        <pt x="735" y="518" on="1"/>
      </contour>
    </TTGlyph>
    <TTGlyph name="asterisk" xMin="66" yMin="641" xMax="758" yMax="1380">
      <contour>
        <pt x="467" y="641" on="1"/>
        <pt x="467" y="915" on="1"/>
        <pt x="702" y="778" on="1"/>
        <pt x="758" y="874" on="1"/>
        <pt x="522" y="1012" on="1"/>
        <pt x="758" y="1147" on="1"/>
        <pt x="702" y="1243" on="1"/>
        <pt x="467" y="1108" on="1"/>
        <pt x="467" y="1380" on="1"/>
        <pt x="356" y="1380" on="1"/>
        <pt x="356" y="1108" on="1"/>
        <pt x="121" y="1243" on="1"/>
        <pt x="66" y="1147" on="1"/>
        <pt x="301" y="1012" on="1"/>
        <pt x="66" y="874" on="1"/>
        <pt x="121" y="778" on="1"/>
        <pt x="356" y="915" on="1"/>
        <pt x="356" y="641" on="1"/>
      </contour>
    </TTGlyph>
    <TTGlyph name="at" xMin="71" yMin="-33" xMax="1526" yMax="1384">
      <contour>
        <pt x="1198" y="109" on="1"/>
        <pt x="1186" y="134" on="0"/>
        <pt x="1167" y="127" on="1"/>
        <pt x="1002" y="55" on="0"/>
        <pt x="844" y="55" on="1"/>
        <pt x="506" y="56" on="0"/>
        <pt x="350" y="283" on="1"/>
        <pt x="254" y="424" on="0"/>
        <pt x="254" y="604" on="1"/>
        <pt x="254" y="919" on="0"/>
        <pt x="459" y="1124" on="1"/>
        <pt x="631" y="1298" on="0"/>
        <pt x="883" y="1298" on="1"/>
        <pt x="1121" y="1298" on="0"/>
        <pt x="1268" y="1153" on="1"/>
        <pt x="1397" y="1026" on="0"/>
        <pt x="1397" y="840" on="1"/>
        <pt x="1397" y="662" on="0"/>
        <pt x="1274" y="539" on="1"/>
        <pt x="1163" y="430" on="0"/>
        <pt x="1001" y="430" on="1"/>
        <pt x="979" y="430" on="0"/>
        <pt x="979" y="471" on="1"/>
        <pt x="979" y="501" on="0"/>
        <pt x="987" y="532" on="1"/>
        <pt x="1128" y="1010" on="1"/>
        <pt x="1134" y="1035" on="0"/>
        <pt x="1085" y="1049" on="1"/>
        <pt x="1024" y="1067" on="0"/>
        <pt x="1012" y="1034" on="1"/>
        <pt x="991" y="983" on="1"/>
        <pt x="960" y="1014" on="0"/>
        <pt x="899" y="1014" on="1"/>
        <pt x="832" y="1014" on="0"/>
        <pt x="762" y="975" on="1"/>
        <pt x="641" y="908" on="0"/>
        <pt x="555" y="752" on="1"/>
        <pt x="477" y="611" on="0"/>
        <pt x="477" y="494" on="1"/>
        <pt x="477" y="358" on="0"/>
        <pt x="590" y="358" on="1"/>
        <pt x="688" y="358" on="0"/>
        <pt x="840" y="524" on="1"/>
        <pt x="850" y="518" on="1"/>
        <pt x="831" y="463" on="0"/>
        <pt x="831" y="436" on="1"/>
        <pt x="832" y="407" on="0"/>
        <pt x="846" y="389" on="1"/>
        <pt x="873" y="352" on="0"/>
        <pt x="975" y="352" on="1"/>
        <pt x="1253" y="353" on="0"/>
        <pt x="1411" y="539" on="1"/>
        <pt x="1526" y="674" on="0"/>
        <pt x="1526" y="848" on="1"/>
        <pt x="1526" y="1075" on="0"/>
        <pt x="1356" y="1229" on="1"/>
        <pt x="1182" y="1384" on="0"/>
        <pt x="901" y="1384" on="1"/>
        <pt x="506" y="1384" on="0"/>
        <pt x="260" y="1110" on="1"/>
        <pt x="72" y="899" on="0"/>
        <pt x="72" y="602" on="1"/>
        <pt x="71" y="256" on="0"/>
        <pt x="356" y="82" on="1"/>
        <pt x="542" y="-33" on="0"/>
        <pt x="782" y="-33" on="1"/>
        <pt x="1018" y="-33" on="0"/>
        <pt x="1194" y="76" on="1"/>
        <pt x="1210" y="86" on="0"/>
        <pt x="1198" y="109" on="1"/>
      </contour>
      <contour>
        <pt x="924" y="772" on="1"/>
        <pt x="886" y="652" on="0"/>
        <pt x="825" y="580" on="1"/>
        <pt x="712" y="449" on="0"/>
        <pt x="659" y="449" on="1"/>
        <pt x="629" y="448" on="0"/>
        <pt x="629" y="518" on="1"/>
        <pt x="631" y="649" on="0"/>
        <pt x="725" y="821" on="1"/>
        <pt x="803" y="967" on="0"/>
        <pt x="883" y="967" on="1"/>
        <pt x="947" y="967" on="0"/>
        <pt x="967" y="920" on="1"/>
      </contour>
    </TTGlyph>
    <TTGlyph name="atilde" xMin="43" yMin="-25" xMax="870" yMax="1257">
      <component glyphName="a" x="0" y="0" flags="0x0"/>
      <component glyphName="tildecomb" x="913" y="0" flags="0x0"/>
    </TTGlyph>
    <TTGlyph name="atilde.sc" xMin="-8" yMin="-6" xMax="1044" yMax="1325">
      <component glyphName="a.sc" x="0" y="0" flags="0x0"/>
      <component glyphName="tildecomb.sc" x="881" y="0" flags="0x0"/>
    </TTGlyph>
    <TTGlyph name="b" xMin="18" yMin="-23" xMax="981" yMax="1487">
      <contour>
        <pt x="981" y="440" on="1"/>
        <pt x="981" y="626" on="0"/>
        <pt x="856" y="752" on="1"/>
        <pt x="737" y="870" on="0"/>
        <pt x="561" y="870" on="1"/>
        <pt x="467" y="870" on="0"/>
        <pt x="393" y="819" on="1"/>
        <pt x="383" y="811" on="0"/>
        <pt x="375" y="811" on="1"/>
        <pt x="358" y="811" on="0"/>
        <pt x="358" y="840" on="1"/>
        <pt x="358" y="1286" on="1"/>
        <pt x="367" y="1462" on="1"/>
        <pt x="365" y="1487" on="0"/>
        <pt x="338" y="1487" on="1"/>
        <pt x="321" y="1487" on="0"/>
        <pt x="309" y="1477" on="1"/>
        <pt x="289" y="1458" on="0"/>
        <pt x="221" y="1425" on="1"/>
        <pt x="84" y="1360" on="0"/>
        <pt x="35" y="1360" on="1"/>
        <pt x="18" y="1362" on="0"/>
        <pt x="18" y="1323" on="1"/>
        <pt x="19" y="1286" on="0"/>
        <pt x="35" y="1286" on="1"/>
        <pt x="129" y="1286" on="0"/>
        <pt x="129" y="1161" on="1"/>
        <pt x="129" y="279" on="1"/>
        <pt x="129" y="66" on="0"/>
        <pt x="123" y="35" on="1"/>
        <pt x="123" y="26" on="0"/>
        <pt x="141" y="12" on="1"/>
        <pt x="184" y="-20" on="0"/>
        <pt x="215" y="-20" on="1"/>
        <pt x="225" y="-20" on="0"/>
        <pt x="229" y="-18" on="1"/>
        <pt x="248" y="-2" on="1"/>
        <pt x="287" y="31" on="0"/>
        <pt x="303" y="31" on="1"/>
        <pt x="353" y="31" on="0"/>
        <pt x="408" y="6" on="1"/>
        <pt x="480" y="-23" on="0"/>
        <pt x="537" y="-23" on="1"/>
        <pt x="757" y="-23" on="0"/>
        <pt x="868" y="104" on="1"/>
        <pt x="981" y="233" on="0"/>
        <pt x="981" y="440" on="1"/>
      </contour>
      <contour>
        <pt x="727" y="428" on="1"/>
        <pt x="727" y="57" on="0"/>
        <pt x="565" y="57" on="1"/>
        <pt x="485" y="58" on="0"/>
        <pt x="430" y="111" on="1"/>
        <pt x="358" y="180" on="0"/>
        <pt x="358" y="297" on="1"/>
        <pt x="358" y="647" on="1"/>
        <pt x="358" y="696" on="0"/>
        <pt x="389" y="727" on="1"/>
        <pt x="430" y="770" on="0"/>
        <pt x="502" y="770" on="1"/>
        <pt x="600" y="768" on="0"/>
        <pt x="659" y="682" on="1"/>
        <pt x="727" y="586" on="0"/>
        <pt x="727" y="428" on="1"/>
      </contour>
    </TTGlyph>
    <TTGlyph name="b.sc" xMin="49" yMin="-6" xMax="946" yMax="932">
      <contour>
        <pt x="946" y="254" on="1"/>
        <pt x="946" y="371" on="0"/>
        <pt x="776" y="476" on="0"/>
        <pt x="698" y="494" on="1"/>
        <pt x="661" y="502" on="0"/>
        <pt x="698" y="516" on="1"/>
        <pt x="864" y="580" on="0"/>
        <pt x="864" y="717" on="1"/>
        <pt x="864" y="827" on="0"/>
        <pt x="689" y="932" on="0"/>
        <pt x="537" y="932" on="1"/>
        <pt x="502" y="932" on="0"/>
        <pt x="369" y="928" on="0"/>
        <pt x="279" y="928" on="1"/>
        <pt x="189" y="928" on="0"/>
        <pt x="66" y="932" on="1"/>
        <pt x="49" y="932" on="0"/>
        <pt x="50" y="858" on="0"/>
        <pt x="66" y="858" on="1"/>
        <pt x="182" y="859" on="0"/>
        <pt x="182" y="793" on="1"/>
        <pt x="182" y="139" on="1"/>
        <pt x="182" y="100" on="0"/>
        <pt x="115" y="68" on="0"/>
        <pt x="72" y="68" on="1"/>
        <pt x="57" y="68" on="0"/>
        <pt x="58" y="-6" on="0"/>
        <pt x="72" y="-6" on="1"/>
        <pt x="219" y="0" on="0"/>
        <pt x="309" y="0" on="1"/>
        <pt x="399" y="0" on="0"/>
        <pt x="461" y="-6" on="0"/>
        <pt x="524" y="-6" on="1"/>
        <pt x="719" y="-6" on="0"/>
        <pt x="946" y="119" on="0"/>
        <pt x="946" y="254" on="1"/>
      </contour>
      <contour>
        <pt x="637" y="696" on="1"/>
        <pt x="637" y="542" on="0"/>
        <pt x="461" y="543" on="1"/>
        <pt x="453" y="543" on="0"/>
        <pt x="412" y="547" on="0"/>
        <pt x="412" y="561" on="1"/>
        <pt x="412" y="827" on="1"/>
        <pt x="412" y="850" on="0"/>
        <pt x="424" y="850" on="1"/>
        <pt x="637" y="850" on="0"/>
        <pt x="637" y="696" on="1"/>
      </contour>
      <contour>
        <pt x="684" y="254" on="1"/>
        <pt x="684" y="152" on="0"/>
        <pt x="600" y="82" on="0"/>
        <pt x="514" y="82" on="1"/>
        <pt x="449" y="82" on="0"/>
        <pt x="412" y="164" on="0"/>
        <pt x="412" y="203" on="1"/>
        <pt x="412" y="424" on="1"/>
        <pt x="410" y="449" on="0"/>
        <pt x="428" y="449" on="1"/>
        <pt x="539" y="449" on="0"/>
        <pt x="684" y="354" on="0"/>
        <pt x="684" y="254" on="1"/>
      </contour>
    </TTGlyph>
    <TTGlyph name="backslash" xMin="-26" yMin="-29" xMax="741" yMax="1495">
      <contour>
        <pt x="125" y="1481" on="1"/>
        <pt x="121" y="1493" on="0"/>
        <pt x="96" y="1493" on="1"/>
        <pt x="74" y="1495" on="0"/>
        <pt x="43" y="1483" on="1"/>
        <pt x="-26" y="1454" on="0"/>
        <pt x="-14" y="1425" on="1"/>
        <pt x="594" y="-18" on="1"/>
        <pt x="598" y="-29" on="0"/>
        <pt x="616" y="-29" on="1"/>
        <pt x="637" y="-26" on="0"/>
        <pt x="664" y="-18" on="1"/>
        <pt x="741" y="6" on="0"/>
        <pt x="731" y="31" on="1"/>
      </contour>
    </TTGlyph>
    <TTGlyph name="bar" xMin="197" yMin="-334" xMax="391" yMax="1434">
      <contour>
        <pt x="391" y="-334" on="1"/>
        <pt x="391" y="1434" on="1"/>
        <pt x="197" y="1434" on="1"/>
        <pt x="197" y="-334" on="1"/>
      </contour>
    </TTGlyph>
    <TTGlyph name="beta" xMin="8" yMin="-338" xMax="981" yMax="1333">
      <contour>
        <pt x="358" y="6" on="1"/>
        <pt x="430" y="-23" on="0"/>
        <pt x="526" y="-23" on="1"/>
        <pt x="762" y="-23" on="0"/>
        <pt x="864" y="98" on="1"/>
        <pt x="981" y="234" on="0"/>
        <pt x="981" y="412" on="1"/>
        <pt x="981" y="690" on="0"/>
        <pt x="721" y="741" on="1"/>
        <pt x="692" y="748" on="0"/>
        <pt x="692" y="758" on="1"/>
        <pt x="692" y="764" on="0"/>
        <pt x="725" y="782" on="1"/>
        <pt x="915" y="895" on="0"/>
        <pt x="915" y="1077" on="1"/>
        <pt x="915" y="1149" on="0"/>
        <pt x="858" y="1231" on="1"/>
        <pt x="787" y="1331" on="0"/>
        <pt x="590" y="1331" on="1"/>
        <pt x="392" y="1333" on="0"/>
        <pt x="279" y="1208" on="1"/>
        <pt x="129" y="1040" on="0"/>
        <pt x="129" y="862" on="1"/>
        <pt x="129" y="-178" on="1"/>
        <pt x="127" y="-262" on="0"/>
        <pt x="25" y="-262" on="1"/>
        <pt x="8" y="-262" on="0"/>
        <pt x="9" y="-338" on="0"/>
        <pt x="25" y="-338" on="1"/>
        <pt x="105" y="-330" on="0"/>
        <pt x="248" y="-330" on="1"/>
        <pt x="416" y="-330" on="0"/>
        <pt x="500" y="-338" on="1"/>
        <pt x="514" y="-338" on="0"/>
        <pt x="514" y="-262" on="0"/>
        <pt x="500" y="-262" on="1"/>
        <pt x="358" y="-262" on="0"/>
        <pt x="358" y="-176" on="1"/>
      </contour>
      <contour>
        <pt x="727" y="389" on="1"/>
        <pt x="727" y="235" on="0"/>
        <pt x="680" y="139" on="1"/>
        <pt x="639" y="57" on="0"/>
        <pt x="571" y="57" on="1"/>
        <pt x="415" y="58" on="0"/>
        <pt x="358" y="121" on="1"/>
        <pt x="358" y="1026" on="1"/>
        <pt x="359" y="1127" on="0"/>
        <pt x="414" y="1180" on="1"/>
        <pt x="465" y="1229" on="0"/>
        <pt x="526" y="1229" on="1"/>
        <pt x="614" y="1229" on="0"/>
        <pt x="653" y="1188" on="1"/>
        <pt x="711" y="1133" on="0"/>
        <pt x="713" y="1055" on="1"/>
        <pt x="716" y="886" on="0"/>
        <pt x="659" y="825" on="1"/>
        <pt x="614" y="778" on="0"/>
        <pt x="510" y="762" on="1"/>
        <pt x="457" y="758" on="1"/>
        <pt x="442" y="758" on="0"/>
        <pt x="442" y="719" on="1"/>
        <pt x="443" y="674" on="0"/>
        <pt x="457" y="678" on="1"/>
        <pt x="514" y="694" on="0"/>
        <pt x="571" y="694" on="1"/>
        <pt x="641" y="694" on="0"/>
        <pt x="684" y="637" on="1"/>
        <pt x="727" y="575" on="0"/>
        <pt x="727" y="389" on="1"/>
      </contour>
    </TTGlyph>
    <TTGlyph name="braceleft" xMin="82" yMin="-319" xMax="729" yMax="1493">
      <contour>
        <pt x="715" y="-319" on="1"/>
        <pt x="729" y="-319" on="0"/>
        <pt x="729" y="-244" on="0"/>
        <pt x="713" y="-244" on="1"/>
        <pt x="547" y="-243" on="0"/>
        <pt x="504" y="-182" on="1"/>
        <pt x="461" y="-125" on="0"/>
        <pt x="461" y="39" on="1"/>
        <pt x="461" y="305" on="1"/>
        <pt x="461" y="408" on="0"/>
        <pt x="449" y="463" on="1"/>
        <pt x="424" y="561" on="0"/>
        <pt x="334" y="616" on="1"/>
        <pt x="419" y="666" on="0"/>
        <pt x="444" y="750" on="1"/>
        <pt x="461" y="807" on="0"/>
        <pt x="461" y="950" on="1"/>
        <pt x="461" y="1184" on="1"/>
        <pt x="460" y="1333" on="0"/>
        <pt x="530" y="1380" on="1"/>
        <pt x="582" y="1417" on="0"/>
        <pt x="715" y="1417" on="1"/>
        <pt x="727" y="1417" on="0"/>
        <pt x="727" y="1493" on="0"/>
        <pt x="713" y="1493" on="1"/>
        <pt x="590" y="1493" on="0"/>
        <pt x="537" y="1489" on="1"/>
        <pt x="393" y="1478" on="0"/>
        <pt x="332" y="1419" on="1"/>
        <pt x="250" y="1341" on="0"/>
        <pt x="250" y="1122" on="1"/>
        <pt x="250" y="797" on="1"/>
        <pt x="250" y="754" on="0"/>
        <pt x="240" y="725" on="1"/>
        <pt x="213" y="647" on="0"/>
        <pt x="96" y="647" on="1"/>
        <pt x="82" y="647" on="0"/>
        <pt x="82" y="586" on="0"/>
        <pt x="96" y="586" on="1"/>
        <pt x="143" y="585" on="0"/>
        <pt x="174" y="573" on="1"/>
        <pt x="250" y="545" on="0"/>
        <pt x="250" y="430" on="1"/>
        <pt x="250" y="6" on="1"/>
        <pt x="250" y="-112" on="0"/>
        <pt x="287" y="-184" on="1"/>
        <pt x="336" y="-284" on="0"/>
        <pt x="475" y="-309" on="1"/>
        <pt x="539" y="-319" on="0"/>
        <pt x="715" y="-319" on="1"/>
      </contour>
    </TTGlyph>
    <TTGlyph name="braceright" xMin="63" yMin="-319" xMax="713" yMax="1493">
      <contour>
        <pt x="80" y="-319" on="1"/>
        <pt x="352" y="-319" on="0"/>
        <pt x="426" y="-272" on="1"/>
        <pt x="545" y="-197" on="0"/>
        <pt x="545" y="6" on="1"/>
        <pt x="545" y="430" on="1"/>
        <pt x="545" y="479" on="0"/>
        <pt x="557" y="512" on="1"/>
        <pt x="585" y="586" on="0"/>
        <pt x="698" y="586" on="1"/>
        <pt x="713" y="586" on="0"/>
        <pt x="712" y="647" on="0"/>
        <pt x="696" y="647" on="1"/>
        <pt x="652" y="647" on="0"/>
        <pt x="621" y="657" on="1"/>
        <pt x="543" y="684" on="0"/>
        <pt x="543" y="797" on="1"/>
        <pt x="543" y="1122" on="1"/>
        <pt x="543" y="1272" on="0"/>
        <pt x="504" y="1360" on="1"/>
        <pt x="463" y="1450" on="0"/>
        <pt x="346" y="1477" on="1"/>
        <pt x="275" y="1493" on="0"/>
        <pt x="80" y="1493" on="1"/>
        <pt x="63" y="1493" on="0"/>
        <pt x="64" y="1417" on="0"/>
        <pt x="80" y="1417" on="1"/>
        <pt x="207" y="1417" on="0"/>
        <pt x="258" y="1384" on="1"/>
        <pt x="334" y="1336" on="0"/>
        <pt x="334" y="1184" on="1"/>
        <pt x="334" y="950" on="1"/>
        <pt x="334" y="819" on="0"/>
        <pt x="346" y="766" on="1"/>
        <pt x="371" y="669" on="0"/>
        <pt x="461" y="616" on="1"/>
        <pt x="394" y="577" on="0"/>
        <pt x="365" y="518" on="1"/>
        <pt x="332" y="452" on="0"/>
        <pt x="332" y="305" on="1"/>
        <pt x="332" y="39" on="1"/>
        <pt x="332" y="-160" on="0"/>
        <pt x="264" y="-209" on="1"/>
        <pt x="215" y="-244" on="0"/>
        <pt x="80" y="-244" on="1"/>
        <pt x="63" y="-244" on="0"/>
        <pt x="64" y="-319" on="0"/>
        <pt x="80" y="-319" on="1"/>
      </contour>
    </TTGlyph>
    <TTGlyph name="bracketleft" xMin="294" yMin="-354" xMax="774" yMax="1530">
      <contour>
        <pt x="754" y="-354" on="1"/>
        <pt x="774" y="-354" on="0"/>
        <pt x="774" y="-258" on="0"/>
        <pt x="754" y="-258" on="1"/>
        <pt x="522" y="-258" on="1"/>
        <pt x="508" y="-258" on="0"/>
        <pt x="508" y="-229" on="1"/>
        <pt x="508" y="1411" on="1"/>
        <pt x="508" y="1434" on="0"/>
        <pt x="528" y="1434" on="1"/>
        <pt x="754" y="1434" on="1"/>
        <pt x="774" y="1434" on="0"/>
        <pt x="774" y="1530" on="0"/>
        <pt x="754" y="1530" on="1"/>
        <pt x="315" y="1530" on="1"/>
        <pt x="295" y="1529" on="0"/>
        <pt x="295" y="1511" on="1"/>
        <pt x="295" y="-332" on="1"/>
        <pt x="294" y="-354" on="0"/>
        <pt x="317" y="-354" on="1"/>
        <pt x="754" y="-354" on="1"/>
      </contour>
    </TTGlyph>
    <TTGlyph name="bracketright" xMin="27" yMin="-355" xMax="504" yMax="1530">
      <contour>
        <pt x="504" y="1511" on="1"/>
        <pt x="503" y="1530" on="0"/>
        <pt x="483" y="1530" on="1"/>
        <pt x="47" y="1530" on="1"/>
        <pt x="27" y="1530" on="0"/>
        <pt x="27" y="1434" on="0"/>
        <pt x="47" y="1434" on="1"/>
        <pt x="274" y="1434" on="1"/>
        <pt x="293" y="1434" on="0"/>
        <pt x="293" y="1411" on="1"/>
        <pt x="293" y="-233" on="1"/>
        <pt x="293" y="-258" on="0"/>
        <pt x="279" y="-258" on="1"/>
        <pt x="47" y="-258" on="1"/>
        <pt x="27" y="-258" on="0"/>
        <pt x="27" y="-354" on="0"/>
        <pt x="47" y="-354" on="1"/>
        <pt x="481" y="-354" on="1"/>
        <pt x="504" y="-355" on="0"/>
        <pt x="504" y="-332" on="1"/>
      </contour>
    </TTGlyph>
    <TTGlyph name="breve" xMin="100" yMin="1020" xMax="678" yMax="1335">
      <contour>
        <pt x="678" y="1327" on="1"/>
        <pt x="678" y="1335" on="0"/>
        <pt x="647" y="1335" on="1"/>
        <pt x="618" y="1335" on="0"/>
        <pt x="616" y="1327" on="1"/>
        <pt x="577" y="1155" on="0"/>
        <pt x="389" y="1155" on="1"/>
        <pt x="201" y="1155" on="0"/>
        <pt x="162" y="1327" on="1"/>
        <pt x="158" y="1335" on="0"/>
        <pt x="131" y="1335" on="1"/>
        <pt x="100" y="1335" on="0"/>
        <pt x="100" y="1327" on="1"/>
        <pt x="100" y="1020" on="0"/>
        <pt x="389" y="1020" on="1"/>
        <pt x="678" y="1020" on="0"/>
        <pt x="678" y="1327" on="1"/>
      </contour>
    </TTGlyph>
    <TTGlyph name="brokenbar" xMin="197" yMin="109" xMax="391" yMax="1372">
      <contour>
        <pt x="391" y="1372" on="1"/>
        <pt x="197" y="1372" on="1"/>
        <pt x="197" y="795" on="1"/>
        <pt x="391" y="795" on="1"/>
      </contour>
      <contour>
        <pt x="391" y="688" on="1"/>
        <pt x="197" y="688" on="1"/>
        <pt x="197" y="109" on="1"/>
        <pt x="391" y="109" on="1"/>
      </contour>
    </TTGlyph>
    <TTGlyph name="bullet" xMin="86" yMin="367" xMax="723" yMax="1008">
      <contour>
        <pt x="403" y="1008" on="1"/>
        <pt x="272" y="1008" on="0"/>
        <pt x="178" y="915" on="1"/>
        <pt x="86" y="823" on="0"/>
        <pt x="86" y="553" on="0"/>
        <pt x="178" y="461" on="1"/>
        <pt x="270" y="367" on="0"/>
        <pt x="537" y="369" on="0"/>
        <pt x="629" y="459" on="1"/>
        <pt x="723" y="553" on="0"/>
        <pt x="723" y="688" on="1"/>
        <pt x="723" y="821" on="0"/>
        <pt x="629" y="915" on="1"/>
        <pt x="536" y="1008" on="0"/>
        <pt x="403" y="1008" on="1"/>
      </contour>
    </TTGlyph>
</ttFont>
